<svg width="20" height="4" viewBox="0 0 20 4" fill="none" xmlns="http://www.w3.org/2000/svg">
<path d="M2 -8.74228e-08C3.10457 -1.35705e-07 4 0.89543 4 2C4 3.10457 3.10457 4 2 4C0.89543 4 -3.91405e-08 3.10457 -8.74228e-08 2C-1.35705e-07 0.895431 0.89543 -3.91405e-08 2 -8.74228e-08Z" fill="white"/>
<path d="M10 -8.74228e-08C11.1046 -1.35705e-07 12 0.89543 12 2C12 3.10457 11.1046 4 10 4C8.89543 4 8 3.10457 8 2C8 0.895431 8.89543 -3.91405e-08 10 -8.74228e-08Z" fill="#A5A5A5"/>
<path d="M18 -8.74228e-08C19.1046 -1.35705e-07 20 0.89543 20 2C20 3.10457 19.1046 4 18 4C16.8954 4 16 3.10457 16 2C16 0.895431 16.8954 -3.91405e-08 18 -8.74228e-08Z" fill="#A5A5A5"/>
</svg>
