<svg width="360" height="360" viewBox="0 0 360 360" fill="none" xmlns="http://www.w3.org/2000/svg">
<circle cx="180" cy="180" r="180" fill="black"/>
<path d="M261.284 137.222H98.5267C96.1191 137.222 93.7351 137.696 91.5108 138.618C89.2865 139.539 87.2655 140.889 85.5631 142.592C83.8607 144.294 82.5102 146.315 81.5889 148.54C80.6676 150.764 80.1934 153.148 80.1934 155.556C80.1934 157.963 80.6676 160.347 81.5889 162.571C82.5102 164.796 83.8607 166.817 85.5631 168.519C87.2655 170.222 89.2865 171.572 91.5108 172.493C93.7351 173.415 96.1191 173.889 98.5267 173.889C99.6389 173.889 100.708 173.748 101.766 173.565L101.668 173.889L105.561 259.469C106.166 272.901 117.667 283.889 131.111 283.889H228.889C242.333 283.889 253.834 272.901 254.446 259.469L258.332 173.889L258.241 173.583C259.237 173.748 260.239 173.889 261.284 173.889C263.691 173.889 266.075 173.415 268.3 172.493C270.524 171.572 272.545 170.222 274.248 168.519C275.95 166.817 277.3 164.796 278.222 162.571C279.143 160.347 279.617 157.963 279.617 155.556C279.617 153.148 279.143 150.764 278.222 148.54C277.3 146.315 275.95 144.294 274.248 142.592C272.545 140.889 270.524 139.539 268.3 138.618C266.075 137.696 263.691 137.222 261.284 137.222Z" fill="#E1E8ED"/>
<path d="M245.193 173.889V277.711C250.467 273.225 254.018 266.735 254.311 259.463L258.467 173.889H245.193ZM208.527 173.889H226.86V283.889H208.527V173.889ZM171.86 283.889V173.889H190.193V283.889H171.86ZM135.193 173.889H153.527V283.889H135.193V173.889ZM101.533 173.889L105.689 259.463C106.019 267.664 110.431 274.912 116.86 279.348V173.889H101.533Z" fill="#DA2F47"/>
<path opacity="0.6" d="M101.533 173.889L102.126 186.111H257.868L258.467 173.889H101.533Z" fill="#99AAB5"/>
<path d="M259.011 137.65C259.274 136.526 259.445 135.371 259.445 134.167C259.445 130.048 257.795 126.32 255.143 123.576C257.721 121.951 259.445 119.103 259.445 115.833C259.442 114.336 259.073 112.862 258.37 111.54C257.666 110.219 256.65 109.089 255.409 108.251C254.168 107.413 252.741 106.892 251.252 106.733C249.763 106.574 248.258 106.782 246.868 107.339C246.452 105.799 245.639 104.395 244.511 103.267C243.383 102.139 241.979 101.327 240.439 100.91C240.996 99.5201 241.204 98.015 241.045 96.5262C240.886 95.0373 240.365 93.6101 239.527 92.3693C238.689 91.1285 237.559 90.1119 236.238 89.4083C234.916 88.7048 233.442 88.3357 231.945 88.3333C230.778 88.3333 229.671 88.5717 228.645 88.9689C228.335 86.9414 227.619 84.9973 226.54 83.2529C225.462 81.5085 224.042 79.9997 222.366 78.8168C220.691 77.6339 218.794 76.8012 216.789 76.3685C214.784 75.9358 212.713 75.9121 210.698 76.2988C208.684 76.6854 206.769 77.4745 205.066 78.6187C203.364 79.763 201.91 81.2389 200.792 82.9581C199.673 84.6773 198.913 86.6045 198.557 88.6244C198.201 90.6442 198.256 92.7152 198.719 94.7133C194.808 95.4039 191.446 97.5794 189.167 100.635C187.756 98.7194 185.915 97.1615 183.792 96.0864C181.669 95.0112 179.324 94.4489 176.945 94.4444C172.893 94.4444 169.007 96.0541 166.142 98.9192C163.277 101.784 161.667 105.67 161.667 109.722L161.673 109.796C159.794 108.356 157.602 107.381 155.275 106.948C154.632 103.439 152.779 100.267 150.039 97.9822C147.299 95.6978 143.845 94.446 140.278 94.4444C136.702 94.4469 133.24 95.7059 130.498 98.0013C127.756 100.297 125.907 103.483 125.275 107.003C124.176 106.804 123.062 106.691 121.945 106.667C116.272 106.667 110.832 108.92 106.821 112.931C102.809 116.943 100.556 122.383 100.556 128.056C100.556 131.386 101.381 134.497 102.738 137.308C100.351 137.469 98.123 138.56 96.532 140.346C94.941 142.132 94.1138 144.471 94.2282 146.86C94.3427 149.249 95.3895 151.498 97.1439 153.124C98.8984 154.75 101.22 155.623 103.611 155.556H256.389C258.593 155.57 260.728 154.787 262.4 153.352C264.073 151.916 265.17 149.924 265.489 147.743C265.808 145.562 265.328 143.34 264.138 141.485C262.947 139.63 261.127 138.268 259.011 137.65Z" fill="#FFD983"/>
<path d="M241.111 125C244.486 125 247.222 122.264 247.222 118.889C247.222 115.514 244.486 112.778 241.111 112.778C237.736 112.778 235 115.514 235 118.889C235 122.264 237.736 125 241.111 125Z" fill="#FFAC33"/>
<path d="M219.722 112.778C224.785 112.778 228.889 108.674 228.889 103.611C228.889 98.5485 224.785 94.4445 219.722 94.4445C214.66 94.4445 210.556 98.5485 210.556 103.611C210.556 108.674 214.66 112.778 219.722 112.778Z" fill="#FFAC33"/>
<path d="M143.334 118.889C146.709 118.889 149.445 116.153 149.445 112.778C149.445 109.403 146.709 106.667 143.334 106.667C139.959 106.667 137.223 109.403 137.223 112.778C137.223 116.153 139.959 118.889 143.334 118.889Z" fill="#FFAC33"/>
<path d="M259.445 146.389C259.445 144.222 258.676 142.125 257.275 140.472C255.873 138.819 253.93 137.717 251.792 137.363C249.654 137.008 247.46 137.424 245.6 138.537C243.74 139.649 242.336 141.386 241.637 143.437C241.46 143.425 241.301 143.333 241.111 143.333C239.491 143.333 237.936 143.977 236.79 145.123C235.644 146.269 235 147.824 235 149.444H258.883C259.225 148.485 259.445 147.464 259.445 146.389ZM128.056 143.333C129.266 143.333 130.409 143.578 131.466 144.006C132.036 141.856 133.369 139.989 135.217 138.752C137.065 137.515 139.3 136.994 141.504 137.286C143.708 137.578 145.73 138.664 147.192 140.339C148.654 142.015 149.454 144.165 149.445 146.389C149.445 147.464 149.225 148.485 148.883 149.444H174.451C174.09 148.466 173.899 147.432 173.889 146.389C173.889 143.958 174.855 141.626 176.574 139.907C178.293 138.188 180.625 137.222 183.056 137.222C184.504 137.222 185.861 137.589 187.077 138.188C186.45 136.94 186.12 135.563 186.111 134.167C186.106 132.813 186.401 131.474 186.975 130.248C187.548 129.021 188.387 127.937 189.429 127.073C190.472 126.209 191.693 125.587 193.005 125.251C194.316 124.915 195.686 124.874 197.016 125.131C198.345 125.387 199.601 125.936 200.694 126.736C201.786 127.536 202.688 128.568 203.334 129.758C203.98 130.948 204.355 132.266 204.43 133.618C204.506 134.97 204.281 136.322 203.773 137.577C207.671 138.628 210.556 142.154 210.556 146.389C210.556 147.464 210.336 148.485 209.994 149.444H228.131L224.673 146.389C227.239 144.146 228.889 140.895 228.889 137.222C228.889 133.981 227.602 130.872 225.309 128.58C223.017 126.288 219.909 125 216.667 125C214.444 125.009 212.266 125.631 210.373 126.797C210.464 126.204 210.556 125.617 210.556 125C210.561 122.209 209.61 119.5 207.86 117.326C206.11 115.151 203.668 113.642 200.94 113.05C198.212 112.458 195.364 112.819 192.87 114.073C190.376 115.327 188.388 117.398 187.236 119.94C185.947 119.26 184.513 118.899 183.056 118.889C181.559 118.891 180.085 119.26 178.763 119.964C177.441 120.667 176.312 121.684 175.474 122.925C174.636 124.166 174.114 125.593 173.955 127.082C173.796 128.571 174.004 130.076 174.561 131.466C170.663 132.523 167.778 136.049 167.778 140.278C167.778 141.488 168.023 142.631 168.45 143.688C167.065 144.061 165.788 144.756 164.723 145.717C163.053 144.189 160.874 143.339 158.611 143.333C157.163 143.333 155.806 143.7 154.584 144.305C155.189 143.083 155.556 141.726 155.556 140.278C155.554 138.78 155.184 137.307 154.481 135.985C153.777 134.663 152.761 133.534 151.52 132.696C150.279 131.858 148.852 131.336 147.363 131.177C145.874 131.018 144.369 131.226 142.979 131.783C142.656 130.578 142.09 129.453 141.315 128.475C140.54 127.497 139.574 126.688 138.475 126.098C137.376 125.508 136.167 125.149 134.925 125.043C133.682 124.937 132.43 125.087 131.247 125.483C130.064 125.879 128.975 126.513 128.046 127.346C127.117 128.178 126.369 129.192 125.847 130.325C125.325 131.458 125.04 132.686 125.01 133.933C124.98 135.18 125.205 136.42 125.673 137.577C124.287 137.95 123.01 138.645 121.945 139.606C120.276 138.078 118.096 137.228 115.834 137.222C113.403 137.222 111.071 138.188 109.352 139.907C107.633 141.626 106.667 143.958 106.667 146.389C106.667 147.464 106.887 148.485 107.229 149.444H119.451C120.716 145.894 124.071 143.333 128.056 143.333Z" fill="#FFAC33"/>
<path d="M94.4443 149.444V155.556C94.4443 157.176 95.0882 158.731 96.2342 159.877C97.3803 161.023 98.9347 161.667 100.555 161.667H259.444C261.065 161.667 262.619 161.023 263.766 159.877C264.912 158.731 265.555 157.176 265.555 155.556V149.444H94.4443Z" fill="white"/>
</svg>
