<svg width="360" height="360" viewBox="0 0 360 360" fill="none" xmlns="http://www.w3.org/2000/svg">
<circle cx="180" cy="180" r="180" fill="#EAE9DA"/>
<mask id="mask0_330_2037" style="mask-type:alpha" maskUnits="userSpaceOnUse" x="0" y="0" width="360" height="360">
<circle cx="180" cy="180" r="180" fill="#EAE9DA"/>
</mask>
<g mask="url(#mask0_330_2037)">
<mask id="mask1_330_2037" style="mask-type:luminance" maskUnits="userSpaceOnUse" x="93" y="40" width="350" height="234">
<path d="M442.246 169.315L437.696 153.187C434.245 154.154 430.652 152.133 429.68 148.689C428.708 145.245 430.73 141.661 434.18 140.694L432.814 135.883C429.364 136.85 425.77 134.829 424.798 131.385C423.827 127.941 425.848 124.357 429.299 123.39L427.932 118.579C424.482 119.546 420.888 117.525 419.917 114.081C418.945 110.637 420.966 107.053 424.417 106.086L423.05 101.275C419.6 102.242 416.006 100.221 415.035 96.7774C414.063 93.3333 416.085 89.7485 419.535 88.7817L418.169 83.9709C414.718 84.9377 411.125 82.9173 410.153 79.4733C409.181 76.0293 411.203 72.4445 414.653 71.4777L410.308 56.0445C398.382 59.3775 386.017 52.4366 382.667 40.5315L109.207 116.978C112.556 128.883 105.611 141.216 93.6845 144.549L98.0294 159.982C101.48 159.016 105.073 161.036 106.045 164.48C107.017 167.924 104.995 171.509 101.545 172.476L102.911 177.286C106.361 176.32 109.955 178.34 110.927 181.784C111.898 185.228 109.877 188.813 106.427 189.78L107.793 194.591C111.243 193.624 114.837 195.644 115.809 199.088C116.78 202.532 114.759 206.117 111.308 207.084L112.675 211.895C116.125 210.928 119.719 212.948 120.69 216.392C121.662 219.836 119.64 223.421 116.19 224.388L117.556 229.199C121.007 228.232 124.6 230.252 125.572 233.696C126.544 237.14 124.522 240.725 121.072 241.692L125.622 257.82C137.549 254.487 149.913 261.428 153.263 273.333L426.75 196.852C423.4 184.947 430.345 172.613 442.272 169.28L442.246 169.315Z" fill="white"/>
</mask>
<g mask="url(#mask1_330_2037)">
<path d="M458.543 203.588L161.324 286.719C143.105 291.824 124 281.107 118.873 262.902L79.781 124.045C74.6504 105.859 85.3739 86.8015 103.612 81.6999L400.827 -1.41147C419.046 -6.51672 421.573 8.84576 426.704 27.0318L465.796 165.889C470.926 184.075 476.777 198.506 458.562 203.592L458.543 203.588Z" fill="#1B262B"/>
<path d="M434.099 13.848L337.461 40.8818L395.326 246.337L491.964 219.303L434.099 13.848Z" fill="#EAE9DA"/>
<path style="mix-blend-mode:multiply" d="M336.559 49.6848L330.386 51.4105L380.104 228.057L386.277 226.332L336.559 49.6848Z" fill="url(#paint0_linear_330_2037)"/>
<g style="mix-blend-mode:multiply">
<path d="M331.82 53.5193C332.24 53.4014 332.505 52.9556 332.371 52.5127L330.574 46.1096C330.455 45.6896 330.008 45.4251 329.588 45.543C329.167 45.6609 328.902 46.1067 329.036 46.5495L330.834 52.9527C330.952 53.3727 331.399 53.6372 331.82 53.5193Z" fill="#4E5256"/>
<path d="M335.411 66.2455C335.831 66.1276 336.096 65.6818 335.962 65.2389L334.165 58.8358C334.046 58.4158 333.599 58.1513 333.178 58.2692C332.758 58.3871 332.493 58.8329 332.627 59.2757L334.424 65.6789C334.543 66.0989 334.99 66.3634 335.411 66.2455Z" fill="#4E5256"/>
<path d="M338.977 78.9868C339.398 78.8689 339.662 78.4231 339.528 77.9803L337.731 71.5771C337.613 71.1571 337.166 70.8926 336.745 71.0105C336.324 71.1284 336.059 71.5742 336.193 72.017L337.991 78.4202C338.109 78.8402 338.556 79.1047 338.977 78.9868Z" fill="#4E5256"/>
<path d="M356.921 142.655C357.342 142.537 357.607 142.092 357.473 141.649L355.675 135.246C355.557 134.826 355.11 134.561 354.689 134.679C354.268 134.797 354.004 135.243 354.138 135.685L355.935 142.089C356.054 142.509 356.501 142.773 356.921 142.655Z" fill="#4E5256"/>
<path d="M360.492 155.378C360.912 155.26 361.177 154.814 361.043 154.371L359.246 147.968C359.127 147.548 358.68 147.283 358.259 147.401C357.839 147.519 357.574 147.965 357.708 148.408L359.505 154.811C359.624 155.231 360.071 155.495 360.492 155.378Z" fill="#4E5256"/>
<path d="M364.078 168.123C364.499 168.005 364.764 167.559 364.63 167.116L362.833 160.713C362.714 160.293 362.267 160.028 361.846 160.146C361.426 160.264 361.161 160.71 361.295 161.153L363.092 167.556C363.211 167.976 363.658 168.241 364.078 168.123Z" fill="#4E5256"/>
</g>
<g style="mix-blend-mode:screen">
<path d="M333.377 53.0833C333.798 52.9654 334.063 52.5196 333.929 52.0767L332.131 45.6735C332.013 45.2535 331.566 44.989 331.145 45.1069C330.724 45.2248 330.46 45.6706 330.594 46.1135L332.391 52.5166C332.51 52.9366 332.957 53.2012 333.377 53.0833Z" fill="white"/>
<path d="M336.948 65.8055C337.368 65.6876 337.633 65.2418 337.499 64.799L335.702 58.3958C335.583 57.9758 335.136 57.7113 334.716 57.8292C334.295 57.9471 334.03 58.3929 334.164 58.8358L335.961 65.2389C336.08 65.6589 336.527 65.9234 336.948 65.8055Z" fill="white"/>
<path d="M340.535 78.5508C340.955 78.4329 341.22 77.9871 341.086 77.5442L339.289 71.1411C339.17 70.7211 338.723 70.4566 338.302 70.5745C337.882 70.6924 337.617 71.1382 337.751 71.581L339.548 77.9842C339.667 78.4042 340.114 78.6687 340.535 78.5508Z" fill="white"/>
<path d="M344.125 91.2767C344.546 91.1588 344.811 90.713 344.677 90.2702L342.879 83.867C342.761 83.447 342.314 83.1825 341.893 83.3004C341.473 83.4183 341.208 83.8641 341.342 84.307L343.139 90.7101C343.258 91.1301 343.705 91.3947 344.125 91.2767Z" fill="white"/>
<path d="M347.712 104.022C348.133 103.904 348.398 103.459 348.264 103.016L346.466 96.6125C346.348 96.1925 345.901 95.928 345.48 96.0459C345.059 96.1638 344.795 96.6096 344.929 97.0524L346.726 103.456C346.845 103.876 347.292 104.14 347.712 104.022Z" fill="white"/>
<path d="M351.301 116.748C351.722 116.63 351.987 116.184 351.853 115.741L350.055 109.338C349.937 108.918 349.49 108.654 349.069 108.771C348.648 108.889 348.384 109.335 348.518 109.778L350.315 116.181C350.433 116.601 350.88 116.866 351.301 116.748Z" fill="white"/>
<path d="M354.888 129.493C355.309 129.375 355.574 128.93 355.44 128.487L353.642 122.084C353.524 121.664 353.077 121.399 352.656 121.517C352.235 121.635 351.971 122.081 352.105 122.524L353.902 128.927C354.02 129.347 354.467 129.611 354.888 129.493Z" fill="white"/>
<path d="M358.46 142.216C358.881 142.098 359.146 141.652 359.012 141.209L357.214 134.806C357.096 134.386 356.649 134.121 356.228 134.239C355.807 134.357 355.543 134.803 355.677 135.246L357.474 141.649C357.593 142.069 358.04 142.334 358.46 142.216Z" fill="white"/>
<path d="M362.049 154.942C362.47 154.824 362.735 154.378 362.601 153.935L360.803 147.532C360.685 147.112 360.238 146.847 359.817 146.965C359.396 147.083 359.132 147.529 359.266 147.972L361.063 154.375C361.181 154.795 361.628 155.059 362.049 154.942Z" fill="white"/>
</g>
</g>
<path d="M172.134 248.33C162.245 246.433 154.438 239.294 151.744 229.68L130.205 153.205C126.283 139.303 134.437 124.818 148.361 120.934L297.443 79.2412C301.375 78.1483 305.392 77.9655 309.405 78.7355C319.293 80.6326 327.1 87.7718 329.814 97.3898L351.352 173.865C355.274 187.767 347.12 202.252 333.196 206.135L184.115 247.828C180.182 248.921 176.166 249.104 172.153 248.334L172.134 248.33ZM309.07 80.4788C305.345 79.7642 301.593 79.9183 297.932 80.944L148.851 122.637C135.872 126.265 128.265 139.763 131.908 152.737L153.446 229.212C155.966 238.177 163.268 244.842 172.484 246.61C176.209 247.324 179.961 247.17 183.621 246.145L332.703 204.452C345.682 200.824 353.288 187.326 349.646 174.352L328.108 97.8769C325.587 88.9117 318.286 82.2471 309.07 80.4788Z" fill="#B6C1C1"/>
<g opacity="0.84">
<path d="M392.276 65.9854L391.985 64.9521L347.739 77.3216L348.029 78.3548L392.276 65.9854Z" fill="#282828"/>
<path d="M392.898 68.2166L392.607 67.1833L348.361 79.5528L348.651 80.586L392.898 68.2166Z" fill="#282828"/>
<path d="M394.603 74.3269L394.312 73.2937L350.066 85.6631L350.356 86.6963L394.603 74.3269Z" fill="#282828"/>
<path d="M394.103 72.2629L393.362 69.6329L349.118 82.0101L349.858 84.64L394.103 72.2629Z" fill="#282828"/>
<path d="M356.902 109.749L357.192 110.782L395.228 100.149L394.938 99.1157L356.902 109.749Z" fill="#282828"/>
<path d="M356.278 107.532L356.568 108.565L394.604 97.9323L394.314 96.899L356.278 107.532Z" fill="#282828"/>
<path d="M358.021 113.773L358.312 114.807L396.348 104.173L396.057 103.14L358.021 113.773Z" fill="#282828"/>
<path d="M358.555 115.845L359.296 118.475L397.33 107.835L396.589 105.205L358.555 115.845Z" fill="#282828"/>
<path d="M353.465 97.5485L353.756 98.5818L391.792 87.9486L391.501 86.9154L353.465 97.5485Z" fill="#282828"/>
<path d="M352.845 95.3501L353.136 96.3833L391.172 85.7501L390.881 84.7169L352.845 95.3501Z" fill="#282828"/>
<path d="M351.636 91.1507L351.927 92.184L389.963 81.5508L389.672 80.5175L351.636 91.1507Z" fill="#282828"/>
<path d="M351.032 88.9377L351.323 89.9709L389.359 79.3378L389.069 78.3045L351.032 88.9377Z" fill="#282828"/>
<path d="M354.603 101.568L354.894 102.601L392.93 91.9677L392.639 90.9344L354.603 101.568Z" fill="#282828"/>
<path d="M355.136 103.64L355.877 106.27L393.911 95.6305L393.17 93.0005L355.136 103.64Z" fill="#282828"/>
</g>
<g opacity="0.76">
<path d="M194.091 125.16L196.757 129.008L201.229 127.801L198.461 131.54L200.927 135.39L196.567 133.938L193.606 137.442L193.706 132.872L189.367 131.106L193.83 129.837L194.091 125.16Z" fill="#EAE9DA"/>
<path d="M210.712 120.503L213.374 124.37L217.869 123.147L215.078 126.902L217.545 130.752L213.189 129.281L210.223 132.803L210.327 128.215L206.004 126.472L210.452 125.18L210.712 120.503Z" fill="#EAE9DA"/>
<path d="M227.327 115.864L230.012 119.717L234.484 118.509L231.697 122.245L234.183 126.098L229.808 124.623L226.842 128.146L226.943 123.577L222.622 121.815L227.067 120.542L227.327 115.864Z" fill="#EAE9DA"/>
<path d="M243.968 111.211L246.634 115.059L251.105 113.852L248.315 117.607L250.804 121.441L246.425 119.985L243.463 123.489L243.583 118.923L239.24 117.176L243.707 115.888L243.968 111.211Z" fill="#EAE9DA"/>
<path d="M260.589 106.554L263.251 110.421L267.727 109.195L264.955 112.953L267.421 116.803L263.065 115.332L260.1 118.855L260.2 114.286L255.861 112.519L260.328 111.231L260.589 106.554Z" fill="#EAE9DA"/>
</g>
<path d="M228.119 157.193L232.404 157.479C232.518 159.169 232.124 160.702 231.227 162.06C230.307 163.432 228.804 164.415 226.681 165.001C223.797 165.818 221.441 165.645 219.642 164.545C217.823 163.441 216.625 161.801 216.005 159.636C215.389 157.452 215.56 155.419 216.484 153.51C217.426 151.605 218.98 150.354 221.149 149.738C222.916 149.242 224.481 149.284 225.827 149.841L225.543 148.833L229.162 147.819L230.717 153.301L226.953 154.347C226.557 153.715 226.086 153.267 225.52 152.999C224.95 152.751 224.363 152.698 223.774 152.863C222.133 153.323 221.721 154.952 222.519 157.747C223.313 160.561 224.542 161.73 226.244 161.262C227.716 160.85 228.334 159.498 228.1 157.189L228.119 157.193Z" fill="#D15E52"/>
<path d="M244.194 159.84L235.61 162.245L234.587 158.652L235.976 158.263L233.776 150.432L232.387 150.821L231.364 147.228L239.948 144.823L240.971 148.416L239.601 148.809L241.802 156.64L243.171 156.247L244.194 159.84Z" fill="#D15E52"/>
<path d="M251.895 157.682L245.71 159.416L244.687 155.823L246.011 155.461L243.811 147.63L242.487 147.992L241.465 144.399L248.595 142.41L256.28 148.731L255.087 144.47L253.867 144.812L252.844 141.219L258.923 139.525L259.945 143.118L258.641 143.483L261.923 155.117L256.958 156.509L248.049 149.198L249.542 154.49L250.869 154.109L251.892 157.702L251.895 157.682Z" fill="#D15E52"/>
<path d="M279.283 150.026L264.915 154.043L263.893 150.45L265.052 150.116L262.851 142.285L261.654 142.611L260.631 139.019L275.018 135.005L276.365 139.813L272.41 140.921L272.066 139.703L268.658 140.658L269.31 142.968L272.297 142.131L273.162 145.197L270.194 146.038L270.897 148.496L274.324 147.545L273.98 146.327L277.936 145.219L279.283 150.026Z" fill="#D15E52"/>
<path d="M287.34 147.778L281.514 149.401L280.491 145.808L281.65 145.474L279.45 137.643L278.253 137.97L277.23 134.377L286.319 131.83L290.18 137.02L290.817 130.588L299.841 128.068L300.863 131.661L299.685 131.991L301.885 139.822L303.106 139.481L304.128 143.073L296.279 145.282L295.256 141.689L296.458 141.343L294.088 132.943L292.917 146.206L290.664 146.846L282.808 136.222L285.139 144.515L286.336 144.189L287.359 147.781L287.34 147.778Z" fill="#D15E52"/>
<path d="M311.234 141.1L305.259 142.774L304.237 139.181L305.373 138.863L305.992 130.242L304.771 130.584L303.749 126.991L314.562 123.961L315.585 127.553L314.365 127.895L319.445 134.929L320.559 134.626L321.581 138.219L313.713 140.423L312.792 137.128L314.116 136.766L313.013 135.045L309.161 136.133L309.04 138.216L310.28 137.878L311.2 141.173L311.234 141.1ZM309.501 129.485L309.263 134.047L311.956 133.293L309.501 129.485Z" fill="#D15E52"/>
<path d="M236.604 188.715L228.146 191.085L227.124 187.492L228.428 187.126L226.228 179.295L224.503 179.779L225.273 182.509L222.454 183.299L220.665 176.957L235.598 172.79L237.387 179.132L234.568 179.922L233.798 177.192L232.073 177.675L234.273 185.507L235.6 185.126L236.623 188.719L236.604 188.715Z" fill="#D15E52"/>
<path d="M250.023 184.973L241.439 187.379L240.416 183.786L241.805 183.397L239.605 175.565L238.216 175.954L237.194 172.362L245.777 169.956L246.8 173.549L245.43 173.942L247.631 181.773L249 181.38L250.023 184.973Z" fill="#D15E52"/>
<path d="M261.887 174.497L266.172 174.783C266.285 176.473 265.911 178.01 264.994 179.364C264.074 180.736 262.571 181.719 260.448 182.305C257.564 183.123 255.209 182.949 253.409 181.849C251.591 180.745 250.392 179.105 249.772 176.94C249.156 174.756 249.327 172.723 250.247 170.833C251.19 168.929 252.744 167.678 254.913 167.061C256.68 166.566 258.245 166.608 259.61 167.167L259.326 166.159L262.944 165.146L264.5 170.628L260.736 171.674C260.34 171.042 259.869 170.594 259.303 170.326C258.737 170.059 258.146 170.025 257.557 170.19C255.916 170.65 255.504 172.279 256.302 175.074C257.096 177.888 258.324 179.057 260.027 178.589C261.499 178.177 262.117 176.825 261.883 174.516L261.887 174.497Z" fill="#D15E52"/>
<path d="M277.77 177.207L269.608 179.494L268.585 175.901L269.74 175.587L267.54 167.755L266.362 168.085L265.339 164.493L273.521 162.209L274.544 165.802L273.347 166.128L275.547 173.959L276.744 173.633L277.767 177.226L277.77 177.207ZM287.131 174.593L279.347 176.774L278.324 173.181L279.039 172.981L274.526 169.632L277.363 165.012L276.143 165.354L275.12 161.761L282.526 159.686L283.548 163.279L282.37 163.609L280.104 167.326L285.347 171.231L286.104 171.019L287.127 174.612L287.131 174.593Z" fill="#D15E52"/>
<path d="M302.885 170.187L288.518 174.204L287.495 170.611L288.654 170.277L286.454 162.446L285.257 162.772L284.234 159.18L298.62 155.166L299.967 159.974L296.012 161.082L295.669 159.864L292.241 160.815L292.893 163.125L295.88 162.288L296.745 165.354L293.758 166.191L294.461 168.65L297.888 167.699L297.544 166.481L301.5 165.372L302.847 170.18L302.885 170.187Z" fill="#D15E52"/>
<path d="M316.706 166.323L308.249 168.693L307.226 165.1L308.531 164.735L306.33 156.904L304.605 157.387L305.375 160.117L302.556 160.907L300.767 154.565L315.681 150.395L317.471 156.737L314.651 157.527L313.881 154.797L312.156 155.28L314.356 163.112L315.684 162.731L316.706 166.323Z" fill="#D15E52"/>
<path d="M201.985 156.032L202.969 159.518L197.246 161.122L196.18 157.342L168.077 165.198L169.143 168.978L163.421 170.582L162.425 167.054C161.061 168.044 160.362 169.816 160.848 171.538L169.81 203.371C170.296 205.093 171.809 206.237 173.493 206.381L172.288 202.078L178.01 200.475L179.302 205.053L207.405 197.196L206.114 192.618L211.836 191.015L213.049 195.279C214.336 194.275 214.985 192.552 214.511 190.872L205.553 159.021C205.079 157.341 203.643 156.211 202.008 156.017L201.985 156.032ZM177.063 197.115L171.34 198.718L169.649 192.693L175.372 191.09L177.063 197.115ZM174.424 187.73L168.701 189.333L167.011 183.308L172.733 181.704L174.424 187.73ZM171.785 178.344L166.063 179.948L164.372 173.923L170.095 172.319L171.785 178.344ZM195.58 180.288L186.075 189.985C185.307 190.771 183.958 190.433 183.666 189.364L179.981 176.302C179.688 175.233 180.654 174.246 181.714 174.529L194.885 177.89C195.949 178.154 196.328 179.498 195.561 180.284L195.58 180.288ZM210.908 187.658L205.185 189.262L203.494 183.237L209.217 181.633L210.908 187.658ZM208.269 178.273L202.547 179.877L200.856 173.851L206.578 172.248L208.269 178.273ZM205.63 168.888L199.908 170.491L198.217 164.466L203.94 162.863L205.63 168.888Z" fill="#EAE9DA"/>
<g opacity="0.76">
<path d="M225.136 221.613L223.851 219.599L220.465 220.538L220.404 222.93L218.281 223.516L218.945 213.314L221.343 212.642L227.244 221.005L225.121 221.59L225.136 221.613ZM222.906 218.087C221.722 216.271 221.065 215.231 220.91 215.002C220.759 214.755 220.634 214.572 220.561 214.439C220.569 215.016 220.55 216.463 220.485 218.774L222.903 218.106L222.906 218.087Z" fill="#EAE9DA"/>
<path d="M234.79 213.832C235.217 215.344 235.108 216.634 234.465 217.703C233.826 218.752 232.686 219.506 231.045 219.966L228.417 220.694L225.81 211.453L228.714 210.64C230.228 210.216 231.51 210.283 232.576 210.845C233.643 211.407 234.368 212.4 234.771 213.828L234.79 213.832ZM232.759 214.455C232.206 212.462 231.034 211.721 229.286 212.22L228.235 212.514L229.925 218.54L230.767 218.304C232.66 217.773 233.324 216.49 232.756 214.474L232.759 214.455Z" fill="#EAE9DA"/>
<path d="M241.963 216.916L237.683 210.275L237.626 210.264C238.117 211.749 238.428 212.722 238.574 213.207L239.779 217.51L238.031 218.009L235.424 208.769L238.094 208.03L242.269 214.492L242.307 214.5L242.638 206.757L245.308 206.018L247.915 215.258L246.087 215.761L244.854 211.393C244.795 211.183 244.74 210.954 244.653 210.679C244.585 210.408 244.407 209.678 244.133 208.513L244.075 208.502L243.727 216.44L241.917 216.947L241.963 216.916Z" fill="#EAE9DA"/>
<path d="M250.275 214.578L247.668 205.338L249.626 204.78L252.233 214.02L250.275 214.578Z" fill="#EAE9DA"/>
<path d="M258.142 212.373L256.184 212.931L254.043 205.31L251.518 206.017L251.056 204.379L258.06 202.426L258.522 204.064L255.997 204.771L258.138 212.392L258.142 212.373Z" fill="#EAE9DA"/>
<path d="M272.558 203.34C273 204.875 272.934 206.153 272.417 207.186C271.881 208.216 270.906 208.942 269.498 209.328C268.067 209.729 266.874 209.619 265.876 209.01C264.878 208.402 264.167 207.332 263.729 205.778C263.287 204.243 263.353 202.964 263.889 201.935C264.425 200.906 265.397 200.198 266.827 199.797C268.258 199.397 269.451 199.506 270.43 200.111C271.409 200.716 272.119 201.786 272.561 203.321L272.558 203.34ZM265.803 205.242C266.102 206.273 266.5 207.005 267.04 207.406C267.576 207.827 268.236 207.914 269.013 207.705C270.589 207.273 271.069 206.014 270.492 203.937C269.896 201.856 268.839 201.037 267.263 201.47C266.483 201.698 265.965 202.115 265.724 202.744C265.481 203.393 265.503 204.211 265.783 205.238L265.803 205.242Z" fill="#EAE9DA"/>
<path d="M283.997 205.138L281.496 205.83L275.497 199.951L275.439 199.94C275.859 201.173 276.15 202.043 276.304 202.589L277.54 206.938L275.792 207.437L273.186 198.197L275.668 197.501L281.643 203.296L281.682 203.303C281.277 202.093 281.021 201.249 280.875 200.765L279.642 196.397L281.41 195.901L284.016 205.141L283.997 205.138Z" fill="#EAE9DA"/>
<path d="M291.674 202.996L286.33 204.493L283.724 195.253L289.067 193.756L289.514 195.371L286.148 196.314L286.713 198.349L289.849 197.461L290.3 199.057L287.163 199.945L287.839 202.339L291.205 201.396L291.651 203.011L291.674 202.996Z" fill="#EAE9DA"/>
</g>
<mask id="mask2_330_2037" style="mask-type:luminance" maskUnits="userSpaceOnUse" x="43" y="-14" width="330" height="307">
<path d="M372.176 79.9534L361.457 67.0315C358.688 69.3209 354.583 68.9305 352.306 66.1696C350.009 63.405 350.397 59.3081 353.162 57.0378L349.959 53.1856C347.191 55.4751 343.085 55.0846 340.808 52.3237C338.512 49.5591 338.9 45.4622 341.664 43.1919L338.462 39.3397C335.693 41.6292 331.588 41.2387 329.311 38.4778C327.033 35.7169 327.402 31.6163 330.167 29.346L326.964 25.4939C324.196 27.7833 320.09 27.3929 317.813 24.6319C315.517 21.8673 315.905 17.7704 318.669 15.5002L315.467 11.648C312.698 13.9374 308.593 13.547 306.316 10.7861C304.019 8.02145 304.407 3.92457 307.172 1.65429L296.921 -10.701C287.386 -2.81724 273.251 -4.15875 265.362 -13.6772L46.6183 166.982C54.5259 176.505 53.1932 190.61 43.6617 198.475L53.9123 210.83C56.6807 208.54 60.7863 208.931 63.0635 211.692C65.3599 214.456 64.972 218.553 62.2073 220.824L65.4098 224.676C68.1782 222.386 72.2838 222.777 74.561 225.538C76.8574 228.302 76.4695 232.399 73.7048 234.669L76.9073 238.522C79.6757 236.232 83.7813 236.623 86.0585 239.384C88.3549 242.148 87.967 246.245 85.2023 248.515L88.4048 252.368C91.1732 250.078 95.2788 250.469 97.556 253.229C99.8524 255.994 99.4645 260.091 96.6998 262.361L99.9023 266.213C102.671 263.924 106.776 264.314 109.054 267.075C111.35 269.84 110.962 273.937 108.197 276.207L118.917 289.129C128.452 281.245 142.587 282.587 150.476 292.105L369.246 111.411C361.358 101.893 362.671 87.7833 372.203 79.9188L372.176 79.9534Z" fill="white"/>
</mask>
<g mask="url(#mask2_330_2037)">
<path d="M402.972 113.154L165.23 309.516C150.657 321.558 128.836 319.496 116.758 304.943L24.5677 193.818C12.4893 179.265 14.537 157.49 29.1102 145.448L266.871 -50.9094C281.444 -62.9513 289.994 -49.9291 302.073 -35.3759L394.263 75.7492C406.341 90.3025 417.565 101.116 402.972 113.154Z" fill="#1B262B"/>
<path d="M294.69 -65.4193L217.39 -1.5686L353.798 162.847L431.098 98.9961L294.69 -65.4193Z" fill="#EAE9DA"/>
<path style="mix-blend-mode:multiply" d="M226.944 13.3704L222.007 17.4489L339.283 158.804L344.22 154.725L226.944 13.3704Z" fill="url(#paint1_linear_330_2037)"/>
<g style="mix-blend-mode:multiply">
<path d="M224.191 18.8062C224.526 18.5129 224.583 18.0074 224.289 17.6729L220.037 12.5467C219.743 12.2122 219.236 12.1548 218.905 12.4289C218.57 12.7221 218.513 13.2276 218.807 13.5621L223.059 18.6883C223.35 19.042 223.86 19.0803 224.191 18.8062Z" fill="#4E5256"/>
<path d="M232.65 28.9902C232.985 28.697 233.042 28.1915 232.748 27.857L228.496 22.7308C228.205 22.3771 227.695 22.3388 227.364 22.6129C227.032 22.8871 226.971 23.4117 227.266 23.7462L231.518 28.8724C231.808 29.2261 232.318 29.2644 232.65 28.9902Z" fill="#4E5256"/>
<path d="M241.107 39.1737C241.442 38.8805 241.499 38.375 241.205 38.0405L236.953 32.9143C236.662 32.5606 236.152 32.5223 235.821 32.7964C235.486 33.0897 235.429 33.5952 235.723 33.9297L239.975 39.0558C240.265 39.4095 240.775 39.4478 241.107 39.1737Z" fill="#4E5256"/>
<path d="M283.366 90.1275C283.701 89.8342 283.759 89.3287 283.464 88.9942L279.212 83.868C278.922 83.5143 278.412 83.476 278.08 83.7501C277.745 84.0434 277.688 84.5489 277.982 84.8834L282.234 90.0096C282.525 90.3633 283.035 90.4016 283.366 90.1275Z" fill="#4E5256"/>
<path d="M291.826 100.311C292.16 100.018 292.218 99.5125 291.923 99.178L287.671 94.0519C287.381 93.6982 286.871 93.6599 286.539 93.934C286.204 94.2273 286.147 94.7327 286.441 95.0673L290.693 100.193C290.984 100.547 291.494 100.585 291.826 100.311Z" fill="#4E5256"/>
<path d="M300.279 110.514C300.614 110.221 300.671 109.715 300.377 109.381L296.125 104.255C295.834 103.901 295.324 103.863 294.993 104.137C294.658 104.43 294.6 104.936 294.895 105.27L299.147 110.396C299.437 110.75 299.947 110.788 300.279 110.514Z" fill="#4E5256"/>
<path d="M308.737 120.698C309.072 120.405 309.129 119.899 308.835 119.565L304.583 114.439C304.292 114.085 303.782 114.047 303.451 114.321C303.116 114.614 303.058 115.119 303.353 115.454L307.605 120.58C307.899 120.915 308.405 120.972 308.737 120.698Z" fill="#4E5256"/>
<path d="M317.189 130.901C317.524 130.607 317.581 130.102 317.287 129.767L313.035 124.641C312.741 124.307 312.235 124.249 311.903 124.523C311.568 124.817 311.511 125.322 311.805 125.657L316.057 130.783C316.351 131.117 316.858 131.175 317.189 130.901Z" fill="#4E5256"/>
<path d="M325.63 141.081C325.965 140.788 326.022 140.282 325.728 139.948L321.476 134.822C321.182 134.487 320.675 134.43 320.344 134.704C320.012 134.978 319.952 135.503 320.246 135.837L324.498 140.963C324.788 141.317 325.298 141.355 325.63 141.081Z" fill="#4E5256"/>
<path d="M334.086 151.265C334.421 150.972 334.478 150.466 334.184 150.132L329.932 145.005C329.642 144.652 329.131 144.613 328.8 144.888C328.465 145.181 328.408 145.686 328.702 146.021L332.954 151.147C333.245 151.501 333.755 151.539 334.086 151.265Z" fill="#4E5256"/>
</g>
<g style="mix-blend-mode:screen">
<path d="M225.444 17.7752C225.779 17.4819 225.836 16.9764 225.542 16.6419L221.29 11.5157C220.999 11.162 220.489 11.1237 220.158 11.3979C219.823 11.6911 219.765 12.1966 220.06 12.5311L224.312 17.6573C224.602 18.011 225.112 18.0493 225.444 17.7752Z" fill="white"/>
<path d="M233.881 27.9553C234.216 27.6621 234.273 27.1566 233.979 26.8221L229.727 21.6959C229.437 21.3422 228.926 21.3039 228.595 21.578C228.26 21.8713 228.203 22.3768 228.497 22.7113L232.749 27.8375C233.04 28.1912 233.55 28.2294 233.881 27.9553Z" fill="white"/>
<path d="M242.336 38.1583C242.671 37.8651 242.728 37.3596 242.434 37.0251L238.182 31.8989C237.892 31.5452 237.381 31.5069 237.05 31.781C236.715 32.0743 236.658 32.5798 236.952 32.9143L241.204 38.0405C241.495 38.3942 242.005 38.4325 242.336 38.1583Z" fill="white"/>
<path d="M250.793 48.3418C251.128 48.0485 251.185 47.5431 250.891 47.2085L246.639 42.0824C246.349 41.7287 245.838 41.6904 245.507 41.9645C245.176 42.2386 245.115 42.7633 245.409 43.0978L249.661 48.2239C249.952 48.5776 250.462 48.6159 250.793 48.3418Z" fill="white"/>
<path d="M259.251 58.5259C259.586 58.2326 259.643 57.7271 259.349 57.3926L255.097 52.2665C254.807 51.9128 254.296 51.8745 253.965 52.1486C253.63 52.4419 253.573 52.9473 253.867 53.2819L258.119 58.408C258.413 58.7426 258.92 58.8 259.251 58.5259Z" fill="white"/>
<path d="M267.704 68.7287C268.039 68.4354 268.096 67.9299 267.802 67.5954L263.55 62.4692C263.256 62.1347 262.749 62.0772 262.418 62.3514C262.083 62.6446 262.026 63.1501 262.32 63.4846L266.572 68.6108C266.862 68.9645 267.373 69.0028 267.704 68.7287Z" fill="white"/>
<path d="M276.162 78.9127C276.497 78.6195 276.555 78.114 276.26 77.7795L272.008 72.6533C271.718 72.2996 271.208 72.2613 270.876 72.5354C270.541 72.8287 270.484 73.3342 270.778 73.6687L275.03 78.7949C275.321 79.1485 275.831 79.1869 276.162 78.9127Z" fill="white"/>
<path d="M284.619 89.0962C284.954 88.8029 285.012 88.2975 284.717 87.9629L280.465 82.8368C280.175 82.4831 279.665 82.4448 279.333 82.7189C279.002 82.993 278.941 83.5176 279.235 83.8522L283.487 88.9783C283.778 89.332 284.288 89.3703 284.619 89.0962Z" fill="white"/>
<path d="M293.055 99.2958C293.39 99.0025 293.447 98.497 293.153 98.1625L288.901 93.0364C288.61 92.6827 288.1 92.6444 287.769 92.9185C287.434 93.2118 287.377 93.7172 287.671 94.0518L291.923 99.1779C292.213 99.5316 292.724 99.5699 293.055 99.2958Z" fill="white"/>
<path d="M301.512 109.479C301.843 109.205 301.904 108.681 301.61 108.346L297.358 103.22C297.067 102.866 296.557 102.828 296.226 103.102C295.895 103.376 295.834 103.901 296.128 104.235L300.38 109.362C300.67 109.715 301.181 109.754 301.512 109.479Z" fill="white"/>
<path d="M309.967 119.683C310.302 119.389 310.359 118.884 310.065 118.549L305.813 113.423C305.523 113.07 305.012 113.031 304.681 113.305C304.346 113.599 304.289 114.104 304.583 114.439L308.835 119.565C309.126 119.918 309.636 119.957 309.967 119.683Z" fill="white"/>
<path d="M318.423 129.866C318.758 129.573 318.815 129.067 318.521 128.733L314.269 123.607C313.979 123.253 313.468 123.215 313.137 123.489C312.806 123.763 312.745 124.288 313.039 124.622L317.291 129.748C317.585 130.083 318.092 130.14 318.423 129.866Z" fill="white"/>
<path d="M326.882 140.05C327.217 139.757 327.274 139.251 326.98 138.917L322.728 133.791C322.433 133.456 321.927 133.399 321.596 133.673C321.261 133.966 321.203 134.472 321.498 134.806L325.75 139.932C326.04 140.286 326.55 140.324 326.882 140.05Z" fill="white"/>
<path d="M335.334 150.253C335.669 149.96 335.726 149.454 335.432 149.12L331.18 143.993C330.89 143.64 330.379 143.601 330.048 143.876C329.713 144.169 329.656 144.674 329.95 145.009L334.202 150.135C334.493 150.489 335.003 150.527 335.334 150.253Z" fill="white"/>
</g>
</g>
<path d="M146.538 261.793C140.567 260.647 135.146 257.462 131.3 252.811L80.5157 191.601C76.07 186.239 73.9703 179.441 74.6334 172.457C75.2965 165.473 78.6146 159.177 83.9839 154.745L203.236 56.2399C209.267 51.2595 217.18 49.2418 224.936 50.7301C230.908 51.8758 236.329 55.0611 240.174 59.712L290.959 120.922C295.404 126.284 297.504 133.082 296.841 140.066C296.178 147.05 292.86 153.346 287.491 157.778L168.239 256.283C162.207 261.264 154.295 263.281 146.538 261.793ZM224.602 52.4735C217.363 51.0847 209.998 52.949 204.366 57.609L85.1147 156.114C80.0996 160.257 77.0041 166.118 76.3909 172.635C75.7776 179.152 77.7277 185.485 81.883 190.493L132.668 251.703C136.254 256.046 141.316 259.023 146.884 260.092C154.123 261.48 161.488 259.616 167.12 254.956L286.372 156.451C291.387 152.308 294.482 146.447 295.095 139.93C295.709 133.413 293.759 127.08 289.603 122.072L238.819 60.8622C235.233 56.5193 230.17 53.5418 224.602 52.4735Z" fill="#B6C1C1"/>
<g opacity="0.84">
<path d="M308.282 106.239L308.968 107.066L344.359 77.8324L343.673 77.0056L308.282 106.239Z" fill="#282828"/>
<path d="M306.825 104.462L307.511 105.289L342.907 76.0618L342.221 75.2349L306.825 104.462Z" fill="#282828"/>
<path d="M278.976 70.9264L279.662 71.7532L315.053 42.5199L314.367 41.6931L278.976 70.9264Z" fill="#282828"/>
<path d="M277.498 69.1557L278.184 69.9825L313.575 40.7492L312.889 39.9225L277.498 69.1557Z" fill="#282828"/>
<path d="M284.511 5.70743L283.825 4.88062L248.434 34.1139L249.12 34.9407L284.511 5.70743Z" fill="#282828"/>
<path d="M285.988 7.49576L285.302 6.66895L249.911 35.9022L250.597 36.7291L285.988 7.49576Z" fill="#282828"/>
<path d="M283.163 76.0053L283.849 76.832L314.268 51.6968L313.581 50.8701L283.163 76.0053Z" fill="#282828"/>
<path d="M281.724 74.2395L282.41 75.0664L312.838 49.9418L312.152 49.1148L281.724 74.2395Z" fill="#282828"/>
<path d="M301.854 98.4937L302.54 99.3207L337.936 70.0935L337.25 69.2666L301.854 98.4937Z" fill="#282828"/>
<path d="M303.219 100.143L304.965 102.247L340.356 73.0141L338.61 70.9095L303.219 100.143Z" fill="#282828"/>
<path d="M290.046 12.3742L289.36 11.5474L253.969 40.7807L254.655 41.6075L290.046 12.3742Z" fill="#282828"/>
<path d="M288.703 10.7277L286.957 8.62305L251.566 37.8564L253.312 39.961L288.703 10.7277Z" fill="#282828"/>
<path d="M296.094 91.5725L296.78 92.3993L327.204 67.2693L326.518 66.4425L296.094 91.5725Z" fill="#282828"/>
<path d="M297.474 93.2348L299.22 95.3394L329.643 70.2094L327.897 68.1048L297.474 93.2348Z" fill="#282828"/>
<path d="M291.192 85.6396L291.878 86.4666L322.306 61.3419L321.62 60.515L291.192 85.6396Z" fill="#282828"/>
<path d="M292.536 87.3032L294.282 89.4078L324.706 64.2779L322.959 62.1733L292.536 87.3032Z" fill="#282828"/>
<path d="M285.864 79.2113L286.55 80.0382L316.978 54.9136L316.292 54.0866L285.864 79.2113Z" fill="#282828"/>
<path d="M287.208 80.8746L288.954 82.9792L319.377 57.8493L317.631 55.7447L287.208 80.8746Z" fill="#282828"/>
<path d="M269.96 60.0611L270.646 60.8879L301.069 35.758L300.383 34.9312L269.96 60.0611Z" fill="#282828"/>
<path d="M268.506 58.3004L269.191 59.1273L299.619 34.0027L298.933 33.1757L268.506 58.3004Z" fill="#282828"/>
<path d="M272.639 63.2912L273.325 64.1182L303.753 38.9935L303.067 38.1666L272.639 63.2912Z" fill="#282828"/>
<path d="M273.974 64.932L275.72 67.0366L306.143 41.9067L304.397 39.8021L273.974 64.932Z" fill="#282828"/>
<path d="M261.882 50.289L262.567 51.116L292.995 25.9913L292.309 25.1644L261.882 50.289Z" fill="#282828"/>
<path d="M260.409 48.5385L261.095 49.3654L291.518 24.2354L290.832 23.4086L260.409 48.5385Z" fill="#282828"/>
<path d="M257.578 45.1765L258.264 46.0032L288.683 20.8679L287.996 20.0413L257.578 45.1765Z" fill="#282828"/>
<path d="M256.133 43.4032L256.819 44.23L287.243 19.1L286.557 18.2732L256.133 43.4032Z" fill="#282828"/>
<path d="M264.543 53.5294L265.229 54.3562L295.652 29.2263L294.966 28.3995L264.543 53.5294Z" fill="#282828"/>
<path d="M265.907 55.1688L267.653 57.2734L298.077 32.1435L296.331 30.0389L265.907 55.1688Z" fill="#282828"/>
</g>
<g opacity="0.76">
<path d="M127.507 140.074L131.514 142.531L135.102 139.605L134.089 144.158L137.905 146.677L133.323 147.109L132.041 151.511L130.281 147.3L125.616 147.438L129.172 144.466L127.507 140.074Z" fill="#EAE9DA"/>
<path d="M140.801 129.098L144.812 131.536L148.396 128.628L147.383 133.181L151.203 135.682L146.621 136.114L145.335 140.535L143.578 136.305L138.91 136.462L142.466 133.489L140.801 129.098Z" fill="#EAE9DA"/>
<path d="M154.095 118.121L158.106 120.56L161.694 117.633L160.681 122.186L164.497 124.706L159.915 125.138L158.633 129.54L156.873 125.328L152.208 125.466L155.764 122.494L154.095 118.121Z" fill="#EAE9DA"/>
<path d="M167.392 107.126L171.4 109.583L174.987 106.656L173.975 111.209L177.795 113.71L173.213 114.142L171.946 118.567L170.17 114.333L165.502 114.49L169.058 111.517L167.392 107.126Z" fill="#EAE9DA"/>
<path d="M180.687 96.1496L184.698 98.5878L188.285 95.6609L187.269 100.233L191.108 102.738L186.507 103.166L185.24 107.591L183.484 103.36L178.796 103.514L182.352 100.541L180.687 96.1496Z" fill="#EAE9DA"/>
</g>
<path d="M171.63 155.492L175.658 154C176.464 155.506 176.723 157.065 176.456 158.662C176.186 160.279 175.198 161.798 173.499 163.18C171.184 165.08 168.978 165.888 166.882 165.605C164.767 165.319 163.007 164.325 161.567 162.599C160.13 160.853 159.443 158.934 159.533 156.806C159.619 154.697 160.52 152.904 162.268 151.471C163.685 150.313 165.118 149.694 166.597 149.66L165.935 148.857L168.822 146.471L172.458 150.864L169.453 153.346C168.837 152.93 168.221 152.713 167.588 152.69C166.952 152.687 166.417 152.883 165.945 153.269C164.642 154.35 164.921 156.012 166.779 158.256C168.638 160.5 170.261 161.069 171.609 159.957C172.793 158.973 172.8 157.484 171.653 155.476L171.63 155.492Z" fill="#D15E52"/>
<path d="M187.38 151.423L180.518 157.098L178.125 154.215L179.237 153.297L174.029 147.033L172.917 147.952L170.524 145.07L177.385 139.394L179.779 142.277L178.69 143.18L183.898 149.443L184.987 148.54L187.38 151.423Z" fill="#D15E52"/>
<path d="M193.534 146.326L188.591 150.404L186.198 147.521L187.261 146.652L182.052 140.389L180.99 141.258L178.596 138.375L184.297 133.669L193.896 136.345L191.066 132.942L190.095 133.749L187.701 130.866L192.553 126.851L194.946 129.733L193.903 130.606L201.613 139.911L197.641 143.182L186.528 140.096L190.036 144.325L191.103 143.437L193.496 146.319L193.534 146.326Z" fill="#D15E52"/>
<path d="M215.442 128.223L203.946 137.717L201.553 134.835L202.497 134.062L197.289 127.799L196.341 128.591L193.948 125.708L205.448 116.195L208.631 120.044L205.463 122.654L204.653 121.684L201.911 123.939L203.449 125.783L205.836 123.818L207.854 126.271L205.467 128.236L207.101 130.198L209.843 127.943L209.033 126.974L212.202 124.364L215.385 128.212L215.442 128.223Z" fill="#D15E52"/>
<path d="M221.896 122.907L217.235 126.76L214.842 123.877L215.767 123.101L210.559 116.838L209.611 117.63L207.217 114.747L214.479 108.751L220.099 111.935L218.074 105.786L225.29 99.8212L227.683 102.704L226.739 103.476L231.947 109.739L232.918 108.932L235.312 111.815L229.021 117.004L226.628 114.121L227.595 113.333L222.015 106.622L226.344 119.231L224.546 120.714L213.06 114.18L218.555 120.816L219.503 120.024L221.896 122.907Z" fill="#D15E52"/>
<path d="M240.988 107.124L236.213 111.054L233.82 108.171L234.741 107.415L231.803 99.2829L230.832 100.09L228.438 97.2072L237.098 90.0493L239.491 92.9318L238.52 93.7387L246.025 98.0985L246.9 97.3727L249.294 100.255L243.003 105.444L240.822 102.801L241.885 101.932L240.173 100.79L237.096 103.338L237.818 105.284L238.812 104.461L240.992 107.104L240.988 107.124ZM234.688 97.2145L236.318 101.48L238.47 99.7079L234.688 97.2145Z" fill="#D15E52"/>
<path d="M192.175 180.906L185.412 186.481L183.019 183.598L184.058 182.745L178.85 176.482L177.456 177.625L179.265 179.819L176.995 181.688L172.79 176.63L184.735 166.766L188.941 171.823L186.671 173.692L184.863 171.498L183.488 172.644L188.696 178.908L189.763 178.02L192.156 180.902L192.175 180.906Z" fill="#D15E52"/>
<path d="M202.936 172.026L196.074 177.701L193.681 174.819L194.793 173.9L189.584 167.637L188.472 168.556L186.079 165.673L192.941 159.998L195.334 162.88L194.245 163.784L199.454 170.047L200.543 169.143L202.936 172.026Z" fill="#D15E52"/>
<path d="M209.516 157.656L213.545 156.164C214.351 157.67 214.609 159.229 214.342 160.826C214.072 162.443 213.084 163.962 211.382 165.363C209.066 167.263 206.861 168.071 204.765 167.788C202.65 167.502 200.89 166.509 199.449 164.782C198.013 163.037 197.326 161.117 197.416 158.989C197.502 156.88 198.403 155.087 200.151 153.654C201.568 152.496 203 151.877 204.48 151.843L203.818 151.041L206.704 148.655L210.341 153.047L207.336 155.529C206.719 155.113 206.104 154.896 205.471 154.874C204.835 154.871 204.3 155.066 203.827 155.452C202.525 156.533 202.803 158.195 204.662 160.439C206.521 162.683 208.144 163.252 209.492 162.14C210.676 161.156 210.683 159.667 209.535 157.66L209.516 157.656Z" fill="#D15E52"/>
<path d="M225.125 153.699L218.598 159.081L216.205 156.198L217.126 155.441L211.918 149.178L210.973 149.95L208.58 147.068L215.134 141.651L217.527 144.534L216.579 145.325L221.787 151.588L222.735 150.797L225.128 153.679L225.125 153.699ZM232.623 147.51L226.381 152.649L223.988 149.766L224.578 149.283L219.105 148.035L219.819 142.65L218.848 143.456L216.455 140.574L222.392 135.675L224.785 138.557L223.841 139.329L223.27 143.649L229.643 145.091L230.237 144.589L232.63 147.471L232.623 147.51Z" fill="#D15E52"/>
<path d="M245.213 137.094L233.717 146.587L231.323 143.705L232.268 142.933L227.059 136.67L226.111 137.461L223.718 134.578L235.218 125.065L238.401 128.914L235.233 131.524L234.424 130.554L231.682 132.809L233.219 134.653L235.607 132.688L237.625 135.141L235.237 137.106L236.868 139.088L239.609 136.833L238.8 135.863L241.968 133.253L245.152 137.102L245.213 137.094Z" fill="#D15E52"/>
<path d="M256.259 127.97L249.496 133.545L247.103 130.663L248.142 129.809L242.934 123.546L241.54 124.689L243.349 126.883L241.079 128.752L236.873 123.695L248.819 113.83L253.025 118.888L250.755 120.756L248.947 118.562L247.572 119.709L252.78 125.972L253.847 125.084L256.24 127.966L256.259 127.97Z" fill="#D15E52"/>
<path d="M147.272 165.1L149.584 167.887L145.018 171.659L142.512 168.636L120.038 187.207L122.543 190.23L117.977 194.002L115.631 191.188C114.792 192.656 114.865 194.557 116.015 195.93L137.163 221.42C138.313 222.792 140.161 223.226 141.759 222.679L138.897 219.23L143.463 215.458L146.503 219.12L168.978 200.549L165.938 196.887L170.503 193.115L173.331 196.538C174.105 195.097 173.982 193.246 172.863 191.919L151.715 166.429C150.6 165.083 148.817 164.622 147.249 165.115L147.272 165.1ZM141.213 212.762L136.647 216.534L132.655 211.715L137.22 207.943L141.213 212.762ZM134.99 205.251L130.424 209.023L126.431 204.205L130.997 200.433L134.99 205.251ZM128.766 197.74L124.201 201.513L120.208 196.694L124.774 192.922L128.766 197.74ZM151.295 189.887L146.566 202.606C146.187 203.645 144.809 203.877 144.115 203.029L135.433 192.564C134.721 191.712 135.208 190.415 136.3 190.227L149.711 187.974C150.803 187.786 151.693 188.851 151.295 189.887ZM168.292 190.426L163.726 194.198L159.734 189.38L164.299 185.608L168.292 190.426ZM162.069 182.916L157.503 186.688L153.51 181.87L158.076 178.098L162.069 182.916ZM155.845 175.405L151.28 179.177L147.287 174.359L151.853 170.587L155.845 175.405Z" fill="#EAE9DA"/>
<g opacity="0.76">
<path d="M195.093 215.611L193.096 214.294L190.4 216.518L191.33 218.722L189.628 220.124L186.075 210.524L187.991 208.945L196.776 214.205L195.074 215.607L195.093 215.611ZM191.638 213.279C189.815 212.095 188.79 211.422 188.562 211.259C188.334 211.096 188.138 210.979 188.018 210.877C188.256 211.399 188.835 212.741 189.719 214.878L191.657 213.283L191.638 213.279Z" fill="#EAE9DA"/>
<path d="M200.734 204.576C201.733 205.801 202.176 207.018 202.021 208.24C201.867 209.461 201.128 210.611 199.826 211.692L197.72 213.433L191.575 206.037L193.894 204.118C195.101 203.118 196.305 202.654 197.502 202.744C198.699 202.835 199.777 203.439 200.73 204.595L200.734 204.576ZM199.135 205.958C197.807 204.372 196.455 204.153 195.058 205.315L194.228 206.009L198.22 210.828L198.902 210.283C200.418 209.025 200.494 207.589 199.15 205.981L199.135 205.958Z" fill="#EAE9DA"/>
<path d="M208.531 204.503L201.935 200.179L201.889 200.21C202.926 201.342 203.619 202.091 203.94 202.49L206.802 205.939L205.405 207.101L199.259 199.705L201.391 197.929L207.848 202.148L207.855 202.109L205.035 194.914L207.168 193.138L213.313 200.534L211.847 201.743L208.935 198.244C208.807 198.081 208.645 197.891 208.47 197.659C208.292 197.446 207.85 196.844 207.118 195.89L207.072 195.92L209.978 203.291L208.534 204.484L208.531 204.503Z" fill="#EAE9DA"/>
<path d="M215.198 199.009L209.053 191.613L210.614 190.323L216.76 197.719L215.195 199.028L215.198 199.009Z" fill="#EAE9DA"/>
<path d="M221.493 193.801L219.928 195.109L214.867 189.014L212.856 190.674L211.772 189.373L217.378 184.748L218.462 186.048L216.451 187.709L221.513 193.804L221.493 193.801Z" fill="#EAE9DA"/>
<path d="M230.985 179.711C232.004 180.94 232.473 182.122 232.41 183.282C232.347 184.442 231.746 185.499 230.611 186.433C229.476 187.367 228.326 187.762 227.182 187.602C226.038 187.443 224.936 186.754 223.917 185.526C222.899 184.298 222.413 183.092 222.492 181.955C222.575 180.799 223.172 179.762 224.31 178.808C225.445 177.874 226.596 177.479 227.74 177.639C228.884 177.799 229.967 178.483 230.985 179.711ZM225.57 184.175C226.248 185 226.93 185.488 227.595 185.656C228.26 185.823 228.895 185.627 229.531 185.113C230.784 184.082 230.726 182.721 229.332 181.063C227.942 179.386 226.628 179.074 225.395 180.109C224.778 180.626 224.464 181.221 224.512 181.906C224.541 182.587 224.892 183.349 225.589 184.178L225.57 184.175Z" fill="#EAE9DA"/>
<path d="M242.17 176.713L240.182 178.358L232.306 175.416L232.26 175.447C233.135 176.39 233.761 177.066 234.118 177.492L237.014 180.967L235.617 182.13L229.471 174.733L231.459 173.088L239.285 175.98L239.331 175.949C238.472 175.03 237.903 174.365 237.558 173.981L234.646 170.482L236.063 169.324L242.209 176.72L242.17 176.713Z" fill="#EAE9DA"/>
<path d="M248.298 171.652L244.037 175.184L237.891 167.788L242.152 164.255L243.221 165.533L240.525 167.757L241.865 169.384L244.374 167.303L245.443 168.581L242.934 170.662L244.518 172.575L247.214 170.351L248.298 171.652Z" fill="#EAE9DA"/>
</g>
<g opacity="0.84">
<path d="M316.66 115.723C315.657 114.517 315.172 113.411 315.187 112.401C315.202 111.391 315.719 110.457 316.755 109.623C317.109 109.334 317.388 109.129 317.628 109.016L318.484 110.054C318.198 110.198 317.923 110.384 317.687 110.577C317.238 110.947 316.93 111.305 316.761 111.67C316.591 112.035 316.541 112.403 316.628 112.777C316.696 113.148 316.93 113.59 317.31 114.1L317.359 114.049C317.254 113.354 317.49 112.744 318.104 112.246C318.648 111.794 319.222 111.606 319.801 111.697C320.4 111.792 320.932 112.133 321.435 112.726C321.966 113.384 322.217 114.048 322.165 114.733C322.113 115.418 321.758 116.026 321.118 116.558C320.669 116.929 320.188 117.154 319.678 117.216C319.169 117.277 318.666 117.2 318.138 116.94C317.63 116.684 317.129 116.289 316.66 115.723ZM320.217 115.551C320.498 115.327 320.63 115.054 320.628 114.756C320.625 114.458 320.469 114.13 320.198 113.78C319.954 113.495 319.692 113.305 319.404 113.25C319.116 113.195 318.841 113.281 318.559 113.505C318.3 113.713 318.149 113.982 318.105 114.312C318.043 114.637 318.129 114.912 318.327 115.129C318.602 115.46 318.922 115.66 319.283 115.749C319.647 115.819 319.958 115.76 320.236 115.555L320.217 115.551Z" fill="#282828"/>
<path d="M324.343 113.76L322.48 106.868L319.475 109.351L318.569 108.263L322.945 104.653L323.607 105.455L325.671 112.645L324.323 113.757L324.343 113.76Z" fill="#282828"/>
<path d="M329.967 103.22C330.97 104.425 331.455 105.531 331.44 106.541C331.426 107.552 330.908 108.485 329.872 109.319C329.514 109.628 329.217 109.829 328.996 109.946L328.14 108.907C328.426 108.764 328.697 108.597 328.956 108.389C329.382 108.033 329.69 107.675 329.856 107.33C330.025 106.965 330.076 106.597 329.992 106.204C329.908 105.81 329.694 105.372 329.31 104.881L329.261 104.931C329.325 105.321 329.278 105.67 329.166 105.946C329.034 106.219 328.821 106.496 328.513 106.754C327.991 107.191 327.421 107.359 326.838 107.287C326.258 107.196 325.707 106.852 325.208 106.239C324.658 105.578 324.426 104.917 324.478 104.232C324.53 103.547 324.885 102.94 325.525 102.407C325.974 102.036 326.455 101.811 326.965 101.75C327.474 101.689 327.996 101.769 328.505 102.025C329.013 102.282 329.514 102.676 329.964 103.239L329.967 103.22ZM326.407 103.411C326.145 103.638 326.016 103.892 326.015 104.209C326.018 104.508 326.155 104.832 326.445 105.186C326.689 105.471 326.951 105.66 327.239 105.715C327.527 105.771 327.802 105.684 328.084 105.46C328.343 105.252 328.498 104.964 328.538 104.654C328.6 104.328 328.514 104.053 328.336 103.84C328.061 103.509 327.741 103.309 327.38 103.22C327.015 103.15 326.705 103.209 326.423 103.433L326.407 103.411Z" fill="#282828"/>
<path d="M334.113 105.684L332.25 98.7913L329.246 101.274L328.34 100.186L332.715 96.5763L333.377 97.3787L335.442 104.568L334.094 105.68L334.113 105.684Z" fill="#282828"/>
<path d="M341.743 97.2554L341.008 97.8692L342.057 99.1432L340.801 100.193L339.748 98.9384L337.143 101.1L336.399 100.203L335.808 94.051L336.992 93.0665L340.179 96.8959L340.914 96.2821L341.739 97.2746L341.743 97.2554ZM338.911 97.9039L338.055 96.8657C337.908 96.6984 337.718 96.4435 337.447 96.0935C337.195 95.7472 337.032 95.5571 337.005 95.4922L336.997 95.5305C337.057 95.84 337.114 96.1686 337.151 96.4936L337.426 99.1087L338.892 97.9002L338.911 97.9039Z" fill="#282828"/>
<path d="M343.363 90.0579C343.688 90.4381 343.826 90.8618 343.818 91.3172C343.811 91.7725 343.646 92.2176 343.3 92.6678L343.32 92.6715C343.861 92.3384 344.347 92.1933 344.8 92.2205C345.252 92.2478 345.649 92.4629 345.99 92.866C346.474 93.4554 346.651 94.0854 346.481 94.7678C346.329 95.4538 345.863 96.1192 345.063 96.7602C344.401 97.3085 343.714 97.6732 343.017 97.8773L342.111 96.7898C342.444 96.7146 342.785 96.6011 343.136 96.4302C343.484 96.2784 343.8 96.0809 344.063 95.8532C344.489 95.498 344.751 95.1709 344.833 94.8488C344.914 94.5268 344.835 94.2137 344.557 93.902C344.313 93.6169 344.036 93.5041 343.703 93.5793C343.37 93.6544 342.943 93.9101 342.444 94.3309L341.972 94.717L341.147 93.7245L341.619 93.3384C342.091 92.9523 342.38 92.5905 342.496 92.295C342.612 91.9995 342.552 91.69 342.293 91.382C341.906 90.9105 341.423 90.937 340.855 91.4042C340.665 91.5663 340.486 91.7704 340.32 92.0165C340.176 92.2471 340.037 92.5581 339.925 92.9339L338.587 92.5382C338.814 91.668 339.314 90.9297 340.091 90.3041C340.727 89.7905 341.323 89.4876 341.909 89.4412C342.495 89.3948 342.972 89.6055 343.344 90.0542L343.363 90.0579Z" fill="#282828"/>
<path d="M348.256 86.031C348.581 86.4112 348.719 86.8349 348.711 87.2903C348.703 87.7456 348.538 88.1907 348.193 88.6409L348.212 88.6446C348.754 88.3116 349.24 88.1664 349.692 88.1936C350.145 88.2209 350.542 88.436 350.883 88.8391C351.367 89.4286 351.544 90.0586 351.374 90.7409C351.222 91.4269 350.756 92.0923 349.956 92.7334C349.294 93.2816 348.626 93.65 347.93 93.8541L347.023 92.7666C347.356 92.6914 347.697 92.5779 348.048 92.407C348.396 92.2552 348.712 92.0577 348.975 91.83C349.401 91.4748 349.663 91.1477 349.745 90.8257C349.823 90.5228 349.747 90.1905 349.469 89.8788C349.225 89.5937 348.948 89.4809 348.615 89.5561C348.282 89.6313 347.855 89.887 347.356 90.3077L346.884 90.6938L346.059 89.7013L346.531 89.3152C347.003 88.9291 347.292 88.5673 347.408 88.2718C347.524 87.9763 347.464 87.6668 347.205 87.3588C346.818 86.8873 346.335 86.9138 345.767 87.381C345.577 87.5431 345.399 87.7472 345.232 87.9933C345.088 88.2239 344.949 88.5349 344.837 88.9107L343.499 88.515C343.726 87.6448 344.226 86.9065 344.988 86.258C345.624 85.7444 346.219 85.4416 346.802 85.4143C347.388 85.3679 347.865 85.5786 348.237 86.0273L348.256 86.031Z" fill="#282828"/>
</g>
</g>
<defs>
<linearGradient id="paint0_linear_330_2037" x1="355.21" y1="139.754" x2="361.38" y2="138.017" gradientUnits="userSpaceOnUse">
<stop offset="0.03" stop-color="#C7B299"/>
<stop offset="0.18" stop-color="#C8B49C"/>
<stop offset="0.31" stop-color="#CEBCA6"/>
<stop offset="0.43" stop-color="#D8C9B8"/>
<stop offset="0.54" stop-color="#E6DCD1"/>
<stop offset="0.65" stop-color="#F7F4F1"/>
<stop offset="0.69" stop-color="white"/>
</linearGradient>
<linearGradient id="paint1_linear_330_2037" x1="280.654" y1="88.1063" x2="285.582" y2="84.0172" gradientUnits="userSpaceOnUse">
<stop offset="0.03" stop-color="#C7B299"/>
<stop offset="0.18" stop-color="#C8B49C"/>
<stop offset="0.31" stop-color="#CEBCA6"/>
<stop offset="0.43" stop-color="#D8C9B8"/>
<stop offset="0.54" stop-color="#E6DCD1"/>
<stop offset="0.65" stop-color="#F7F4F1"/>
<stop offset="0.69" stop-color="white"/>
</linearGradient>
</defs>
</svg>
