<svg width="24" height="24" viewBox="0 0 24 24" fill="none" xmlns="http://www.w3.org/2000/svg">
<path d="M4.89017 6.13004L4.89013 6.13007C4.05419 6.9656 3.57971 8.09623 3.57045 9.27758C3.5612 10.4579 4.01609 11.5946 4.83699 12.4426L11.9602 19.5648C11.9602 19.5648 11.9602 19.5648 11.9602 19.5649C12.054 19.6586 12.1811 19.7112 12.3137 19.7112C12.4462 19.7112 12.5734 19.6586 12.6671 19.5649C12.6671 19.5649 12.6671 19.5648 12.6672 19.5648L19.7899 12.4421C20.6113 11.5893 21.0636 10.447 21.0485 9.26295C21.0334 8.07742 20.551 6.94574 19.7062 6.11386C18.8614 5.28198 17.7225 4.81711 16.5368 4.82029C15.3513 4.82346 14.2149 5.29435 13.3746 6.13063L4.89017 6.13004ZM4.89017 6.13004C5.73404 5.28642 6.87843 4.8125 8.07167 4.8125C9.2649 4.8125 10.4093 5.28642 11.2532 6.13004L11.2538 6.13063M4.89017 6.13004L11.2538 6.13063M11.2538 6.13063C11.4416 6.31781 11.6813 6.54863 11.9718 6.82233L12.3151 7.1458M11.2538 6.13063L12.3151 7.1458M12.3151 7.1458L12.658 6.82194M12.3151 7.1458L12.658 6.82194M12.658 6.82194C12.9476 6.54839 13.1867 6.31778 13.3744 6.13082L12.658 6.82194Z" stroke="white"/>
</svg>
