<svg width="360" height="360" viewBox="0 0 360 360" fill="none" xmlns="http://www.w3.org/2000/svg">
<circle cx="180" cy="180" r="180" fill="#FA3C2A"/>
<path d="M261.607 156.46H98.4238V273.588H261.607V156.46Z" fill="#1E1E26"/>
<path d="M129.032 137.236H122.499H116.598L126.666 156.46H132.568H139.101L129.032 137.236Z" fill="#010103"/>
<path d="M153.916 137.236H147.383H141.481L151.55 156.46H157.452H163.985L153.916 137.236Z" fill="#010103"/>
<path d="M104.163 137.236H97.6296H94V141.592L101.783 156.46H107.698H114.232L104.163 137.236Z" fill="#010103"/>
<path d="M203.682 137.236H197.148H191.233L201.302 156.46H207.217H213.75L203.682 137.236Z" fill="#010103"/>
<path d="M253.433 137.236H246.899H240.998L251.067 156.46H256.968H263.501L253.433 137.236Z" fill="#010103"/>
<path d="M178.798 137.236H172.265H166.363L176.419 156.46H182.333H188.867L178.798 137.236Z" fill="#010103"/>
<path d="M265.881 137.236H259.348H253.433L263.501 156.46H266.029V149.994V137.519V137.236H265.881Z" fill="white"/>
<path d="M141.479 137.236H134.946H129.031L139.1 156.46H145.015H151.548L141.479 137.236Z" fill="white"/>
<path d="M166.364 137.236H159.831H153.916L163.985 156.46H169.886H176.419L166.364 137.236Z" fill="white"/>
<path d="M116.597 137.236H110.064H104.162L114.231 156.46H120.132H126.666L116.597 137.236Z" fill="white"/>
<path d="M94 154.067V156.46H95.2502H101.783L94 141.592V154.067Z" fill="white"/>
<path d="M240.998 137.236H234.465H228.563L238.619 156.46H244.534H251.067L240.998 137.236Z" fill="white"/>
<path d="M191.233 137.236H184.699H178.798L188.867 156.46H194.768H201.301L191.233 137.236Z" fill="white"/>
<path d="M216.115 137.236H209.582H203.681L213.749 156.46H219.651H226.184L216.115 137.236Z" fill="white"/>
<path d="M228.563 137.236H222.017H216.115L226.184 156.46H232.085H238.619L228.563 137.236Z" fill="#010103"/>
<path d="M135.015 97.2301L128.764 95.3212L123.118 93.6005L127.124 114.921L132.77 116.655L139.021 118.564L135.015 97.2301Z" fill="#010103"/>
<path d="M158.81 104.489L152.559 102.594L146.913 100.86L150.919 122.194L156.565 123.914L162.816 125.823L158.81 104.489Z" fill="#010103"/>
<path d="M111.209 89.9709L104.972 88.062L101.504 87L100.227 91.1673L103.332 107.662L108.978 109.382L115.229 111.291L111.209 89.9709Z" fill="#010103"/>
<path d="M206.398 119.021L200.147 117.112L194.501 115.391L198.52 136.725L204.166 138.446L210.417 140.355L206.398 119.021Z" fill="#010103"/>
<path d="M253.985 133.553L247.734 131.644L242.088 129.923L246.107 151.244L251.753 152.978L258.004 154.887L253.985 133.553Z" fill="#010103"/>
<path d="M182.604 111.762L176.353 109.853L170.707 108.132L174.713 129.453L180.372 131.173L186.61 133.082L182.604 111.762Z" fill="#010103"/>
<path d="M265.883 137.182L259.632 135.274L253.986 133.553L258.006 154.887L260.412 155.613L262.307 149.442L265.951 137.505L266.031 137.236L265.883 137.182Z" fill="white"/>
<path d="M146.914 100.86L140.663 98.9507L135.017 97.23L139.023 118.564L144.669 120.285L150.92 122.193L146.914 100.86Z" fill="white"/>
<path d="M170.707 108.132L164.456 106.223L158.81 104.489L162.816 125.823L168.475 127.544L174.713 129.453L170.707 108.132Z" fill="white"/>
<path d="M123.119 93.6004L116.868 91.6915L111.209 89.9708L115.228 111.291L120.874 113.012L127.125 114.921L123.119 93.6004Z" fill="white"/>
<path d="M96.5828 103.105L95.8838 105.39L97.0802 105.753L103.331 107.662L100.226 91.1672L96.5828 103.105Z" fill="white"/>
<path d="M242.089 129.923L235.838 128.014L230.192 126.294L234.212 147.614L239.858 149.335L246.109 151.244L242.089 129.923Z" fill="white"/>
<path d="M194.501 115.391L188.25 113.482L182.604 111.762L186.61 133.082L192.269 134.816L198.52 136.725L194.501 115.391Z" fill="white"/>
<path d="M218.295 122.651L212.044 120.755L206.398 119.021L210.418 140.355L216.064 142.076L222.315 143.985L218.295 122.651Z" fill="white"/>
<path d="M230.191 126.294L223.94 124.385L218.294 122.651L222.313 143.985L227.959 145.705L234.21 147.614L230.191 126.294Z" fill="#010103"/>
<path d="M256.619 178.519H103.41V179.326H256.619V178.519Z" fill="white"/>
<path d="M256.619 201.56H103.41V202.367H256.619V201.56Z" fill="white"/>
<path d="M256.619 222.854H103.41V223.661H256.619V222.854Z" fill="white"/>
<path d="M145.729 223.257H145.043V250.318H145.729V223.257Z" fill="white"/>
<path d="M214.986 223.257H214.301V250.318H214.986V223.257Z" fill="white"/>
<path d="M263.254 151.627C264.197 145.906 260.323 140.504 254.602 139.561C248.881 138.617 243.479 142.491 242.536 148.212C241.593 153.933 245.466 159.336 251.187 160.279C256.908 161.222 262.311 157.348 263.254 151.627Z" fill="#2A4E5E"/>
</svg>
