<svg width="360" height="360" viewBox="0 0 360 360" fill="none" xmlns="http://www.w3.org/2000/svg">
<circle cx="180" cy="180" r="180" fill="#C6C9B8"/>
<mask id="mask0_330_1386" style="mask-type:alpha" maskUnits="userSpaceOnUse" x="0" y="0" width="360" height="360">
<circle cx="180" cy="180" r="180" fill="#F3F8E2"/>
</mask>
<g mask="url(#mask0_330_1386)">
<g style="mix-blend-mode:multiply" opacity="0.5">
<path d="M46 207.018L608.95 360.308L627.54 316.918L46 198.888V207.018Z" fill="#202C44"/>
</g>
<g style="mix-blend-mode:multiply" opacity="0.5">
<path d="M644.45 205.488L97.5596 161.738V165.928L644.45 243.968" fill="#202C44"/>
</g>
<path d="M336.91 255.738L591.16 307.418L603.98 302.688L342.35 251.438L336.91 255.738Z" fill="#E55853"/>
<path d="M199.439 133.548C199.439 133.548 197.539 82.768 205.019 81.028C212.489 79.288 246.539 77.938 247.409 80.018C248.279 82.098 246.539 125.378 246.539 125.378L234.099 141.188L199.439 133.538V133.548Z" fill="#AF333F"/>
<path d="M152.779 174.038C152.779 174.038 148.739 135.288 156.899 125.968C165.049 116.648 189.049 114.088 189.049 114.088L198.369 115.328L188.819 163.478L160.939 176.598L152.779 174.038Z" fill="#202C44"/>
<path d="M160.939 176.598C160.939 176.598 158.059 136.528 166.219 127.208C174.369 117.888 198.369 115.328 198.369 115.328L198.139 164.718L160.939 176.598Z" fill="#304360"/>
<path d="M193.689 133.548C193.689 133.548 191.789 82.768 199.269 81.028C206.739 79.288 240.789 77.938 241.659 80.018C242.529 82.108 240.789 125.378 240.789 125.378L228.349 141.188L193.689 133.538V133.548Z" fill="#E55853"/>
<path d="M202.379 170.208L156.119 162.248C156.119 162.248 154.769 143.788 164.499 140.148C174.229 136.498 193.699 133.548 193.699 133.548L233.499 141.018L223.469 165.968L202.389 170.218L202.379 170.208Z" fill="#E55853"/>
<path d="M198.37 134.578C198.37 134.578 195.63 94.8281 201.62 87.5781C201.62 87.5781 215.15 84.0181 234.82 85.3381C234.82 85.3381 231.17 110.298 233.2 140.148L198.37 134.578Z" fill="#AF333F"/>
<path d="M201.769 170.208C201.769 170.208 199.249 152.668 217.709 151.878C236.169 151.078 219.479 166.308 219.479 166.308L201.769 170.218V170.208Z" fill="#AF333F"/>
<path d="M198.369 134.578C198.369 134.578 188.859 136.828 178.119 139.408C165.549 142.428 160.519 149.938 160.329 159.098C160.329 159.098 184.949 162.338 193.669 163.558C194.789 163.718 195.829 162.968 196.059 161.868C196.539 159.628 197.599 155.928 199.659 154.108C204.839 149.528 212.019 144.018 225.329 138.468" fill="#AF333F"/>
<path d="M197.48 129.398C197.48 129.398 168.39 137.058 163.28 144.998C158.18 152.938 153.38 183.858 154.8 186.128L164.59 188.928C164.59 188.928 172.81 160.018 175.08 158.318C177.35 156.618 209.1 154.918 211.65 129.408C214.2 103.898 197.48 129.408 197.48 129.408V129.398Z" fill="#202C44"/>
<g style="mix-blend-mode:multiply" opacity="0.3">
<path d="M197.48 129.398C197.48 129.398 196.47 129.658 194.81 130.148C195.86 131.358 196.83 132.588 196.24 134.468C195.67 136.298 193.69 137.238 191.92 137.968C188.38 139.428 184.84 140.878 181.3 142.338C179.06 143.258 176.78 144.208 174.95 145.798C172.51 147.918 171.11 150.958 169.98 153.988C167.92 159.538 166.56 165.318 165.22 171.088C163.91 176.688 162.6 182.288 161.29 187.878C161.29 187.908 161.28 187.938 161.27 187.978L164.6 188.928C164.6 188.928 172.82 160.018 175.09 158.318C177.36 156.618 209.11 154.918 211.66 129.408C214.21 103.898 197.49 129.408 197.49 129.408L197.48 129.398Z" fill="#202C44"/>
</g>
<path d="M211.86 131.128C211.86 131.128 184.02 144.308 181.27 150.258C178.52 156.208 174.05 190.698 174.05 190.698L184.48 192.648C184.48 192.648 193.07 159.998 195.25 158.048C197.43 156.098 200.18 155.758 201.32 155.068C202.47 154.378 225.61 152.428 226.98 131.578" fill="#202C44"/>
<g style="mix-blend-mode:multiply" opacity="0.3">
<path d="M206.22 133.908C206.73 134.618 207.47 135.218 208.14 135.838C209.75 137.308 210.83 139.518 210.07 141.718C209.72 142.738 209.01 143.588 208.25 144.368C202.23 150.528 192.89 152.838 187.48 159.548C184.6 163.108 183.12 167.598 182.08 172.058C180.92 176.988 180.23 182.018 180 187.078C179.93 188.688 179.93 190.328 180.3 191.888L184.48 192.668C184.48 192.668 193.07 160.018 195.25 158.068C197.43 156.118 200.18 155.778 201.32 155.088C202.47 154.398 225.61 152.458 226.98 131.598L211.86 131.138C211.86 131.138 209.56 132.228 206.22 133.918V133.908Z" fill="#202C44"/>
</g>
<path d="M192.729 127.408C192.969 129.848 194.829 131.818 197.249 132.218C205.979 133.658 226.149 136.518 230.479 133.058C236.039 128.608 237.209 84.1579 232.569 79.8679C227.419 75.1179 213.309 76.4579 204.969 77.7579C197.019 78.9979 190.019 100.248 192.739 127.408H192.729Z" fill="#D291BC"/>
<g style="mix-blend-mode:multiply" opacity="0.5">
<path d="M234.379 96.8279C233.439 96.7479 233.259 94.6779 231.879 95.4779C231.269 95.8279 231.229 96.6679 231.249 97.3679C231.339 99.7579 231.419 102.148 231.509 104.538C231.599 107.008 231.609 109.738 230.009 111.628C228.879 112.968 227.139 113.628 225.459 114.128C223.249 114.788 220.989 115.288 218.699 115.618C217.149 115.838 215.479 116.028 214.299 117.058C213.489 117.758 213.019 118.758 212.399 119.628C211.159 121.348 209.229 122.558 207.139 122.928C202.789 123.698 198.589 120.958 194.179 120.718C193.539 120.678 192.859 120.728 192.239 120.888C192.339 123.018 192.489 125.198 192.709 127.418C192.949 129.858 194.809 131.828 197.229 132.228C205.959 133.668 226.129 136.528 230.459 133.068C234.029 130.208 235.789 110.838 235.359 96.2079C235.029 96.5879 234.689 96.8679 234.359 96.8379L234.379 96.8279Z" fill="#D291BC"/>
</g>
<path d="M193.43 120.848C193.43 120.848 203.27 125.788 203.59 125.538C203.91 125.288 200.71 122.768 200.71 122.768C200.71 122.768 205.54 124.098 205.79 123.588C206.05 123.078 201.2 121.328 201.2 121.328C201.2 121.328 206.67 122.568 206.97 121.948C207.27 121.328 201.58 119.818 201.58 119.818C201.58 119.818 206.55 120.098 206.63 119.698C206.71 119.298 200.48 117.198 200.48 117.198C200.48 117.198 204.79 116.418 204.75 115.718C204.71 115.018 198.8 116.078 198.8 116.078L195.03 114.898L193.43 120.858V120.848Z" fill="#EABC96"/>
<path d="M201.459 79.6079C201.459 79.6079 198.439 76.9079 193.429 84.7679C188.419 92.6279 179.769 109.738 180.549 113.378C181.339 117.018 195.099 121.928 195.889 122.028L197.949 115.638L192.939 112.198C192.939 112.198 196.249 88.9479 201.459 79.6079Z" fill="#D291BC"/>
<g style="mix-blend-mode:multiply" opacity="0.3">
<path d="M197.949 115.638L192.939 112.198C192.939 112.198 194.569 100.608 197.319 90.438C196.869 90.238 196.299 90.428 195.959 90.808C195.599 91.218 195.449 91.768 195.309 92.298C194.009 97.278 192.709 102.268 191.399 107.248C191.129 108.278 190.699 109.478 189.659 109.748C188.899 109.938 188.129 109.528 187.369 109.358C186.539 109.178 185.649 109.308 184.899 109.708C185.039 110.198 185.439 110.478 185.929 110.668C186.039 110.788 186.229 110.888 186.339 111.008C186.589 111.288 186.749 111.688 186.639 112.058C186.509 112.488 186.059 112.748 185.629 112.838C185.189 112.928 184.689 113.118 184.289 112.928C181.099 111.408 183.829 109.098 184.149 107.208C184.269 106.518 184.259 105.718 183.749 105.248C183.529 105.038 183.229 104.948 182.929 104.908C181.279 108.818 180.269 112.038 180.559 113.398C181.349 117.038 195.109 121.948 195.899 122.048L197.959 115.658L197.949 115.638Z" fill="#D291BC"/>
</g>
<path d="M210.399 76.348L210.079 79.248C209.979 80.158 210.009 81.088 210.209 81.978C210.489 83.198 211.109 84.578 212.519 84.898C215.139 85.498 219.999 80.688 220.159 76.108C220.319 71.528 210.399 76.338 210.399 76.338V76.348Z" fill="#EABC96"/>
<g style="mix-blend-mode:multiply" opacity="0.4">
<path d="M220.149 76.118C220.309 71.538 210.389 76.348 210.389 76.348L210.069 79.248C210.029 79.648 210.009 80.058 210.019 80.458C210.249 80.788 210.529 81.078 210.859 81.308C211.849 82.018 213.149 82.218 214.349 81.998C215.549 81.768 216.649 81.148 217.569 80.358C218.469 79.588 219.219 78.648 219.909 77.678C220.039 77.158 220.119 76.638 220.139 76.118H220.149Z" fill="#EABC96"/>
</g>
<path d="M204.77 54.7779C204.77 54.7779 202.17 72.3779 206.71 75.4679C211.25 78.5579 220.43 80.4479 223.61 73.0379C226.79 65.6279 226.55 61.0879 226.55 61.0879L223.22 49.7079L212.21 49.0179L204.89 49.6879L204.62 52.0979L204.77 54.7779Z" fill="#EABC96"/>
<g style="mix-blend-mode:multiply" opacity="0.2">
<path d="M215.02 49.7879C213.12 49.5679 211.22 49.2579 209.31 49.2979C209.18 49.2979 209.04 49.3079 208.91 49.3179L207.67 49.428C206.68 49.568 205.71 49.838 204.82 50.268L204.62 52.0879L204.77 54.768C204.77 54.768 204.68 55.408 204.55 56.458C205.51 56.398 206.31 55.5779 206.3 54.5579C207.61 55.4779 209.51 55.4779 210.81 54.5279C210.97 54.4179 211.14 54.3179 211.34 54.2979C211.82 54.2479 211.89 54.5679 212.05 54.8079C212.93 56.1379 215.71 54.7079 216.19 56.4979C216.26 56.7679 216.25 57.048 216.19 57.318C215.68 59.518 215.6 61.8079 215.96 64.0379C216 64.3179 216.06 64.5879 216.19 64.8379C216.57 65.5579 217.48 65.7879 218.29 65.8679C219.43 65.9779 220.71 65.9879 221.2 67.4179C221.36 67.8679 221.38 68.3579 221.31 68.8379C220.87 71.5779 219.05 74.4579 216.28 75.0879C214.58 75.4779 212.8 74.9679 211.18 74.3079C209.16 73.4779 207.14 72.298 206.1 70.378C205.93 70.058 205.78 69.7179 205.51 69.4679C205.25 69.2179 204.82 69.0979 204.52 69.2979C204.42 69.3679 204.34 69.4679 204.28 69.5779C204.62 72.2679 205.34 74.5179 206.7 75.4479C211.24 78.5379 220.42 80.4279 223.6 73.018C226.78 65.608 226.54 61.068 226.54 61.068L223.6 51.0379C223.12 50.8979 222.63 50.778 222.15 50.678C219.8 50.178 217.4 50.0479 215.01 49.7779L215.02 49.7879Z" fill="#EABC96"/>
</g>
<g style="mix-blend-mode:multiply">
<path d="M211.35 58.748C211.35 58.748 207.46 67.268 208.17 68.158C208.88 69.048 210.88 67.718 210.88 67.718C210.88 67.718 211.92 69.018 212.22 64.908C212.52 60.798 212.37 57.528 211.35 58.748Z" fill="#EABC96"/>
</g>
<path d="M225.59 38.688C222.57 37.368 215.48 35.858 211.98 36.988L213.68 38.408C213.68 38.408 208.78 38.138 205.64 39.858C205.4 39.948 205.1 40.128 204.76 40.418C204.73 40.448 204.71 40.468 204.68 40.498C204.37 40.758 204.09 41.048 203.85 41.368C201.36 44.458 202.35 48.568 202.35 48.568C202.51 48.268 202.77 48.018 203.08 47.808C203.24 48.848 203.55 49.938 204.09 50.918C204 53.518 203.84 59.118 204.09 59.658C204.34 60.188 205.23 55.478 205.64 52.778C206.03 53.098 206.47 53.388 206.98 53.618C212.27 55.978 224.18 53.708 224.18 53.708C224.18 53.708 223.42 59.658 223.99 62.308C224.56 64.958 226.73 62.028 226.73 62.028C226.73 62.028 227.3 58.248 227.86 58.158C228.43 58.068 233.15 49.658 233.62 48.428C234.09 47.198 228.61 40.018 225.59 38.698V38.688Z" fill="#202C44"/>
<g style="mix-blend-mode:multiply" opacity="0.3">
<path d="M232.51 45.7979C232.27 46.0879 232.11 46.4779 232.05 46.8379C231.92 47.6279 232 48.5079 231.53 49.1479C231 49.8679 229.9 50.0079 229.1 49.6079C228.3 49.2079 227.78 48.3779 227.53 47.5179C227.47 47.3179 227.42 47.0979 227.26 46.9579C226.86 46.6179 226.29 47.0879 226 47.5279C225.19 48.7679 224.52 50.1879 223.27 50.9979C222.56 51.4579 221.72 51.6779 220.88 51.8179C215.53 52.6979 210.01 50.3479 206.09 46.6079C205.58 46.1179 205.08 45.6079 204.46 45.2779C203.89 44.9679 203.13 44.8179 202.52 45.1179C202.4 45.1779 202.31 45.2479 202.23 45.3379C202.01 47.1379 202.34 48.5579 202.34 48.5579C202.5 48.2579 202.76 48.0079 203.07 47.7979C203.23 48.8379 203.54 49.9279 204.08 50.9079C203.99 53.5079 203.83 59.1079 204.08 59.6479C204.33 60.1779 205.22 55.4679 205.63 52.7679C206.02 53.0879 206.46 53.3779 206.97 53.6079C212.26 55.9679 224.17 53.6979 224.17 53.6979C224.17 53.6979 223.41 59.6479 223.98 62.2979C224.55 64.9479 226.72 62.0179 226.72 62.0179C226.72 62.0179 227.29 58.2379 227.85 58.1479C228.42 58.0579 233.14 49.6479 233.61 48.4179C233.76 48.0279 233.3 47.0179 232.51 45.7979Z" fill="#202C44"/>
</g>
<path d="M208.36 70.468C208.36 70.468 207.89 74.258 211.14 74.838C214.39 75.418 215.55 72.288 215.5 70.738C215.45 69.178 213.77 70.618 211.93 70.788C210.09 70.958 208.98 68.908 208.36 70.468Z" fill="#AF333F"/>
<path d="M199.48 54.4279C199.48 54.4279 200.37 63.8379 200.72 63.9479C201.08 64.0579 207.29 65.3379 207.84 65.0979C208.39 64.8579 210.75 60.8379 211.4 60.9779C212.05 61.1279 213.39 65.7279 213.89 65.8479C214.39 65.9679 224.05 66.2179 224.67 65.9179C225.29 65.6179 225.57 55.0779 224.94 54.7079C224.31 54.3479 200.08 53.5979 199.47 54.4179L199.48 54.4279Z" fill="white"/>
<path d="M212.36 56.0279L212.32 58.8379C212.31 59.7779 212.48 60.7179 212.85 61.5879C213.53 63.1779 214.44 64.538 214.75 64.598C215.56 64.758 222.99 64.688 223.56 64.458C224.13 64.228 224.45 56.5779 223.88 56.3679C223.31 56.1579 212.71 55.6379 212.35 56.0379L212.36 56.0279Z" fill="#AF333F"/>
<path d="M200.77 55.5179C200.77 55.5179 201.22 62.8179 201.63 63.1579C202.04 63.4979 206.92 64.1179 207.25 63.7779C207.58 63.4379 209.7 60.2779 209.91 59.7779C210.11 59.2779 209.94 56.1179 209.94 56.1179C209.94 56.1179 202.81 55.0679 200.77 55.5079V55.5179Z" fill="#456190"/>
<path d="M224.95 54.7179C224.95 54.7179 232.94 55.7979 233.63 57.0879C234.32 58.3879 234.02 60.3179 233.29 60.1879C232.56 60.0679 232.94 58.5779 232.2 58.2379C231.45 57.8979 225.3 59.7379 225.3 59.7379L224.96 54.7079L224.95 54.7179Z" fill="white"/>
<path d="M226.04 59.5279L225.38 65.5579C225.38 65.5579 229.31 66.1379 230.17 63.0379C231.03 59.9379 227.82 56.8479 226.05 59.5379L226.04 59.5279Z" fill="#EABC96"/>
<g style="mix-blend-mode:multiply" opacity="0.2">
<path d="M226.04 59.5279L225.38 65.5579C225.38 65.5579 229.31 66.1379 230.17 63.0379C231.03 59.9379 227.82 56.8479 226.05 59.5379L226.04 59.5279Z" fill="#EABC96"/>
</g>
<path d="M209.96 74.398C210.29 74.598 210.68 74.758 211.15 74.838C213.08 75.178 214.26 74.218 214.9 73.058C211.84 71.758 210.34 73.748 209.96 74.398Z" fill="#E55853"/>
<path d="M263.43 138.798C263.43 138.798 261.21 79.2879 269.97 77.2479C278.73 75.2079 318.63 73.618 319.65 76.068C320.67 78.508 318.63 129.228 318.63 129.228L304.05 147.758L263.43 138.798Z" fill="#AF333F"/>
<path d="M208.74 186.258C208.74 186.258 204.01 140.838 213.56 129.918C223.12 118.998 251.24 115.988 251.24 115.988L262.16 117.448L250.97 173.878L218.3 189.258L208.74 186.258Z" fill="#202C44"/>
<path d="M218.3 189.258C218.3 189.258 214.93 142.298 224.48 131.368C234.04 120.448 262.16 117.438 262.16 117.438L261.89 175.328L218.3 189.258Z" fill="#304360"/>
<path d="M256.69 138.798C256.69 138.798 254.47 79.2879 263.23 77.2479C271.99 75.2079 311.89 73.618 312.91 76.068C313.93 78.508 311.89 129.228 311.89 129.228L297.31 147.758L256.69 138.798Z" fill="#E55853"/>
<path d="M265.12 185.478L213.26 175.218C213.26 175.218 211.08 150.808 222.48 146.528C233.89 142.248 256.7 138.788 256.7 138.788L303.34 147.548L291.97 173.108L265.13 185.468L265.12 185.478Z" fill="#E55853"/>
<path d="M262.17 140.008C262.17 140.008 258.96 93.4179 265.97 84.9279C265.97 84.9279 281.83 80.7579 304.88 82.2979C304.88 82.2979 300.61 111.548 302.99 146.528L262.17 140.008Z" fill="#AF333F"/>
<path d="M266.16 181.768C266.16 181.768 263.21 161.218 284.84 160.278C306.47 159.338 288.51 173.988 288.51 173.988L266.16 181.768Z" fill="#AF333F"/>
<path d="M262.169 140.008C262.169 140.008 251.019 142.638 238.439 145.668C223.709 149.208 216.499 161.188 216.279 171.928C216.279 171.928 246.219 175.648 256.439 177.078C257.749 177.258 259.189 173.278 259.469 171.988C260.029 169.358 261.279 165.028 263.679 162.898C269.749 157.528 278.159 151.078 293.759 144.568" fill="#AF333F"/>
<path d="M267.19 90.428L275.65 112.558L261.72 135.198L263.96 138.428L277.39 119.278L291.57 141.908L295.3 138.678L283.11 115.048L304.75 90.428L300.27 86.698L281.12 108.088L270.43 85.948L267.19 90.428Z" fill="white"/>
<path d="M338.96 147.078C338.96 147.078 336.27 74.9779 346.88 72.5079C357.49 70.0379 405.84 68.1179 407.07 71.0779C408.3 74.0379 405.84 135.488 405.84 135.488L388.18 157.948L338.97 147.088L338.96 147.078Z" fill="#AF333F"/>
<path d="M272.689 204.578C272.689 204.578 266.959 149.548 278.529 136.318C290.109 123.088 324.189 119.448 324.189 119.448L337.419 121.208L323.859 189.578L284.279 208.218L272.699 204.578H272.689Z" fill="#202C44"/>
<path d="M284.279 208.218C284.279 208.218 280.189 151.318 291.769 138.078C303.349 124.848 337.429 121.208 337.429 121.208L337.099 191.348L284.279 208.218Z" fill="#304360"/>
<path d="M330.789 147.078C330.789 147.078 328.099 74.9779 338.709 72.5079C349.319 70.0379 397.669 68.1179 398.899 71.0779C400.129 74.0379 397.669 135.488 397.669 135.488L380.009 157.948L330.799 147.088L330.789 147.078Z" fill="#E55853"/>
<path d="M343.129 199.148L280.899 188.188C280.899 188.188 275.509 161.638 289.329 156.458C303.149 151.278 330.789 147.078 330.789 147.078L387.299 157.688L373.059 193.118L343.129 199.148Z" fill="#E55853"/>
<path d="M337.429 148.538C337.429 148.538 333.539 92.0879 342.039 81.7979C342.039 81.7979 361.249 76.7378 389.189 78.6078C389.189 78.6078 384.009 114.048 386.899 156.438L337.439 148.538H337.429Z" fill="#AF333F"/>
<path d="M342.26 199.148C342.26 199.148 338.68 174.248 364.89 173.118C391.1 171.988 367.4 193.608 367.4 193.608L342.26 199.158V199.148Z" fill="#AF333F"/>
<path d="M337.429 148.538C337.429 148.538 323.919 151.728 308.679 155.398C290.829 159.688 285.089 169.988 284.819 183.008C284.819 183.008 318.379 187.958 330.759 189.688C332.349 189.908 333.819 188.858 334.159 187.288C334.839 184.098 336.349 178.848 339.259 176.278C346.609 169.768 356.809 161.958 375.709 154.068" fill="#AF333F"/>
<path d="M345.68 73.918C345.68 73.918 337.02 72.348 331.59 78.458C326.16 84.568 317.75 113.338 317.75 113.338C317.75 113.338 299.29 112.928 296.71 120.398C294.67 126.318 300.24 128.268 303.09 128.268C305.94 128.268 329.29 127.318 332.68 122.568C336.07 117.818 345.68 73.918 345.68 73.918Z" fill="#E8CA76"/>
<path d="M340.53 135.468C340.53 135.468 302.05 145.598 295.3 156.098C288.55 166.598 282.21 207.498 284.09 210.498L297.04 214.208C297.04 214.208 307.91 175.968 310.91 173.718C313.91 171.468 355.9 169.218 359.27 135.478C362.64 101.738 340.53 135.478 340.53 135.478V135.468Z" fill="#202C44"/>
<g style="mix-blend-mode:multiply" opacity="0.3">
<path d="M340.53 135.468C340.53 135.468 339.2 135.818 337 136.458C338.39 138.058 339.68 139.688 338.9 142.168C338.14 144.588 335.53 145.838 333.18 146.798C328.5 148.728 323.82 150.648 319.14 152.578C316.18 153.798 313.16 155.048 310.74 157.148C307.52 159.948 305.66 163.978 304.17 167.978C301.44 175.318 299.65 182.968 297.87 190.588C296.14 197.988 294.41 205.398 292.68 212.798C292.68 212.838 292.66 212.878 292.65 212.928L297.05 214.188C297.05 214.188 307.92 175.948 310.92 173.698C313.92 171.448 355.91 169.198 359.28 135.458C362.65 101.718 340.54 135.458 340.54 135.458L340.53 135.468Z" fill="#202C44"/>
</g>
<path d="M359.55 137.758C359.55 137.758 322.73 155.178 319.09 163.058C315.45 170.938 309.54 216.548 309.54 216.548L323.33 219.128C323.33 219.128 334.69 175.948 337.57 173.368C340.45 170.788 344.09 170.338 345.6 169.428C347.11 168.518 377.72 165.948 379.54 138.368" fill="#202C44"/>
<g style="mix-blend-mode:multiply" opacity="0.3">
<path d="M352.09 141.438C352.77 142.378 353.74 143.178 354.63 143.988C356.76 145.928 358.19 148.858 357.19 151.758C356.72 153.108 355.78 154.238 354.79 155.258C346.83 163.408 334.48 166.468 327.32 175.328C323.51 180.038 321.56 185.968 320.17 191.868C318.64 198.388 317.72 205.048 317.42 211.728C317.33 213.858 317.33 216.018 317.82 218.088L323.35 219.118C323.35 219.118 334.71 175.938 337.59 173.358C340.47 170.778 344.11 170.328 345.62 169.418C347.14 168.508 377.74 165.938 379.56 138.358L359.56 137.748C359.56 137.748 356.51 139.188 352.1 141.428L352.09 141.438Z" fill="#202C44"/>
</g>
<path d="M331.779 109.408C331.819 108.918 331.869 108.428 331.919 107.948C331.869 108.438 331.819 108.918 331.779 109.408Z" fill="#E8CA76"/>
<path d="M331.54 112.658C331.58 111.938 331.64 111.218 331.69 110.508C331.63 111.218 331.58 111.928 331.54 112.658Z" fill="#E8CA76"/>
<path d="M331.39 115.698C331.41 115.288 331.42 114.868 331.44 114.468C331.42 114.878 331.41 115.288 331.39 115.698Z" fill="#E8CA76"/>
<path d="M331.549 129.918C331.529 129.518 331.509 129.128 331.489 128.738C331.509 129.128 331.529 129.528 331.549 129.918Z" fill="#E8CA76"/>
<path d="M331.399 126.978C331.379 126.558 331.369 126.148 331.359 125.738C331.369 126.148 331.389 126.568 331.399 126.978Z" fill="#E8CA76"/>
<path d="M331.31 118.438C331.31 118.018 331.32 117.598 331.34 117.178C331.33 117.598 331.32 118.018 331.31 118.438Z" fill="#E8CA76"/>
<path d="M331.32 124.078C331.32 123.658 331.3 123.238 331.3 122.818C331.3 123.238 331.31 123.658 331.32 124.078Z" fill="#E8CA76"/>
<path d="M333.69 105.478C333.67 111.198 333.72 117.218 336.55 122.188C339.37 127.158 345.98 130.478 350.99 127.718C351.36 127.518 351.73 127.268 351.91 126.888C352.21 126.258 351.9 125.508 351.57 124.888C348.06 118.248 342.68 111.808 343.36 104.328C343.44 103.418 343.77 102.338 344.66 102.128C345.66 101.888 346.46 102.908 347 103.778C351.48 110.958 358.03 116.818 365.66 120.468C367.5 121.348 369.72 122.088 371.49 121.088C372.69 120.408 373.37 119.098 373.93 117.838C376.65 111.798 378.45 105.348 379.26 98.768C379.54 96.488 379.7 94.158 380.47 91.988C382.18 87.158 386.56 83.838 390.88 81.068C394.58 78.698 398.39 76.518 402.31 74.538C403.71 73.828 405.14 73.148 406.6 72.578L402.39 59.788C390.08 63.168 375.37 70.428 372.38 71.928C364.44 70.888 354.43 71.978 347.54 73.058C341.71 73.968 336.28 83.398 333.41 97.868C333.51 97.338 333.62 96.808 333.73 96.288C333.72 99.348 333.71 102.418 333.7 105.478H333.69Z" fill="#E8CA76"/>
<g style="mix-blend-mode:multiply" opacity="0.3">
<path d="M331.69 131.908C331.64 131.238 331.59 130.578 331.55 129.918C331.59 130.578 331.64 131.248 331.69 131.908Z" fill="#E8CA76"/>
</g>
<g style="mix-blend-mode:multiply" opacity="0.3">
<path d="M331.29 119.968C331.29 119.458 331.3 118.948 331.31 118.438C331.31 118.948 331.29 119.448 331.29 119.968Z" fill="#E8CA76"/>
</g>
<g style="mix-blend-mode:multiply" opacity="0.3">
<path d="M331.359 125.738C331.339 125.178 331.329 124.628 331.319 124.078C331.329 124.628 331.349 125.178 331.359 125.738Z" fill="#E8CA76"/>
</g>
<g style="mix-blend-mode:multiply" opacity="0.3">
<path d="M331.92 107.948C331.95 107.608 331.99 107.258 332.02 106.918C331.98 107.258 331.95 107.598 331.92 107.948Z" fill="#E8CA76"/>
</g>
<g style="mix-blend-mode:multiply" opacity="0.3">
<path d="M332.88 100.718C332.92 100.458 332.97 100.198 333.01 99.938C332.96 100.198 332.92 100.448 332.88 100.718Z" fill="#E8CA76"/>
</g>
<g style="mix-blend-mode:multiply" opacity="0.3">
<path d="M332.51 103.058C332.55 102.768 332.6 102.468 332.64 102.178C332.6 102.468 332.55 102.758 332.51 103.058Z" fill="#E8CA76"/>
</g>
<g style="mix-blend-mode:multiply" opacity="0.3">
<path d="M331.33 117.188C331.34 116.688 331.36 116.198 331.38 115.698C331.36 116.188 331.34 116.688 331.33 117.188Z" fill="#E8CA76"/>
</g>
<g style="mix-blend-mode:multiply" opacity="0.3">
<path d="M331.689 110.518C331.719 110.148 331.749 109.778 331.779 109.408C331.749 109.768 331.719 110.148 331.689 110.518Z" fill="#E8CA76"/>
</g>
<g style="mix-blend-mode:multiply" opacity="0.3">
<path d="M331.43 114.468C331.46 113.858 331.5 113.268 331.53 112.668C331.49 113.268 331.46 113.858 331.43 114.468Z" fill="#E8CA76"/>
</g>
<path d="M402.3 74.538C398.38 76.518 394.57 78.708 390.87 81.068C386.55 83.828 382.17 87.148 380.46 91.988C379.69 94.158 379.53 96.488 379.25 98.768C378.45 105.348 376.65 111.798 373.92 117.838C373.35 119.098 372.68 120.408 371.48 121.088C369.71 122.088 367.49 121.348 365.65 120.468C358.02 116.818 351.47 110.958 346.99 103.778C346.45 102.908 345.64 101.888 344.65 102.128C343.76 102.338 343.43 103.418 343.35 104.328C342.67 111.808 348.05 118.248 351.56 124.888C351.89 125.508 352.21 126.258 351.9 126.888C351.72 127.268 351.35 127.518 350.98 127.718C345.97 130.478 339.36 127.158 336.54 122.188C333.72 117.218 333.66 111.198 333.68 105.478C333.69 102.418 333.7 99.348 333.71 96.288C333.6 96.808 333.49 97.338 333.39 97.868C333.35 98.068 333.31 98.268 333.27 98.468C333.18 98.958 333.09 99.448 333 99.948C332.95 100.208 332.91 100.458 332.87 100.728C332.79 101.208 332.71 101.698 332.64 102.188C332.6 102.478 332.55 102.768 332.51 103.068C332.44 103.548 332.37 104.028 332.31 104.518C332.27 104.838 332.23 105.158 332.19 105.478C332.13 105.958 332.07 106.448 332.02 106.928C331.98 107.268 331.95 107.608 331.92 107.958C331.87 108.448 331.82 108.928 331.78 109.418C331.75 109.778 331.72 110.158 331.69 110.528C331.63 111.238 331.58 111.948 331.54 112.678C331.5 113.278 331.47 113.868 331.44 114.478C331.42 114.888 331.41 115.298 331.39 115.708C331.37 116.198 331.35 116.698 331.34 117.198C331.33 117.618 331.32 118.038 331.31 118.458C331.31 118.968 331.29 119.468 331.29 119.988C331.29 120.408 331.29 120.828 331.29 121.258C331.29 121.788 331.29 122.308 331.29 122.848C331.29 123.268 331.3 123.688 331.31 124.108C331.32 124.658 331.34 125.208 331.35 125.768C331.36 126.178 331.38 126.598 331.39 127.008C331.41 127.588 331.44 128.178 331.47 128.768C331.49 129.158 331.51 129.558 331.53 129.948C331.57 130.608 331.62 131.278 331.67 131.938C331.69 132.268 331.71 132.598 331.74 132.928C331.82 133.928 331.91 134.938 332.01 135.958C332.32 139.048 334.68 141.538 337.74 142.048C348.79 143.868 374.34 147.498 379.82 143.108C384.46 139.398 386.68 113.738 385.99 95.088C390.83 87.758 401.59 81.238 408.26 77.688L406.58 72.598C405.12 73.168 403.68 73.848 402.29 74.558L402.3 74.538Z" fill="#E8CA76"/>
<g style="mix-blend-mode:multiply" opacity="0.3">
<path d="M402.3 74.538C398.38 76.518 394.57 78.708 390.87 81.068C386.55 83.828 382.17 87.148 380.46 91.988C379.69 94.158 379.53 96.488 379.25 98.768C378.45 105.348 376.65 111.798 373.92 117.838C373.35 119.098 372.68 120.408 371.48 121.088C369.71 122.088 367.49 121.348 365.65 120.468C358.02 116.818 351.47 110.958 346.99 103.778C346.45 102.908 345.64 101.888 344.65 102.128C343.76 102.338 343.43 103.418 343.35 104.328C342.67 111.808 348.05 118.248 351.56 124.888C351.89 125.508 352.21 126.258 351.9 126.888C351.72 127.268 351.35 127.518 350.98 127.718C345.97 130.478 339.36 127.158 336.54 122.188C333.72 117.218 333.66 111.198 333.68 105.478C333.69 102.418 333.7 99.348 333.71 96.288C333.6 96.808 333.49 97.338 333.39 97.868C333.35 98.068 333.31 98.268 333.27 98.468C333.18 98.958 333.09 99.448 333 99.948C332.95 100.208 332.91 100.458 332.87 100.728C332.79 101.208 332.71 101.698 332.64 102.188C332.6 102.478 332.55 102.768 332.51 103.068C332.44 103.548 332.37 104.028 332.31 104.518C332.27 104.838 332.23 105.158 332.19 105.478C332.13 105.958 332.07 106.448 332.02 106.928C331.98 107.268 331.95 107.608 331.92 107.958C331.87 108.448 331.82 108.928 331.78 109.418C331.75 109.778 331.72 110.158 331.69 110.528C331.63 111.238 331.58 111.948 331.54 112.678C331.5 113.278 331.47 113.868 331.44 114.478C331.42 114.888 331.41 115.298 331.39 115.708C331.37 116.198 331.35 116.698 331.34 117.198C331.33 117.618 331.32 118.038 331.31 118.458C331.31 118.968 331.29 119.468 331.29 119.988C331.29 120.408 331.29 120.828 331.29 121.258C331.29 121.788 331.29 122.308 331.29 122.848C331.29 123.268 331.3 123.688 331.31 124.108C331.32 124.658 331.34 125.208 331.35 125.768C331.36 126.178 331.38 126.598 331.39 127.008C331.41 127.588 331.44 128.178 331.47 128.768C331.49 129.158 331.51 129.558 331.53 129.948C331.57 130.608 331.62 131.278 331.67 131.938C331.69 132.268 331.71 132.598 331.74 132.928C331.82 133.928 331.91 134.938 332.01 135.958C332.32 139.048 334.68 141.538 337.74 142.048C348.79 143.868 374.34 147.498 379.82 143.108C384.46 139.398 386.68 113.738 385.99 95.088C390.83 87.758 401.59 81.238 408.26 77.688L406.58 72.598C405.12 73.168 403.68 73.848 402.29 74.558L402.3 74.538Z" fill="#E8CA76"/>
</g>
<path d="M293.17 119.278L281.38 119.918L282.44 128.518C282.44 128.518 298.89 129.928 299.41 126.718" fill="#EABC96"/>
<path d="M294.139 130.948C294.139 130.948 295.79 110.648 295.66 110.188C295.53 109.728 286.949 107.798 282.729 110.638L284.329 131.278C284.329 131.278 289.999 133.318 294.149 130.948H294.139Z" fill="#202C44"/>
<path d="M290.47 118.078C290.47 119.678 289.17 120.968 287.57 120.968C285.97 120.968 284.67 119.668 284.67 118.078C284.67 116.488 285.97 115.178 287.57 115.178C289.17 115.178 290.47 116.478 290.47 118.078Z" fill="#E55853"/>
<path d="M282.19 110.238L282.28 111.128C282.28 111.128 283.96 112.248 288.6 112.058C293.24 111.868 295.97 110.568 295.97 110.568L296.09 109.728L295.46 109.428L295.34 108.638C295.34 108.638 293.05 107.588 288.76 107.938C284.47 108.288 282.97 109.288 282.97 109.288V109.988L282.18 110.248L282.19 110.238Z" fill="white"/>
<path d="M288.12 109.138L288.28 98.818L290.37 89.288L291.61 89.598L289.36 99.128L289.6 109.138H288.12Z" fill="#679B9B"/>
<path d="M297.199 116.828C297.199 116.828 286.149 115.658 286.369 117.568C286.579 119.478 293.799 120.538 294.439 121.708C295.079 122.878 295.389 126.568 299.219 126.908C302.079 127.168 303.889 121.598 303.569 118.838C303.249 116.078 297.199 116.818 297.199 116.818V116.828Z" fill="#EABC96"/>
<path d="M283.85 120.028L281.37 119.908C281.37 119.908 280.41 120.858 281.63 122.158C282.85 123.458 285.49 122.238 285.4 121.488C285.32 120.738 284.54 119.988 283.85 120.018V120.028Z" fill="#EABC96"/>
<path d="M283.85 122.408L281.37 122.288C281.37 122.288 280.41 123.238 281.63 124.538C282.85 125.838 285.49 124.618 285.4 123.868C285.32 123.118 284.54 122.368 283.85 122.398V122.408Z" fill="#EABC96"/>
<path d="M283.85 124.798L281.37 124.678C281.37 124.678 280.41 125.628 281.63 126.928C282.85 128.228 285.49 127.008 285.4 126.258C285.32 125.508 284.54 124.758 283.85 124.788V124.798Z" fill="#EABC96"/>
<path d="M283.85 127.178L281.37 127.058C281.37 127.058 280.41 128.008 281.63 129.308C282.85 130.608 285.49 129.388 285.4 128.638C285.32 127.888 284.54 127.138 283.85 127.168V127.178Z" fill="#EABC96"/>
<path d="M354.409 71.278L354.009 74.958C353.879 76.118 353.919 77.288 354.179 78.418C354.529 79.958 355.319 81.708 357.099 82.118C360.419 82.878 366.569 76.778 366.769 70.988C366.969 65.188 354.419 71.278 354.419 71.278H354.409Z" fill="#EABC96"/>
<g style="mix-blend-mode:multiply" opacity="0.4">
<path d="M366.769 70.988C366.969 65.188 354.419 71.278 354.419 71.278L354.019 74.958C353.959 75.468 353.949 75.978 353.959 76.498C354.249 76.908 354.609 77.278 355.019 77.568C356.279 78.468 357.929 78.718 359.439 78.438C360.959 78.158 362.349 77.368 363.519 76.358C364.659 75.378 365.609 74.188 366.489 72.968C366.649 72.308 366.759 71.648 366.779 70.988H366.769Z" fill="#EABC96"/>
</g>
<path d="M347.279 43.958C347.279 43.958 343.979 66.248 349.729 70.158C355.479 74.068 367.099 76.468 371.129 67.088C375.159 57.708 374.849 51.958 374.849 51.958L370.629 37.548L356.689 36.668L347.419 37.518L347.079 40.568L347.269 43.958H347.279Z" fill="#EABC96"/>
<g style="mix-blend-mode:multiply" opacity="0.2">
<path d="M360.26 37.6479C357.86 37.3679 355.45 36.9779 353.03 37.0279C352.86 37.0279 352.69 37.0379 352.52 37.0479L350.95 37.1879C349.69 37.3679 348.47 37.7079 347.34 38.2579L347.09 40.5679L347.28 43.9579C347.28 43.9579 347.16 44.7679 347.01 46.1079C348.23 46.0279 349.24 44.9979 349.23 43.6979C350.9 44.8579 353.3 44.8579 354.95 43.6679C355.15 43.5179 355.37 43.4079 355.62 43.3779C356.22 43.3079 356.32 43.7179 356.52 44.0279C357.63 45.7079 361.15 43.9079 361.77 46.1679C361.86 46.5079 361.84 46.8679 361.77 47.2079C361.12 49.9879 361.02 52.8979 361.47 55.7179C361.53 56.0679 361.59 56.4179 361.76 56.7279C362.24 57.6379 363.39 57.9279 364.42 58.0279C365.86 58.1679 367.48 58.1779 368.11 59.9879C368.31 60.5679 368.34 61.1879 368.24 61.7879C367.68 65.2579 365.37 68.8979 361.87 69.6979C359.71 70.1879 357.46 69.5479 355.41 68.7079C352.85 67.6579 350.29 66.1579 348.97 63.7279C348.75 63.3279 348.56 62.8979 348.23 62.5779C347.9 62.2679 347.36 62.1079 346.98 62.3679C346.85 62.4579 346.75 62.5779 346.68 62.7179C347.11 66.1279 348.02 68.9779 349.75 70.1579C355.5 74.0679 367.12 76.4679 371.15 67.0879C375.18 57.6979 374.87 51.9579 374.87 51.9579L371.15 39.2579C370.54 39.0779 369.93 38.9279 369.31 38.7979C366.34 38.1679 363.29 37.9979 360.27 37.6579L360.26 37.6479Z" fill="#EABC96"/>
</g>
<g style="mix-blend-mode:multiply">
<path d="M355.619 48.988C355.619 48.988 350.689 59.7679 351.589 60.8979C352.489 62.0279 355.019 60.3379 355.019 60.3379C355.019 60.3379 356.339 61.978 356.719 56.778C357.109 51.578 356.909 47.438 355.609 48.978L355.619 48.988Z" fill="#EABC96"/>
</g>
<path d="M372.43 50.158C372.43 50.158 372.43 59.308 374.44 56.288C376.45 53.268 376.95 45.228 376.95 45.228C376.95 45.228 378.56 45.528 379.66 44.428C380.77 43.318 379.36 39.908 379.36 39.908C379.36 39.908 382.38 38.698 382.68 36.088C382.98 33.478 378.76 32.368 378.76 32.368C378.76 32.368 380.27 26.738 377.96 25.028C375.65 23.318 374.24 25.928 374.24 25.928C374.24 25.928 375.65 20.098 372.93 19.098C370.22 18.088 368.41 21.508 368.41 21.508C368.41 21.508 368.01 17.788 365.5 17.388C362.99 16.988 362.38 21.208 362.38 21.208C362.38 21.208 360.67 16.288 355.14 17.088C349.61 17.888 351.82 23.118 351.82 23.118C351.82 23.118 349.01 19.998 346.79 21.708C344.58 23.418 346.49 26.528 346.49 26.528C346.49 26.528 342.87 24.618 341.87 27.638C340.86 30.658 344.38 31.758 344.38 31.758C344.38 31.758 340.56 31.558 341.06 34.668C341.56 37.788 344.98 37.478 344.98 37.478C344.98 37.478 346.19 37.778 346.19 38.888C346.19 39.998 345.59 48.838 346.29 49.238C346.99 49.638 349.2 39.388 349.2 39.388C349.32 40.428 350.72 41.058 351.76 40.918C352.8 40.778 353.66 40.078 354.35 39.298C354.49 40.468 355.88 41.138 357.04 40.958C358.2 40.778 359.17 39.988 360.07 39.238C361.44 41.098 364.51 41.358 366.17 39.748C365.95 40.028 366.03 40.468 366.27 40.738C366.51 41.008 366.85 41.158 367.19 41.278C368.23 41.648 369.33 41.858 370.43 41.918C370.98 41.948 371.69 41.828 371.82 41.288C370.78 42.408 370.72 44.308 371.69 45.498C371.25 46.818 371.67 48.988 372.42 50.158H372.43Z" fill="#456190"/>
<g style="mix-blend-mode:multiply" opacity="0.3">
<path d="M382.68 36.0879C382.98 33.4779 378.76 32.3679 378.76 32.3679C378.76 32.3679 380.27 26.7379 377.96 25.0279C377.81 24.9179 377.66 24.8279 377.51 24.7479C377.11 25.0279 376.78 25.3979 376.6 25.8779C376.77 27.1379 376.69 28.4379 376.36 29.6679C376.27 30.0179 376.14 30.3879 375.87 30.6279C375.59 30.8679 375.12 30.9179 374.89 30.6279C374.67 32.5679 373.67 34.5179 371.92 35.3879C370.17 36.2579 367.69 35.6579 366.91 33.8679C366.28 35.5679 364.3 36.5279 362.5 36.3179C360.7 36.1079 359.12 34.9279 358.06 33.4579C358.32 34.7879 357.44 36.1779 356.2 36.7079C354.96 37.2379 353.47 36.9879 352.33 36.2579C351.19 35.5279 350.39 34.3679 349.86 33.1279C349.78 34.2779 348.73 35.1979 347.59 35.3779C346.45 35.5579 345.3 35.1279 344.36 34.4679C343.78 34.0579 343.25 33.5379 342.9 32.9179C342.75 32.6479 342.68 32.3279 342.61 32.0179C341.69 32.3479 340.8 33.0679 341.06 34.6679C341.56 37.7879 344.98 37.4779 344.98 37.4779C344.98 37.4779 346.19 37.7779 346.19 38.8879C346.19 39.9979 345.59 48.8379 346.29 49.2379C346.99 49.6379 349.2 39.3879 349.2 39.3879C349.32 40.4279 350.72 41.0579 351.76 40.9179C352.8 40.7779 353.66 40.0779 354.35 39.2979C354.49 40.4679 355.88 41.1379 357.04 40.9579C358.2 40.7779 359.17 39.9879 360.07 39.2379C361.44 41.0979 364.51 41.3579 366.17 39.7479C365.95 40.0279 366.03 40.4679 366.27 40.7379C366.5 41.0079 366.85 41.1579 367.19 41.2779C368.23 41.6479 369.33 41.8579 370.43 41.9179C370.81 41.9379 371.24 41.8779 371.53 41.6779C370.79 42.8179 370.83 44.4379 371.69 45.4979C371.25 46.8179 371.67 48.9879 372.42 50.1579C372.42 50.1579 372.42 59.3079 374.43 56.2879C376.44 53.2679 376.94 45.2279 376.94 45.2279C376.94 45.2279 378.55 45.5279 379.65 44.4279C380.76 43.3179 379.35 39.9079 379.35 39.9079C379.35 39.9079 382.37 38.6979 382.67 36.0879H382.68Z" fill="#456190"/>
</g>
<path d="M340.59 43.5179C340.59 43.5179 341.71 55.4379 342.16 55.5779C342.61 55.7179 350.49 57.3379 351.17 57.0379C351.86 56.7379 354.85 51.6379 355.68 51.8179C356.5 52.0079 358.2 57.8279 358.84 57.9779C359.48 58.1279 371.71 58.4479 372.5 58.0679C373.29 57.6879 373.64 44.3379 372.85 43.8779C372.06 43.4179 341.36 42.4679 340.59 43.5079V43.5179Z" fill="white"/>
<path d="M356.89 45.5479L356.85 49.1079C356.83 50.2979 357.06 51.4878 357.52 52.5878C358.38 54.6078 359.53 56.3178 359.93 56.3978C360.96 56.6078 370.36 56.5179 371.08 56.2179C371.8 55.9279 372.21 46.2379 371.49 45.9679C370.77 45.6979 357.35 45.0379 356.89 45.5479Z" fill="#AF333F"/>
<path d="M342.22 44.8979C342.22 44.8979 342.79 54.1479 343.31 54.5679C343.83 54.9879 350.01 55.7779 350.43 55.3479C350.85 54.9179 353.54 50.9178 353.8 50.2878C354.06 49.6578 353.84 45.6579 353.84 45.6579C353.84 45.6579 344.81 44.3379 342.22 44.8879V44.8979Z" fill="#456190"/>
<path d="M357.4 65.548C357.4 66.838 356.66 67.888 355.74 67.888C354.82 67.888 354.08 66.838 354.08 65.548C354.08 64.258 354.82 63.208 355.74 63.208C356.66 63.208 357.4 64.258 357.4 65.548Z" fill="#AF333F"/>
<path d="M350.98 223.358C350.98 223.358 344.09 157.218 358.01 141.308C371.93 125.398 412.89 121.028 412.89 121.028L428.8 123.148L412.5 205.328L364.92 227.728L351 223.358H350.98Z" fill="#202C44"/>
<path d="M364.9 227.728C364.9 227.728 359.99 159.328 373.91 143.428C387.83 127.518 428.79 123.148 428.79 123.148L428.39 207.448L364.91 227.728H364.9Z" fill="#304360"/>
<path d="M435.64 216.818L359.67 205.908C359.67 205.908 354.38 171.738 370.98 165.508C387.59 159.278 420.81 154.238 420.81 154.238L488.73 166.988L471.61 209.568L435.63 216.818H435.64Z" fill="#E55853"/>
<path d="M214.989 124.128C214.989 124.128 208.759 125.488 207.859 124.138C206.959 122.788 205.799 118.408 205.989 117.708C206.179 117.008 208.089 117.168 208.089 117.168C208.089 117.168 207.719 115.208 208.639 115.308C209.559 115.408 211.949 116.328 212.239 116.988C212.529 117.638 215.329 118.558 215.329 118.558L214.989 124.118V124.128Z" fill="#EABC96"/>
<path d="M233.409 81.678C233.409 81.678 236.659 80.448 239.949 91.558C244.499 106.928 245.469 119.008 244.439 120.678C243.409 122.348 245.569 128.528 213.249 124.558L214.229 117.898C214.229 117.898 233.529 115.808 234.819 114.648C234.819 114.648 232.509 82.968 233.409 81.688V81.678Z" fill="#D291BC"/>
<g style="mix-blend-mode:multiply" opacity="0.3">
<path d="M244.439 120.668C244.799 120.078 244.909 118.198 244.699 115.338C244.369 115.608 244.069 116.008 243.819 116.528C242.819 118.618 240.749 120.048 238.539 120.778C236.339 121.508 233.989 121.638 231.669 121.738C223.839 122.068 221.999 122.168 214.159 121.988C213.959 121.988 213.749 121.988 213.549 122.008L213.249 124.548C245.569 128.528 243.409 122.338 244.439 120.668Z" fill="#D291BC"/>
</g>
<path d="M99.2399 199.138C99.2399 199.138 97.4499 144.018 105.15 142.228C112.85 140.448 147.79 142.048 148.69 144.188C149.59 146.328 147.79 190.748 147.79 190.748L134.97 206.978L99.2399 199.128V199.138Z" fill="#AF333F"/>
<path d="M51.1297 240.708C51.1297 240.708 46.9697 200.928 55.3697 191.358C63.7797 181.788 88.5197 179.158 88.5197 179.158L98.1297 180.438L88.2797 229.868L59.5397 243.338L51.1297 240.708Z" fill="#202C44"/>
<path d="M59.5401 243.338C59.5401 243.338 56.5701 202.198 64.9801 192.638C73.3901 183.068 98.1301 180.438 98.1301 180.438L97.8901 231.138L59.5401 243.338Z" fill="#304360"/>
<path d="M93.3092 199.138C93.3092 199.138 91.5192 144.018 99.2192 142.228C106.919 140.448 141.859 142.048 142.759 144.188C143.659 146.328 141.859 190.748 141.859 190.748L129.039 206.978L93.3092 199.128V199.138Z" fill="#E55853"/>
<path d="M102.27 236.778L55.5099 223.578C55.5099 223.578 53.1799 209.658 63.2099 205.918C73.2399 202.168 93.3099 199.138 93.3099 199.138L134.34 206.808L124 232.418L102.27 236.778Z" fill="#E55853"/>
<path d="M98.1298 200.198C98.1298 200.198 95.4698 156.388 101.64 148.948C101.64 148.948 115.24 145.588 135.71 149.638C135.71 149.638 131.95 175.258 134.04 205.908L98.1298 200.198Z" fill="#AF333F"/>
<path d="M101.639 236.778C101.639 236.778 99.0393 218.778 118.069 217.958C137.099 217.138 119.889 232.768 119.889 232.768L101.639 236.778Z" fill="#AF333F"/>
<path d="M98.1299 200.198C98.1299 200.198 88.3199 202.498 77.2599 205.158C64.2999 208.258 60.6199 211.628 60.4199 221.048C60.4199 221.048 84.2899 228.698 93.2799 229.958C94.4299 230.118 95.4999 229.358 95.7499 228.228C96.2399 225.928 97.3399 222.128 99.4599 220.268C104.8 215.558 112.2 209.918 125.92 204.208" fill="#AF333F"/>
<path d="M103.959 162.378L109.979 178.118L100.069 194.208L101.669 196.508L111.209 182.888L121.289 198.978L123.939 196.678L115.279 179.878L130.659 162.378L127.479 159.728L113.869 174.928L106.259 159.198L103.959 162.378Z" fill="white"/>
<path d="M162.04 212.758C162.04 212.758 159.91 146.948 169.07 144.818C178.23 142.688 219.76 144.608 220.83 147.158C221.89 149.718 219.77 202.748 219.77 202.748L204.53 222.128L162.05 212.758H162.04Z" fill="#AF333F"/>
<path d="M104.849 262.388C104.849 262.388 99.8994 214.888 109.889 203.468C119.879 192.048 149.299 188.908 149.299 188.908L160.719 190.428L149.009 249.438L114.839 265.528L104.839 262.388H104.849Z" fill="#202C44"/>
<path d="M114.85 265.528C114.85 265.528 111.32 216.418 121.32 204.988C131.31 193.568 160.73 190.428 160.73 190.428L160.44 250.968L114.85 265.528Z" fill="#304360"/>
<path d="M154.99 212.758C154.99 212.758 152.86 146.948 162.02 144.818C171.18 142.688 212.71 144.608 213.78 147.158C214.84 149.718 212.72 202.748 212.72 202.748L197.48 222.128L155 212.758H154.99Z" fill="#E55853"/>
<path d="M165.639 257.698L110.049 241.938C110.049 241.938 107.279 225.328 119.209 220.848C131.139 216.368 154.989 212.758 154.989 212.758L203.759 221.918L191.469 252.498L165.639 257.698Z" fill="#E55853"/>
<path d="M160.719 214.018C160.719 214.018 157.559 161.718 164.889 152.838C164.889 152.838 181.059 148.828 205.389 153.668C205.389 153.668 200.919 184.258 203.409 220.848L160.719 214.028V214.018Z" fill="#AF333F"/>
<path d="M164.889 257.698C164.889 257.698 161.799 236.208 184.419 235.228C207.039 234.248 186.589 252.908 186.589 252.908L164.889 257.698Z" fill="#AF333F"/>
<path d="M160.72 214.018C160.72 214.018 149.06 216.768 135.9 219.938C120.5 223.648 116.12 227.668 115.89 238.908C115.89 238.908 144.27 248.048 154.96 249.538C156.33 249.728 157.6 248.818 157.89 247.468C158.48 244.718 159.78 240.188 162.3 237.958C168.64 232.338 177.45 225.598 193.76 218.788" fill="#AF333F"/>
<path d="M131.32 274.418C131.32 274.418 128.91 276.858 125.55 278.968C121.1 281.768 114.92 282.628 115.88 284.048C117.55 286.498 126.91 286.848 134.45 282.498C134.63 282.398 139.79 283.328 141.53 280.828C141.53 280.828 141.06 276.368 141.56 272.758C142.06 269.148 131.3 274.408 131.3 274.408L131.32 274.418Z" fill="#456190"/>
<path d="M77.2795 267.958C77.2795 267.958 74.0795 269.178 70.1395 269.688C64.9195 270.368 58.5095 269.788 58.7995 271.478C59.2895 274.398 68.0995 277.418 76.7695 276.608C76.9695 276.588 81.2695 279.588 83.8995 278.048C83.8995 278.048 87.1895 274.808 89.1595 271.738C91.1195 268.668 77.2795 267.948 77.2795 267.948V267.958Z" fill="#456190"/>
<path d="M180.2 209.778C180.2 209.778 178.31 221.548 165.35 228.188C159.86 230.998 137.78 234.108 119.58 248.048C101.38 261.988 86.9198 275.188 86.9198 275.188L76.2598 267.848C76.2598 267.848 108.78 233.208 114.09 228.928C119.4 224.638 150.15 205.608 150.15 205.608C150.15 205.608 163.12 198.438 180.2 209.778Z" fill="white"/>
<g style="mix-blend-mode:multiply" opacity="0.3">
<path d="M86.9098 275.188C86.9098 275.188 101.37 261.998 119.57 248.048C137.77 234.108 159.84 230.998 165.34 228.188C178.3 221.548 180.19 209.778 180.19 209.778C171.17 203.788 162.06 203.468 155.47 204.498C155.45 204.738 155.44 204.978 155.46 205.228C155.57 206.628 156.37 207.858 157.12 209.048C159.05 212.058 160.92 215.648 159.82 219.048C158.85 222.038 155.87 223.848 153 225.128C145.07 228.658 135.54 225.308 128.22 229.968C123.64 232.888 120.56 241.738 116.71 245.578C111.36 250.918 105.69 255.938 100.03 260.958C97.4198 263.268 94.7398 265.628 91.4898 266.888C90.5098 267.268 89.3798 267.538 88.4198 267.108C87.7898 266.828 87.3198 266.278 86.7298 265.918C86.1598 265.568 85.4798 265.398 84.8198 265.448C83.8198 265.518 82.9198 266.028 81.9998 266.408C81.0798 266.798 79.9998 267.048 79.1098 266.618C78.7398 266.438 78.4598 266.088 78.3098 265.698C77.0198 267.068 76.2598 267.878 76.2598 267.878L86.9198 275.218L86.9098 275.188Z" fill="#456190"/>
</g>
<path d="M180.869 211.388C180.869 211.388 134.269 217.908 131.289 222.128C128.309 226.348 130.159 273.858 130.439 275.188C130.439 275.188 139.089 276.408 141.499 275.188C141.499 275.188 144.739 243.608 145.169 237.858C145.169 237.858 181.779 237.578 185.579 223.648C190.269 206.478 180.879 211.388 180.879 211.388H180.869Z" fill="white"/>
<g style="mix-blend-mode:multiply" opacity="0.3">
<path d="M184.209 210.818C183.509 211.908 183.039 213.238 182.429 214.318C180.099 218.468 177.259 222.518 173.149 225.078C170.019 227.028 166.349 227.978 162.699 228.488C159.869 228.888 157.019 229.038 154.159 229.198C152.299 229.298 150.389 229.398 148.609 228.828C146.839 228.258 145.199 226.858 144.899 225.018C145.089 226.208 145.279 227.408 145.469 228.598C145.539 229.038 145.529 229.628 145.099 229.768C144.829 229.858 144.539 229.688 144.299 229.528C142.759 228.498 141.219 227.458 139.689 226.428C140.049 228.168 141.129 229.748 142.619 230.718C142.729 231.538 141.379 231.568 140.699 231.088C140.019 230.608 139.039 229.998 138.499 230.628C137.949 231.268 138.779 232.198 139.579 232.448C140.379 232.698 141.389 232.838 141.699 233.618C142.359 235.288 138.919 235.978 138.829 237.778C139.419 237.918 140.059 237.848 140.599 237.588C141.039 241.778 141.469 246.008 140.939 250.188C140.409 254.368 138.789 258.538 135.689 261.398C134.899 262.118 133.959 262.888 133.899 263.948C133.839 265.018 135.499 265.888 135.949 264.918C137.139 266.238 136.269 268.478 134.799 269.478C133.439 270.418 131.749 270.688 130.179 271.228C130.279 273.518 130.369 274.968 130.419 275.188C130.419 275.188 139.069 276.408 141.479 275.188C141.479 275.188 144.719 243.608 145.149 237.858C145.149 237.858 181.759 237.578 185.559 223.648C188.229 213.858 186.329 211.248 184.199 210.808L184.209 210.818Z" fill="#456190"/>
</g>
<path d="M182.71 151.608L178.44 151.008L168.38 153.448L155.52 203.368C155.52 203.368 165.32 208.458 173.6 206.978C181.88 205.498 187.57 158.378 187.57 158.378L182.72 151.598L182.71 151.608Z" fill="#F5D6D4"/>
<g style="mix-blend-mode:multiply" opacity="0.3">
<path d="M182.71 151.608L180.36 151.278C180.15 151.888 180.08 152.568 180.02 153.208C179.34 160.608 177.81 167.918 175.45 174.968C175.19 175.738 174.91 176.528 174.34 177.108C173.77 177.688 172.84 177.998 172.13 177.618C171.12 177.068 171.04 175.508 170.04 174.958C168.92 179.248 171.36 183.878 170.2 188.168C170.06 188.708 169.68 189.338 169.13 189.238C168.86 189.188 168.66 188.978 168.48 188.768C166.99 187.008 165.88 184.928 165.23 182.718C164.72 180.988 164.25 178.898 162.57 178.268C161.63 183.638 163.19 189.078 164.25 194.418C164.37 195.018 164.43 195.768 163.92 196.108C162.74 196.898 160.37 194.448 159.18 194.158C158.74 194.048 158.31 194.018 157.91 194.038L155.51 203.368C155.51 203.368 165.31 208.458 173.59 206.978C181.87 205.498 187.56 158.378 187.56 158.378L182.71 151.598V151.608Z" fill="#F5D6D4"/>
</g>
<path d="M205.129 212.328C205.129 212.328 212.539 200.298 206.509 175.158C200.929 151.878 183.429 152.758 183.429 152.758C183.429 152.758 172.529 207.758 172.749 212.328C172.979 216.898 190.659 215.788 193.089 213.658C195.519 211.528 205.129 212.328 205.129 212.328Z" fill="#AACFCF"/>
<g style="mix-blend-mode:multiply" opacity="0.2">
<path d="M206.51 175.158C204.22 165.598 199.92 160.118 195.64 156.978C195.3 157.138 194.98 157.338 194.71 157.598C193.74 158.508 193.46 159.968 193.64 161.288C194.07 164.488 196.7 166.858 198.32 169.648C201.72 175.508 200.45 183.068 197.34 189.078C196.46 190.778 195.42 192.428 194.03 193.748C191.98 195.688 189.3 196.788 186.62 197.648C184.08 198.468 181.49 199.108 178.87 199.578C177.18 199.878 175.68 200.328 174.36 200.928C173.35 206.808 172.7 211.178 172.76 212.328C172.99 216.898 190.67 215.788 193.1 213.658C195.53 211.528 205.14 212.328 205.14 212.328C205.14 212.328 212.55 200.298 206.52 175.158H206.51Z" fill="#AACFCF"/>
</g>
<path d="M154.509 173.038C154.559 172.948 145.629 181.518 139.589 183.658C133.559 185.788 125.649 190.078 123.629 190.258C121.609 190.438 120.589 193.608 122.309 195.608C124.029 197.598 124.539 199.508 125.249 200.408C125.959 201.318 126.759 201.848 136.769 199.788C145.639 197.958 151.269 196.328 155.119 192.348C158.969 188.358 154.509 173.048 154.509 173.048V173.038Z" fill="#679B9B"/>
<g style="mix-blend-mode:multiply" opacity="0.2">
<path d="M155.12 192.338C158.97 188.348 154.51 173.038 154.51 173.038C154.53 172.998 153.13 174.328 151.08 176.068C151 178.398 151.17 180.748 150.55 183.008C149.76 185.868 147.59 188.318 144.84 189.448C143.57 189.968 142.1 190.278 141.27 191.368C140.98 191.748 140.79 192.198 140.52 192.588C139.74 193.698 138.35 194.238 136.99 194.378C135.64 194.518 134.27 194.328 132.91 194.318C132.27 194.318 131.61 194.348 131.02 194.578C130.13 194.928 129.45 195.678 128.55 195.988C127.32 196.418 125.83 195.988 124.77 196.738C124.34 197.048 124.08 197.488 123.93 197.988C124.48 199.008 124.83 199.878 125.24 200.398C125.95 201.308 126.75 201.838 136.76 199.778C145.63 197.948 151.26 196.318 155.11 192.338H155.12Z" fill="#679B9B"/>
</g>
<path d="M168.389 153.458C168.389 153.458 157.349 206.118 155.419 206.568C153.499 207.018 147.729 198.688 147.829 196.058C147.929 193.428 151.679 190.078 152.889 184.548C154.079 179.138 154.259 157.318 164.439 154.958C164.879 154.858 165.309 154.748 165.729 154.578L168.399 153.458H168.389Z" fill="#AACFCF"/>
<g style="mix-blend-mode:multiply" opacity="0.2">
<path d="M166.389 154.298C166.329 154.368 166.259 154.438 166.199 154.508C165.249 155.688 164.719 157.158 163.829 158.388C162.789 159.828 161.319 160.908 160.219 162.298C157.399 165.868 157.459 170.868 157.929 175.388C158.399 179.908 159.129 184.688 157.289 188.848C156.559 190.508 155.309 192.078 153.549 192.528C152.189 192.878 150.849 192.488 149.609 191.938C148.659 193.538 147.869 194.868 147.829 196.048C147.729 198.678 153.499 207.008 155.419 206.558C157.339 206.108 168.389 153.448 168.389 153.448L166.389 154.288V154.298Z" fill="#AACFCF"/>
</g>
<path d="M167.679 153.548C167.459 153.638 167.279 153.798 167.219 154.018C166.389 156.778 160.949 174.798 160.539 176.338C160.099 178.008 157.529 193.278 156.679 195.258C155.829 197.248 153.449 204.388 153.569 205.628C153.689 206.868 156.459 208.138 156.679 208.138C156.899 208.138 163.289 182.698 163.289 181.658C163.289 180.618 171.559 152.928 171.559 151.868C171.559 150.878 169.279 152.908 167.679 153.538V153.548Z" fill="#E8CA76"/>
<path d="M182.219 150.548C182.219 150.548 176.709 173.798 175.019 184.688C173.329 195.578 170.669 213.708 171.289 214.188C171.909 214.668 174.919 215.418 175.189 214.608C175.459 213.798 179.369 174.278 179.999 173.328C180.629 172.378 186.779 153.308 186.639 153.058C186.569 152.938 185.229 152.468 184.139 151.768C183.099 151.108 182.299 150.188 182.229 150.558L182.219 150.548Z" fill="#E8CA76"/>
<path d="M172.34 150.858L171.17 153.778C170.8 154.698 170.57 155.668 170.52 156.658C170.46 157.998 170.71 159.618 172.07 160.358C174.62 161.738 181.04 158.138 182.52 153.428C184 148.718 172.33 150.858 172.33 150.858H172.34Z" fill="#EABC96"/>
<g style="mix-blend-mode:multiply" opacity="0.4">
<path d="M182.53 153.428C184.01 148.728 172.34 150.858 172.34 150.858L171.17 153.778C171.01 154.188 170.88 154.598 170.77 155.028C170.92 155.428 171.13 155.818 171.4 156.148C172.22 157.168 173.52 157.758 174.83 157.868C176.14 157.978 177.46 157.648 178.65 157.088C179.81 156.548 180.85 155.788 181.85 154.988C182.13 154.488 182.37 153.968 182.54 153.428H182.53Z" fill="#EABC96"/>
</g>
<path d="M207.059 117.868C206.449 116.638 205.199 115.788 204.699 114.498C203.879 112.378 205.419 110.128 205.719 107.878C205.969 106.008 205.279 104.038 203.929 102.718C203.659 102.458 203.349 102.198 203.259 101.828C203.169 101.488 203.289 101.128 203.399 100.788C204.269 97.9579 203.819 94.7579 202.219 92.2779C201.209 90.7079 199.709 89.4079 197.919 88.8779C196.129 88.3579 194.039 88.6979 192.689 89.9879C192.079 90.5679 191.629 91.3079 191.309 92.0879C190.799 93.3379 190.609 94.7079 190.749 96.0479C190.869 97.1779 191.169 98.4879 190.389 99.3179C189.709 100.038 188.539 99.9679 187.669 100.448C186.779 100.938 186.269 102.048 186.489 103.038C186.569 103.408 186.749 103.788 186.659 104.158C186.539 104.658 186.009 104.938 185.539 105.148C183.779 105.958 181.969 107.108 181.369 108.938C180.959 110.168 181.169 111.548 181.739 112.708C182.309 113.868 183.209 114.848 184.189 115.688C186.049 117.298 188.199 118.488 190.269 119.788C192.409 121.138 194.159 122.658 195.939 124.438C198.989 127.488 202.319 127.238 205.349 124.188C206.909 122.618 208.129 120.008 207.069 117.838L207.059 117.868Z" fill="#FF9A76"/>
<g style="mix-blend-mode:multiply" opacity="0.3">
<path d="M204.699 114.498C203.879 112.378 205.419 110.128 205.719 107.878C205.969 106.008 205.279 104.038 203.929 102.718C203.659 102.458 203.349 102.198 203.259 101.828C203.169 101.488 203.289 101.128 203.399 100.788C203.639 100.008 203.769 99.2079 203.809 98.3879C203.549 98.8679 203.519 99.5879 203.319 100.148C202.929 101.248 201.659 101.878 201.369 102.998C201.049 104.248 202.059 105.398 202.889 106.388C203.659 107.308 204.349 108.388 204.409 109.588C204.469 110.788 203.669 112.098 202.479 112.228C201.189 112.368 200.159 111.198 199.519 110.068C198.889 108.938 198.299 107.628 197.099 107.128C196.239 106.768 195.179 106.958 194.499 107.588C194.359 107.708 194.229 107.858 194.039 107.878C193.859 107.898 193.699 107.768 193.559 107.648C192.609 106.778 191.749 105.438 190.469 105.578C189.079 105.738 188.129 107.668 186.789 107.268C185.759 106.968 185.789 105.958 185.579 105.118C185.569 105.118 185.559 105.128 185.539 105.138C183.779 105.948 181.969 107.098 181.369 108.928C180.959 110.158 181.169 111.538 181.739 112.698C182.309 113.858 183.209 114.838 184.189 115.678C186.049 117.288 188.199 118.478 190.269 119.778C192.409 121.128 194.159 122.648 195.939 124.428C198.989 127.478 202.319 127.228 205.349 124.178C206.909 122.608 208.129 119.998 207.069 117.828C206.459 116.598 205.209 115.748 204.709 114.458L204.699 114.498Z" fill="#FF9A76"/>
</g>
<path d="M187.82 113.808C187.82 113.808 187.81 110.088 189.33 109.748C190.85 109.408 198.43 110.148 198.93 112.098C199.43 114.038 198.62 117.478 198.19 117.758C197.76 118.038 187.81 113.808 187.81 113.808H187.82Z" fill="#E8CA76"/>
<path d="M192.05 142.378C192.05 142.378 199.16 141.578 200.34 136.618C201.52 131.648 206.08 120.008 197.94 115.778C189.8 111.548 178.55 109.618 172.97 117.538C167.76 124.938 168.76 130.698 170.82 134.468C172.74 137.978 192.05 142.388 192.05 142.388V142.378Z" fill="#FF9A76"/>
<g style="mix-blend-mode:multiply" opacity="0.3">
<path d="M202.5 123.108C201.94 123.198 201.7 123.848 201.57 124.398C201.26 125.708 200.94 127.018 200.63 128.328C200.58 128.558 200.51 128.788 200.34 128.948C199.91 129.348 199.21 128.908 198.91 128.408C198.21 127.198 198.27 125.428 197.05 124.758C197.02 125.798 196.95 126.828 196.86 127.868C196.84 128.068 196.81 128.288 196.67 128.438C196.43 128.688 196 128.588 195.69 128.408C194.23 127.568 193.73 125.748 193.36 124.108C193.18 123.298 192.99 122.498 192.81 121.688C192.24 121.358 191.58 121.978 191.31 122.578C191.04 123.178 190.79 123.918 190.15 124.078C189.44 124.248 188.84 123.568 188.48 122.938C187.87 121.888 187.39 120.768 187.04 119.608C185.48 119.818 184.73 121.738 183.28 122.348C183.06 122.438 182.82 122.498 182.59 122.468C181.9 122.358 181.63 121.488 181.71 120.788C181.79 120.098 182.06 119.388 181.87 118.718C181.82 118.558 181.73 118.388 181.57 118.358C181.41 118.318 181.26 118.428 181.13 118.528C180.21 119.258 179.29 119.988 178.37 120.718C177.75 121.208 177.12 121.708 176.37 121.958C175.62 122.208 174.72 122.168 174.13 121.648C173.31 120.928 173.36 119.638 173.62 118.578C173.79 117.878 174.07 117.028 174.03 116.258C173.66 116.658 173.31 117.088 172.98 117.558C167.77 124.958 168.77 130.718 170.83 134.488C172.75 137.998 192.06 142.408 192.06 142.408C192.06 142.408 199.17 141.608 200.35 136.648C201.07 133.618 203.04 128.118 202.63 123.318C202.59 123.258 202.55 123.198 202.5 123.138V123.108Z" fill="#FF9A76"/>
</g>
<path d="M172.699 126.848C172.699 126.848 164.939 144.368 168.759 148.878C172.579 153.388 181.559 157.998 186.999 151.218C192.429 144.438 193.489 139.668 193.489 139.668L193.309 126.898L182.079 123.008L174.289 121.598L173.319 124.028L172.699 126.848Z" fill="#EABC96"/>
<g style="mix-blend-mode:multiply" opacity="0.2">
<path d="M184.77 124.618C182.86 123.848 180.98 122.978 178.99 122.468C178.85 122.428 178.71 122.398 178.57 122.368L177.25 122.128C176.18 121.988 175.1 121.988 174.05 122.178L173.32 124.018L172.7 126.838C172.7 126.838 172.42 127.478 171.99 128.538C173.01 128.748 174.07 128.138 174.35 127.068C175.45 128.398 177.42 128.948 179.04 128.338C179.24 128.268 179.45 128.218 179.65 128.248C180.16 128.328 180.15 128.688 180.24 128.988C180.77 130.618 184.06 129.938 184.05 131.938C184.05 132.238 183.95 132.528 183.81 132.788C182.65 134.918 181.9 137.278 181.64 139.688C181.61 139.988 181.58 140.288 181.64 140.588C181.83 141.438 182.71 141.938 183.52 142.258C184.67 142.698 186 143.078 186.1 144.708C186.13 145.228 186.02 145.738 185.8 146.208C184.56 148.928 181.84 151.388 178.78 151.248C176.9 151.158 175.2 150.128 173.71 148.968C171.85 147.528 170.1 145.718 169.56 143.428C169.47 143.048 169.42 142.648 169.21 142.318C169.01 141.988 168.6 141.738 168.23 141.858C168.1 141.898 167.99 141.978 167.9 142.078C167.48 144.968 167.57 147.508 168.73 148.868C172.55 153.378 181.53 157.988 186.97 151.208C192.4 144.428 193.46 139.658 193.46 139.658L193.3 128.408C192.84 128.128 192.37 127.858 191.9 127.608C189.61 126.418 187.15 125.588 184.75 124.618H184.77Z" fill="#EABC96"/>
</g>
<g style="mix-blend-mode:multiply">
<path d="M178.39 132.868C178.39 132.868 171.9 140.588 172.39 141.718C172.88 142.848 175.33 142.038 175.33 142.038C175.33 142.038 176.04 143.688 177.53 139.508C179.02 135.328 179.8 131.898 178.39 132.868Z" fill="#EABC96"/>
</g>
<path d="M194.449 119.388L176.369 117.268L172.759 121.628L171.359 127.708C171.359 127.708 179.579 129.658 184.839 124.828C184.559 126.318 184.409 128.318 185.279 129.678C185.279 129.678 185.679 127.508 187.139 125.818C187.409 129.888 188.779 135.768 194.239 136.958C202.779 138.828 194.449 119.378 194.449 119.378V119.388Z" fill="#FF9A76"/>
<g style="mix-blend-mode:multiply" opacity="0.3">
<path d="M196.94 126.488C196.91 126.938 196.9 127.398 196.85 127.848C196.83 128.048 196.8 128.268 196.66 128.418C196.42 128.668 195.99 128.568 195.68 128.388C194.22 127.548 193.72 125.728 193.35 124.088C193.17 123.278 192.98 122.478 192.8 121.668C192.23 121.338 191.57 121.958 191.3 122.558C191.03 123.158 190.78 123.898 190.14 124.058C189.43 124.228 188.83 123.548 188.47 122.918C187.86 121.868 187.38 120.748 187.03 119.588C185.47 119.798 184.72 121.718 183.27 122.328C183.05 122.418 182.81 122.478 182.58 122.448C181.89 122.338 181.62 121.468 181.7 120.768C181.78 120.078 182.05 119.368 181.86 118.698C181.81 118.538 181.72 118.368 181.56 118.338C181.4 118.298 181.25 118.408 181.12 118.508C180.2 119.238 179.28 119.968 178.36 120.698C177.74 121.188 177.11 121.688 176.36 121.938C175.61 122.188 174.71 122.148 174.12 121.628C173.83 121.368 173.65 121.038 173.55 120.668L172.75 121.638L171.35 127.718C171.35 127.718 179.57 129.668 184.83 124.838C184.55 126.328 184.4 128.328 185.27 129.688C185.27 129.688 185.67 127.518 187.13 125.828C187.4 129.898 188.77 135.778 194.23 136.968C199.24 138.068 198.44 131.838 196.93 126.488H196.94Z" fill="#FF9A76"/>
</g>
<path d="M167.309 124.968C167.309 124.968 165.519 134.988 165.859 135.208C166.199 135.428 172.279 138.538 172.909 138.448C173.539 138.358 177.159 134.858 177.789 135.198C178.419 135.538 178.489 140.698 178.979 140.968C179.469 141.238 189.419 144.278 190.149 144.138C190.879 144.008 194.199 133.148 193.659 132.588C193.119 132.028 168.179 124.288 167.309 124.958V124.968Z" fill="white"/>
<path d="M180.219 130.328L179.379 133.228C179.099 134.208 179.009 135.228 179.139 136.238C179.389 138.088 179.939 139.748 180.249 139.908C181.049 140.308 188.769 142.368 189.429 142.298C190.089 142.218 192.619 134.368 192.089 133.988C191.559 133.608 180.709 130.018 180.219 130.328Z" fill="#AF333F"/>
<path d="M168.339 126.468C168.339 126.468 166.709 134.178 167.039 134.648C167.369 135.118 172.259 137.158 172.699 136.908C173.139 136.658 176.249 133.988 176.609 133.528C176.959 133.068 177.699 129.738 177.699 129.738C177.699 129.738 170.599 126.598 168.349 126.468H168.339Z" fill="#456190"/>
<path d="M193.659 132.598C193.659 132.598 201.649 136.018 201.989 137.558C202.329 139.098 201.459 141.018 200.739 140.678C200.019 140.338 200.839 138.908 200.169 138.338C199.489 137.768 192.579 137.908 192.579 137.908L193.669 132.598H193.659Z" fill="white"/>
<path d="M193.409 137.898L190.989 143.968C190.989 143.968 194.899 145.698 196.679 142.728C198.459 139.758 196.019 135.628 193.409 137.908V137.898Z" fill="#EABC96"/>
<g style="mix-blend-mode:multiply" opacity="0.2">
<path d="M193.409 137.898L190.989 143.968C190.989 143.968 194.899 145.698 196.679 142.728C198.459 139.758 196.019 135.628 193.409 137.908V137.898Z" fill="#EABC96"/>
</g>
<path d="M177.28 146.218C177.28 147.798 176 149.078 174.42 149.078C172.84 149.078 171.56 147.798 171.56 146.218C171.56 144.638 172.84 144.958 174.42 144.958C176 144.958 177.28 144.638 177.28 146.218Z" fill="white"/>
<path d="M149.709 190.878C149.469 190.918 149.209 190.808 149.059 190.598C149.299 190.298 149.419 189.858 149.229 189.528C149.039 189.188 148.479 189.098 148.279 189.428C148.049 189.068 147.679 188.668 147.269 188.808C147.149 188.848 147.039 188.948 146.929 189.008C146.679 189.148 146.379 189.138 146.099 189.208C145.819 189.278 145.539 189.488 145.549 189.768C145.549 188.898 144.519 188.198 143.709 188.528C143.859 187.928 143.609 187.248 143.099 186.888C143.039 186.328 142.599 185.878 142.089 185.638C141.579 185.398 141.009 185.338 140.459 185.278C140.269 185.648 139.889 185.868 139.619 186.188C139.349 186.498 139.219 187.038 139.549 187.298C139.269 187.048 138.869 186.898 138.519 187.008C138.159 187.128 137.929 187.588 138.129 187.898C137.649 187.728 137.169 187.588 136.679 187.468C136.519 187.428 136.339 187.398 136.199 187.468C136.079 187.538 136.019 187.658 135.959 187.778C135.799 188.118 135.629 188.458 135.469 188.808C135.239 188.328 134.399 188.358 134.209 188.848C134.379 188.638 134.279 188.298 134.059 188.128C133.839 187.958 133.559 187.918 133.279 187.908C132.529 187.878 131.649 188.088 131.379 188.788C131.629 187.998 130.809 187.078 129.989 187.248C130.119 186.858 129.989 186.388 129.669 186.128C129.349 185.868 128.869 185.818 128.509 186.018C128.049 186.268 127.789 186.868 127.269 186.938C127.129 186.958 126.989 186.938 126.859 186.958C126.279 187.058 126.169 187.838 126.229 188.428C126.049 188.258 125.729 188.408 125.629 188.638C125.529 188.868 125.599 189.128 125.659 189.368C125.299 189.228 124.909 189.088 124.539 189.198C124.169 189.298 123.879 189.768 124.099 190.088C123.449 190.428 122.959 191.068 122.799 191.788C125.019 192.888 127.399 193.648 129.849 194.038C132.199 194.408 134.589 194.428 136.969 194.578C138.179 194.658 139.389 194.768 140.599 194.658C141.839 194.548 143.059 194.208 144.259 193.868C145.559 193.498 146.859 193.138 148.159 192.768C149.039 192.518 149.899 191.908 149.729 190.858L149.709 190.878Z" fill="white"/>
<g style="mix-blend-mode:multiply" opacity="0.3">
<path d="M149.059 190.608C149.299 190.308 149.419 189.868 149.229 189.538C149.199 189.478 149.149 189.448 149.099 189.398C148.639 189.398 148.169 189.648 148.019 190.078C147.959 190.258 147.959 190.458 147.939 190.648C147.909 191.118 147.779 191.618 147.409 191.918C146.909 192.328 146.049 192.158 145.739 191.588C145.769 191.918 145.299 192.038 144.969 191.978C144.409 191.888 143.869 191.648 143.419 191.308C143.319 191.608 142.979 191.808 142.659 191.758C142.339 191.708 142.089 191.408 142.079 191.098C141.999 191.288 141.919 191.478 141.759 191.608C141.599 191.728 141.339 191.748 141.209 191.588C141.109 191.468 141.129 191.288 141.119 191.138C141.079 190.598 140.519 190.128 139.989 190.258C139.459 190.388 139.189 191.148 139.579 191.538C139.189 191.478 138.839 191.988 139.049 192.338C138.919 191.988 138.449 191.858 138.109 192.028C137.779 192.188 137.599 192.578 137.599 192.948C137.079 192.598 136.359 192.558 135.809 192.858C135.809 192.558 135.609 192.268 135.319 192.188C135.029 192.108 134.699 192.228 134.539 192.468C134.559 192.068 134.089 191.798 133.699 191.838C133.299 191.878 132.959 192.118 132.589 192.278C132.219 192.438 131.769 192.528 131.449 192.278C130.749 192.478 129.969 192.398 129.329 192.038C129.069 192.348 128.589 192.318 128.179 192.258C127.679 192.188 127.159 192.108 126.769 191.788C126.379 191.468 126.199 190.838 126.539 190.468C126.119 190.708 125.539 190.628 125.179 190.298C124.849 189.988 124.879 189.558 124.739 189.178C124.669 189.178 124.589 189.178 124.519 189.208C124.149 189.308 123.859 189.778 124.079 190.098C123.429 190.438 122.939 191.078 122.779 191.798C124.999 192.898 127.379 193.658 129.829 194.048C132.179 194.418 134.569 194.438 136.949 194.588C138.159 194.668 139.369 194.778 140.579 194.668C141.819 194.558 143.039 194.218 144.239 193.878C145.539 193.508 146.839 193.148 148.139 192.778C149.019 192.528 149.879 191.918 149.709 190.868C149.469 190.908 149.209 190.798 149.059 190.588V190.608Z" fill="#456190"/>
</g>
<path d="M123.39 192.558L127.03 216.968C127.03 216.968 129.33 220.528 135.71 220.838C142.09 221.148 147.18 217.098 147.18 217.098L149.61 191.948C149.61 191.948 136.99 197.038 123.39 192.558Z" fill="#E8CA76"/>
<g style="mix-blend-mode:multiply" opacity="0.2">
<path d="M147.18 217.108L147.46 214.208C147.4 214.208 147.34 214.188 147.28 214.188C146.9 214.188 146.54 214.338 146.19 214.508C145.31 214.928 144.45 215.418 143.51 215.688C141.37 216.298 139.1 215.708 136.96 215.078C135.87 214.758 134.78 214.418 133.8 213.858C131.89 212.768 130.53 210.878 129.67 208.858C128.81 206.828 128.4 204.648 127.99 202.488C127.42 199.458 126.86 196.418 126.29 193.388C125.33 193.158 124.36 192.888 123.38 192.568L127.02 216.978C127.02 216.978 129.32 220.538 135.7 220.848C142.08 221.158 147.17 217.108 147.17 217.108H147.18Z" fill="#E8CA76"/>
</g>
<path d="M146.31 204.118C146.31 206.688 142.03 208.768 136.76 208.768C131.49 208.768 127.21 206.688 127.21 204.118C127.21 201.548 131.49 199.468 136.76 199.468C142.03 199.468 146.31 201.548 146.31 204.118Z" fill="white"/>
<path d="M122.72 192.388C122.72 192.388 126.68 195.308 137 194.998C147.31 194.688 150.37 191.948 150.37 191.948L150.26 190.838C150.26 190.838 149.01 191.868 148.53 191.948C148.05 192.028 143.33 193.598 135.99 193.688C127.45 193.798 122.78 191.288 122.78 191.288L122.72 192.388Z" fill="white"/>
<path d="M119.009 196.398C118.369 197.398 116.479 202.478 124.599 208.698C125.709 209.548 127.749 210.458 128.309 210.388C129.649 210.218 127.759 208.938 125.029 206.708C125.029 206.708 130.929 209.828 131.429 209.048C131.929 208.268 125.559 204.618 125.559 204.618C125.559 204.618 132.539 208.568 132.989 207.698C133.429 206.828 126.429 202.538 126.429 202.538C126.429 202.538 132.169 205.898 132.489 204.788C132.909 203.328 124.329 198.878 124.329 198.878C124.329 198.878 128.229 199.638 128.599 198.228C128.719 197.788 126.419 196.848 123.929 196.228C122.359 195.838 120.809 195.258 119.439 195.988C119.259 196.088 119.109 196.228 118.999 196.398H119.009Z" fill="#EABC96"/>
<path d="M122.529 193.168C122.529 193.168 122.199 192.778 121.609 192.928C120.369 193.248 119.219 194.778 118.479 196.508C117.389 199.078 118.019 199.288 118.359 199.328C118.699 199.368 119.729 196.668 121.429 195.958C122.309 195.588 123.929 196.218 123.929 196.218L123.629 194.178C123.629 194.178 123.259 193.378 122.529 193.158V193.168Z" fill="#E8CA76"/>
<path d="M238.929 226.598C238.929 226.598 236.369 147.548 247.369 144.998C258.369 142.438 308.249 144.738 309.529 147.808C310.809 150.878 308.249 214.578 308.249 214.578L289.939 237.858L238.919 226.598H238.929Z" fill="#AF333F"/>
<path d="M170.24 286.208C170.24 286.208 164.3 229.158 176.3 215.448C188.3 201.728 223.63 197.958 223.63 197.958L237.35 199.788L223.29 270.668L182.25 289.988L170.24 286.218V286.208Z" fill="#202C44"/>
<path d="M182.25 289.978C182.25 289.978 178.01 230.988 190.02 217.268C202.02 203.548 237.35 199.778 237.35 199.778L237.01 272.488L182.26 289.978H182.25Z" fill="#304360"/>
<path d="M230.459 226.598C230.459 226.598 227.899 147.548 238.899 144.998C249.899 142.438 299.779 144.738 301.059 147.808C302.339 150.878 299.779 214.578 299.779 214.578L281.469 237.858L230.449 226.598H230.459Z" fill="#E55853"/>
<path d="M243.25 280.578L176.48 261.648C176.48 261.648 173.15 241.698 187.48 236.318C201.81 230.938 230.46 226.598 230.46 226.598L289.04 237.598L274.28 274.328L243.25 280.578Z" fill="#E55853"/>
<path d="M237.339 228.118C237.339 228.118 233.539 165.308 242.349 154.638C242.349 154.638 261.769 149.828 290.989 155.638C290.989 155.638 285.619 192.378 288.609 236.318L237.339 228.128V228.118Z" fill="#AF333F"/>
<path d="M242.349 280.578C242.349 280.578 238.639 254.768 265.809 253.588C292.979 252.418 268.409 274.828 268.409 274.828L242.349 280.578Z" fill="#AF333F"/>
<path d="M237.34 228.118C237.34 228.118 223.33 231.418 207.54 235.228C189.04 239.678 183.79 244.508 183.5 258.008C183.5 258.008 217.59 268.988 230.42 270.778C232.06 271.008 233.6 269.918 233.94 268.288C234.65 264.988 236.21 259.548 239.23 256.868C246.85 250.118 257.42 242.018 277.01 233.848" fill="#AF333F"/>
<path d="M183.89 164.978C183.89 164.978 178.89 155.888 180.59 153.858C182.29 151.838 188.59 147.998 189.76 147.988C190.93 147.988 191.56 151.018 191.56 151.018C191.56 151.018 194.45 149.538 194.71 151.018C194.97 152.498 194.64 156.648 193.75 157.408C192.86 158.158 192.73 162.948 192.73 162.948L183.89 164.978Z" fill="#EABC96"/>
<path d="M184.84 168.118C184.18 168.068 183.63 167.668 183.43 167.098C182.84 165.448 182.65 164.708 183.43 163.968C184.42 163.028 192.23 160.578 192.98 160.728C193.73 160.878 194.51 165.048 193.93 165.798C193.43 166.448 187.74 168.338 184.84 168.118Z" fill="#E8CA76"/>
<path d="M199 211.958C218.22 209.878 201.65 175.628 196.37 166.198C195.67 164.938 193.96 164.428 192.56 165.068C190.78 165.888 187.28 167.338 184.4 167.438C183.32 167.478 182.44 168.228 182.35 169.198C181.54 177.828 179.29 214.098 199 211.958Z" fill="#679B9B"/>
<g style="mix-blend-mode:multiply" opacity="0.2">
<path d="M206.58 190.698C206.5 190.678 206.42 190.648 206.33 190.638C204.97 190.508 203.94 191.938 203.69 193.288C203.44 194.638 203.64 196.058 203.19 197.358C202.75 198.658 201.22 199.768 200.04 199.068C199.52 198.758 199.22 198.188 198.99 197.628C198.17 195.608 197.99 193.398 197.81 191.218C197.58 188.298 197.34 185.378 197.11 182.448C194.86 186.978 195.64 192.398 194.38 197.298C193.84 199.388 192.32 201.748 190.19 201.448C188.53 201.218 187.56 199.518 186.84 197.998C185.92 196.068 184.67 191.158 182.43 190.908C183.79 202.238 187.93 213.148 199 211.938C208.97 210.858 209.3 201.118 206.58 190.678V190.698Z" fill="#679B9B"/>
</g>
<path d="M246.55 171.498L255.01 193.638L241.08 216.268L243.32 219.498L256.75 200.348L270.92 222.978L274.66 219.748L262.47 196.118L284.11 171.498L279.63 167.768L260.48 189.158L249.79 167.028L246.55 171.498Z" fill="white"/>
<path d="M329.38 240.098C329.38 240.098 326.41 148.448 339.17 145.478C351.92 142.508 409.76 145.178 411.24 148.738C412.72 152.298 409.76 226.148 409.76 226.148L388.53 253.138L329.38 240.088V240.098Z" fill="#AF333F"/>
<path d="M249.74 309.218C249.74 309.218 242.85 243.078 256.77 227.168C270.69 211.258 311.65 206.888 311.65 206.888L327.56 209.008L311.26 291.188L263.68 313.588L249.76 309.218H249.74Z" fill="#202C44"/>
<path d="M263.66 313.588C263.66 313.588 258.75 245.188 272.67 229.288C286.59 213.378 327.55 209.008 327.55 209.008L327.15 293.308L263.67 313.588H263.66Z" fill="#304360"/>
<path d="M319.57 240.098C319.57 240.098 316.6 148.448 329.36 145.478C342.12 142.508 399.95 145.178 401.43 148.738C402.91 152.298 399.95 226.148 399.95 226.148L378.72 253.138L319.57 240.088V240.098Z" fill="#E55853"/>
<path d="M334.4 302.688L256.99 280.738C256.99 280.738 253.13 257.608 269.74 251.378C286.35 245.148 319.57 240.108 319.57 240.108L387.49 252.858L370.37 295.438L334.39 302.688H334.4Z" fill="#E55853"/>
<path d="M327.541 241.858C327.541 241.858 323.141 169.028 333.351 156.658C333.351 156.658 355.871 151.078 389.751 157.808C389.751 157.808 383.531 200.408 386.991 251.358L327.541 241.858Z" fill="#AF333F"/>
<path d="M333.35 302.688C333.35 302.688 329.05 272.758 360.55 271.398C392.05 270.038 363.57 296.018 363.57 296.018L333.35 302.688Z" fill="#AF333F"/>
<path d="M327.54 241.858C327.54 241.858 311.3 245.688 292.98 250.098C271.53 255.258 265.44 260.858 265.11 276.508C265.11 276.508 304.63 289.238 319.52 291.318C321.43 291.588 323.2 290.318 323.6 288.438C324.42 284.608 326.24 278.298 329.74 275.198C338.57 267.378 350.83 257.988 373.55 248.508" fill="#AF333F"/>
<path d="M240.27 336.038C240.27 336.038 235.59 336.988 230.07 336.778C222.75 336.498 214.08 334.148 214.08 336.608C214.08 340.838 225.47 347.178 237.56 348.098C237.84 348.118 243.05 353.358 247.02 351.818C247.02 351.818 252.29 348.048 255.7 344.188C259.11 340.328 240.27 336.038 240.27 336.038Z" fill="#679B9B"/>
<path d="M370.37 241.858C370.37 241.858 369.69 257.918 353.37 268.858C346.45 273.498 317.37 281.128 295.18 302.678C272.99 324.228 255.701 344.188 255.701 344.188L240.271 336.038C240.271 336.038 278.381 284.508 284.811 277.928C291.251 271.348 323.781 244.118 323.781 244.118C323.781 244.118 345.7 229.348 370.37 241.848V241.858Z" fill="#456190"/>
<g style="mix-blend-mode:multiply" opacity="0.3">
<path d="M255.7 344.198C255.7 344.198 272.99 324.238 295.18 302.688C317.37 281.138 346.45 273.498 353.37 268.868C369.69 257.928 370.37 241.868 370.37 241.868C357.34 235.258 345.08 236.268 336.41 238.688C336.41 239.008 336.44 239.338 336.51 239.668C336.88 241.528 338.14 243.058 339.34 244.518C342.39 248.248 345.48 252.758 344.53 257.488C343.7 261.638 340 264.548 336.36 266.708C326.3 272.678 314.64 276.018 305.57 283.418C299.89 288.058 295.52 294.068 290.97 299.818C284.64 307.818 277.84 315.438 271.05 323.048C267.92 326.558 264.7 330.138 260.54 332.338C259.28 333.008 257.81 333.538 256.46 333.108C255.57 332.828 254.85 332.168 254.01 331.778C253.19 331.398 252.26 331.278 251.37 331.448C250.05 331.688 248.92 332.518 247.75 333.188C246.58 333.848 245.17 334.368 243.9 333.918C243.37 333.738 242.94 333.308 242.68 332.808C241.16 334.848 240.28 336.048 240.28 336.048L255.71 344.198H255.7Z" fill="#456190"/>
</g>
<path d="M327.51 166.858C327.51 166.858 322.97 165.798 321.59 167.728C320.21 169.658 310.71 188.638 307.89 191.218C305.07 193.788 299.46 199.578 299.22 201.198C299.22 201.198 279.85 202.088 278.94 208.348C278.94 208.348 271.81 210.558 272.13 213.168C272.45 215.778 272.13 225.978 281.36 227.508C290.6 229.038 311.86 219.848 314.05 218.778C316.24 217.708 333.82 196.148 333.89 184.608C333.96 173.068 327.5 166.858 327.5 166.858H327.51Z" fill="#F5D6D4"/>
<g style="mix-blend-mode:multiply" opacity="0.3">
<path d="M324.27 179.988C323.3 181.148 322.82 182.638 322.41 184.088C320.6 190.518 319.51 197.698 314.58 202.218C313.18 203.498 311.54 204.488 310.04 205.658C307.09 207.968 304.72 210.968 301.69 213.168C295.29 217.828 286.85 218.348 278.93 218.448C276.92 218.468 274.68 218.588 273.01 219.548C273.97 223.008 276.13 226.638 281.35 227.498C290.59 229.028 311.85 219.838 314.04 218.768C316.2 217.718 333.26 196.808 333.86 185.148C331.76 179.828 328.19 175.238 324.25 179.978L324.27 179.988Z" fill="#F5D6D4"/>
</g>
<path d="M312.899 232.808C309.469 232.028 311.689 222.498 312.629 219.108C313.109 217.378 314.179 215.478 316.289 213.618C323.109 207.588 327.579 187.548 326.349 178.168C325.119 168.788 322.549 166.658 329.009 161.828C335.459 156.998 363.369 157.188 363.369 157.188C363.369 157.188 370.039 152.578 370.329 149.948C370.329 149.948 364.449 152.998 357.659 145.678C350.869 138.358 359.339 137.858 358.729 130.388C358.109 122.928 353.639 116.888 360.289 116.188C366.939 115.478 359.819 122.298 384.499 116.388C409.179 110.478 413.969 147.148 400.009 158.348C386.039 169.548 375.649 185.648 375.649 185.648C375.649 185.648 378.749 198.518 375.269 209.638C371.789 220.758 386.219 229.528 376.739 241.018C367.259 252.498 359.439 248.968 357.379 247.098C355.469 245.358 330.159 236.748 312.909 232.808H312.899Z" fill="#F5D6D4"/>
<g style="mix-blend-mode:multiply" opacity="0.3">
<path d="M407.68 141.098C407.48 141.058 407.27 141.018 407.05 140.998C403.23 140.638 400.99 144.238 399.22 147.058C395.04 153.728 390.23 160.018 384.88 165.798C382.76 168.098 380.48 170.358 377.63 171.658C374.78 172.948 371.22 173.098 368.68 171.288C367.55 170.478 366.67 169.338 365.48 168.628C364.29 167.918 362.53 167.798 361.69 168.908C361.26 169.468 361.18 170.218 361.16 170.918C361.01 176.378 363.9 181.398 365.39 186.658C367.21 193.098 366.88 200.128 364.46 206.368C363.67 208.398 362.4 210.578 360.26 211.028C357.39 211.628 355.07 208.888 353.1 206.718C350.27 203.588 346.76 201.078 342.88 199.408C340.29 198.298 336.52 197.998 335.4 200.578C334.37 202.958 336.62 205.368 338.51 207.148C340.4 208.928 342.17 211.978 340.39 213.868C339.48 214.838 338.01 214.968 336.68 214.978C333.57 214.978 330.48 214.608 327.39 214.238C325.57 214.018 323.67 213.758 322.2 212.668C320.74 211.568 319.96 209.328 321.05 207.868C320.86 207.828 320.67 207.788 320.48 207.768C319.23 210.238 317.82 212.298 316.29 213.648C314.18 215.508 313.11 217.398 312.63 219.138C311.69 222.538 309.46 232.058 312.9 232.838C330.15 236.778 355.46 245.388 357.37 247.128C359.42 248.998 367.25 252.528 376.73 241.048C386.21 229.568 371.77 220.788 375.26 209.668C378.74 198.548 375.64 185.678 375.64 185.678C375.64 185.678 386.04 169.568 400 158.378C404.67 154.628 407.24 148.028 407.67 141.128L407.68 141.098Z" fill="#F5D6D4"/>
</g>
<path d="M312.899 232.808C309.469 232.028 311.689 222.498 312.629 219.108C313.109 217.378 314.179 215.478 316.289 213.618C323.109 207.588 327.579 187.548 326.349 178.168C325.119 168.788 322.549 166.658 329.009 161.828C335.459 156.998 363.369 157.188 363.369 157.188C363.369 157.188 370.039 152.578 370.329 149.948C370.329 149.948 364.449 152.998 357.659 145.678C350.869 138.358 359.339 137.858 358.729 130.388C358.109 122.928 353.639 116.888 360.289 116.188C366.939 115.478 359.819 122.298 384.499 116.388C409.179 110.478 413.969 147.148 400.009 158.348C386.039 169.548 375.649 185.648 375.649 185.648C375.649 185.648 378.749 198.518 375.269 209.638C371.789 220.758 386.219 229.528 376.739 241.018C367.259 252.498 359.439 248.968 357.379 247.098C355.469 245.358 330.159 236.748 312.909 232.808H312.899Z" fill="#F5D6D4"/>
<g style="mix-blend-mode:multiply" opacity="0.3">
<path d="M407.68 141.098C407.48 141.058 407.27 141.018 407.05 140.998C403.23 140.638 400.99 144.238 399.22 147.058C395.04 153.728 390.23 160.018 384.88 165.798C382.76 168.098 380.48 170.358 377.63 171.658C374.78 172.948 371.22 173.098 368.68 171.288C367.55 170.478 366.67 169.338 365.48 168.628C364.29 167.918 362.53 167.798 361.69 168.908C361.26 169.468 361.18 170.218 361.16 170.918C361.01 176.378 363.9 181.398 365.39 186.658C367.21 193.098 366.88 200.128 364.46 206.368C363.67 208.398 362.4 210.578 360.26 211.028C357.39 211.628 355.07 208.888 353.1 206.718C350.27 203.588 346.76 201.078 342.88 199.408C340.29 198.298 336.52 197.998 335.4 200.578C334.37 202.958 336.62 205.368 338.51 207.148C340.4 208.928 342.17 211.978 340.39 213.868C339.48 214.838 338.01 214.968 336.68 214.978C333.57 214.978 330.48 214.608 327.39 214.238C325.57 214.018 323.67 213.758 322.2 212.668C320.74 211.568 319.96 209.328 321.05 207.868C320.86 207.828 320.67 207.788 320.48 207.768C319.23 210.238 317.82 212.298 316.29 213.648C314.18 215.508 313.11 217.398 312.63 219.138C311.69 222.538 309.46 232.058 312.9 232.838C330.15 236.778 355.46 245.388 357.37 247.128C359.42 248.998 367.25 252.528 376.73 241.048C386.21 229.568 371.77 220.788 375.26 209.668C378.74 198.548 375.64 185.678 375.64 185.678C375.64 185.678 386.04 169.568 400 158.378C404.67 154.628 407.24 148.028 407.67 141.128L407.68 141.098Z" fill="#F5D6D4"/>
</g>
<g style="mix-blend-mode:multiply" opacity="0.3">
<path d="M375.12 152.188C376.13 151.538 377.25 150.968 377.94 149.988C378.63 149.018 378.82 147.758 379.57 146.838C380.42 145.808 381.79 145.418 383.06 145.038C386.61 143.958 390.22 142.388 392.47 139.428C390.49 138.948 388.55 140.138 386.71 141.008C384.58 142.018 382.28 142.658 379.93 142.888C382.64 137.508 388.86 133.988 389.89 128.058C387.91 128.308 386.39 129.918 385.25 131.558C384.11 133.198 383.1 135.028 381.43 136.118C379.17 137.608 376.23 137.428 373.54 137.188C368.95 136.778 364.37 136.378 359.78 135.968C358.92 135.888 358.01 135.828 357.19 136.058C355.37 138.948 353.13 140.798 357.65 145.668C364.44 152.988 370.32 149.938 370.32 149.938C370.03 152.578 363.36 157.178 363.36 157.178C363.36 157.178 357.09 157.138 349.81 157.598C349.91 157.858 350.02 158.128 350.14 158.378C351.54 161.288 356.57 160.078 359.47 160.318C360.99 160.448 362.74 160.698 363.55 161.998C364.13 162.928 364.29 164.408 365.38 164.568C366.19 164.688 366.85 163.868 367 163.058C367.15 162.258 366.98 161.418 367.11 160.618C367.33 159.158 368.44 158.018 369.49 156.978C371.25 155.248 373.03 153.498 375.11 152.168L375.12 152.188Z" fill="#F5D6D4"/>
</g>
<path d="M341.959 156.258L341.499 160.478C341.349 161.808 341.399 163.148 341.689 164.448C342.089 166.218 342.999 168.228 345.039 168.698C348.849 169.568 355.899 162.578 356.129 155.928C356.359 149.278 341.959 156.258 341.959 156.258Z" fill="#EABC96"/>
<g style="mix-blend-mode:multiply" opacity="0.4">
<path d="M356.139 155.918C356.369 149.268 341.969 156.248 341.969 156.248L341.509 160.468C341.449 161.058 341.429 161.648 341.439 162.228C341.769 162.698 342.189 163.118 342.659 163.458C344.099 164.488 345.989 164.778 347.729 164.458C349.469 164.128 351.069 163.228 352.409 162.068C353.719 160.938 354.809 159.588 355.809 158.178C355.999 157.428 356.119 156.658 356.139 155.908V155.918Z" fill="#EABC96"/>
</g>
<path d="M333.779 124.908C333.779 124.908 329.999 150.478 336.589 154.968C343.179 159.448 356.519 162.208 361.139 151.438C365.759 140.668 365.409 134.078 365.409 134.078L360.569 117.548L344.569 116.538L333.939 117.518L333.549 121.018L333.769 124.908H333.779Z" fill="#EABC96"/>
<g style="mix-blend-mode:multiply" opacity="0.2">
<path d="M348.669 117.668C345.909 117.348 343.159 116.908 340.379 116.948C340.189 116.948 339.989 116.968 339.799 116.968L337.999 117.138C336.559 117.338 335.149 117.728 333.859 118.358L333.569 121.008L333.789 124.898C333.789 124.898 333.649 125.828 333.479 127.358C334.879 127.268 336.039 126.088 336.019 124.598C337.929 125.938 340.689 125.928 342.579 124.558C342.809 124.388 343.069 124.258 343.349 124.228C344.039 124.148 344.149 124.618 344.389 124.968C345.659 126.898 349.699 124.828 350.409 127.428C350.519 127.818 350.489 128.228 350.409 128.618C349.659 131.808 349.549 135.138 350.069 138.378C350.129 138.778 350.209 139.188 350.399 139.538C350.949 140.578 352.269 140.918 353.449 141.028C355.099 141.188 356.959 141.198 357.679 143.278C357.909 143.938 357.939 144.648 357.829 145.338C357.189 149.328 354.539 153.498 350.519 154.418C348.039 154.988 345.459 154.248 343.109 153.288C340.169 152.078 337.239 150.368 335.719 147.578C335.469 147.118 335.249 146.618 334.869 146.258C334.489 145.898 333.869 145.718 333.429 146.008C333.279 146.108 333.169 146.248 333.079 146.408C333.569 150.318 334.609 153.588 336.599 154.938C343.189 159.418 356.529 162.178 361.149 151.408C365.769 140.638 365.419 134.048 365.419 134.048L361.159 119.478C360.459 119.278 359.759 119.098 359.049 118.948C355.639 118.228 352.139 118.038 348.679 117.638L348.669 117.668Z" fill="#EABC96"/>
</g>
<path d="M365.859 141.718C364.319 142.198 362.429 141.758 361.569 140.388C360.879 139.288 360.969 137.858 361.369 136.628C361.769 135.398 362.459 134.268 362.919 133.058C363.339 131.938 363.509 130.548 362.709 129.678C361.909 128.808 360.439 128.778 359.739 127.828C359.119 126.978 359.379 125.808 359.339 124.758C359.269 123.238 358.429 121.778 357.159 120.958C356.409 120.478 355.489 120.198 354.619 120.408C352.739 120.848 351.829 123.248 349.949 123.678C348.009 124.128 346.389 122.308 344.849 121.058C344.429 120.718 343.889 120.388 343.369 120.548C342.779 120.718 342.539 121.398 342.129 121.858C341.209 122.898 339.529 122.738 338.239 122.208C336.949 121.678 335.709 120.868 334.319 120.868C334.449 122.288 334.579 123.698 334.709 125.118C334.769 125.768 334.709 126.608 334.079 126.778C333.609 126.908 333.139 126.518 332.899 126.088C332.299 125.028 332.479 123.718 332.309 122.508C331.959 120.048 330.129 118.068 328.169 116.538C326.209 115.008 324.019 113.738 322.399 111.858C321.299 110.578 320.509 109.058 319.789 107.538C318.689 105.228 317.689 102.678 318.199 100.168C318.709 97.6579 321.369 95.4479 323.759 96.3479C322.019 93.0279 320.499 89.3679 320.889 85.6279C321.269 81.8979 324.139 78.1779 327.899 78.0579C329.799 77.9979 331.609 78.8179 333.329 79.6279C334.229 80.0479 335.149 80.4879 335.849 81.1979C337.059 82.4279 337.399 84.2279 337.819 85.8979C338.409 88.2179 339.269 90.4779 340.369 92.6079C341.459 94.7079 343.179 96.9279 345.549 96.9179C347.589 96.9179 349.219 95.2379 351.169 94.6279C354.149 93.6979 357.689 95.8279 358.279 98.8879C358.579 100.438 358.209 102.088 358.699 103.588C359.369 105.618 361.739 106.908 363.799 106.368C364.269 106.248 364.759 106.038 365.229 106.168C366.679 106.548 365.999 109.028 367.119 110.018C367.669 110.498 368.479 110.468 369.189 110.648C370.569 111.008 371.579 112.198 372.259 113.458C374.299 117.228 374.139 121.818 373.179 125.998C372.419 129.258 371.209 132.388 370.249 135.588C369.459 138.228 368.859 140.788 365.849 141.738L365.859 141.718Z" fill="#679B9B"/>
<g style="mix-blend-mode:multiply" opacity="0.4">
<path d="M373.179 125.978C374.029 122.328 374.249 118.368 372.939 114.908C372.159 116.178 370.959 117.208 369.559 117.728C367.549 118.478 365.179 118.168 363.419 116.938C359.119 113.928 359.379 106.808 354.969 103.948C353.539 103.018 351.329 102.838 350.349 104.248C349.749 105.108 349.829 106.258 349.419 107.228C348.699 108.948 346.559 109.698 344.719 109.428C342.879 109.158 341.259 108.098 339.699 107.068C339.619 108.688 338.649 110.238 337.219 111.008C335.789 111.778 333.959 111.748 332.569 110.918C332.409 112.958 331.019 114.858 329.129 115.628C328.649 115.818 328.129 115.958 327.659 116.148C327.829 116.268 327.989 116.398 328.159 116.528C330.119 118.058 331.949 120.038 332.299 122.498C332.469 123.708 332.299 125.008 332.889 126.078C333.129 126.508 333.589 126.898 334.069 126.768C334.689 126.598 334.759 125.748 334.699 125.108C334.569 123.688 334.439 122.278 334.309 120.858C335.699 120.858 336.939 121.678 338.229 122.198C339.519 122.728 341.199 122.888 342.119 121.848C342.529 121.388 342.769 120.718 343.359 120.538C343.879 120.388 344.409 120.708 344.839 121.048C346.389 122.298 347.999 124.118 349.939 123.668C351.819 123.238 352.729 120.838 354.609 120.398C355.479 120.198 356.399 120.468 357.149 120.948C358.419 121.778 359.259 123.238 359.329 124.748C359.379 125.798 359.109 126.968 359.729 127.818C360.429 128.768 361.899 128.798 362.699 129.668C363.509 130.548 363.329 131.938 362.909 133.048C362.449 134.258 361.769 135.388 361.359 136.618C360.959 137.848 360.859 139.288 361.559 140.378C362.419 141.738 364.309 142.188 365.849 141.708C368.859 140.758 369.459 138.198 370.249 135.558C371.199 132.358 372.419 129.228 373.179 125.968V125.978Z" fill="#679B9B"/>
</g>
<g style="mix-blend-mode:multiply">
<path d="M343.349 130.688C343.349 130.688 337.689 143.058 338.729 144.358C339.769 145.658 342.669 143.718 342.669 143.718C342.669 143.718 344.179 145.598 344.619 139.638C345.059 133.668 344.829 128.918 343.349 130.688Z" fill="#EABC96"/>
</g>
<path d="M339 147.708C339 147.708 338.32 153.218 343.04 154.058C347.76 154.898 349.44 150.358 349.37 148.098C349.3 145.838 346.86 147.928 344.18 148.168C341.5 148.408 339.89 145.438 339 147.708Z" fill="white"/>
<path d="M326.109 124.408C326.109 124.408 327.399 138.078 327.919 138.248C328.439 138.408 337.469 140.268 338.259 139.928C339.049 139.588 342.489 133.728 343.429 133.948C344.369 134.158 346.319 140.838 347.049 141.018C347.779 141.198 361.809 141.558 362.719 141.118C363.629 140.678 364.019 125.368 363.119 124.838C362.209 124.308 326.999 123.228 326.119 124.418L326.109 124.408Z" fill="white"/>
<path d="M344.81 126.728L344.76 130.808C344.74 132.178 345 133.538 345.53 134.798C346.52 137.108 347.83 139.078 348.29 139.168C349.47 139.408 360.26 139.298 361.08 138.968C361.9 138.628 362.38 127.518 361.55 127.208C360.72 126.898 345.33 126.138 344.8 126.728H344.81Z" fill="#AF333F"/>
<path d="M327.97 125.988C327.97 125.988 328.63 136.598 329.22 137.088C329.81 137.578 336.91 138.478 337.39 137.988C337.87 137.498 340.96 132.908 341.25 132.188C341.54 131.468 341.3 126.878 341.3 126.878C341.3 126.878 330.94 125.358 327.97 125.998V125.988Z" fill="#456190"/>
<path d="M272.16 217.848C272.16 217.848 265.21 220.808 263.58 222.018C261.95 223.228 261.54 226.908 261.54 226.908C259.95 235.818 262.13 237.608 263.06 237.968C263.42 240.218 264.32 240.248 264.53 240.258C264.66 240.258 264.87 238.918 265.07 237.208C265.11 241.178 266.58 240.148 266.58 240.148C266.58 240.148 268.36 232.518 268.67 231.328C268.87 230.538 271.63 229.218 273.46 228.408C274.26 228.058 275.17 228.588 275.26 229.448C275.53 232.008 276.14 236.488 277.01 236.238C278.22 235.898 279.34 227.418 279.34 227.418C283.46 212.338 272.16 217.848 272.16 217.848Z" fill="#EABC96"/>
<g style="mix-blend-mode:multiply" opacity="0.2">
<path d="M279.34 227.418C282.65 215.328 276.03 216.478 273.28 217.398C274.12 219.858 277.99 221.278 277.55 223.948C277.39 224.938 276.43 225.588 275.52 226.028C273.71 226.888 271.73 227.398 269.73 227.508C269.54 227.518 269.34 227.528 269.17 227.438C268.94 227.318 268.82 227.058 268.66 226.858C268.23 226.308 267.39 226.138 266.78 226.468C266.37 225.638 265.36 225.348 264.46 225.138C264.14 225.068 263.79 224.988 263.49 225.118C263.26 225.208 263.09 225.408 262.89 225.538C262.55 225.758 262.13 225.788 261.74 225.668C261.58 226.378 261.52 226.888 261.52 226.888C259.93 235.798 262.11 237.588 263.04 237.948C263.4 240.198 264.3 240.228 264.51 240.238C264.64 240.238 264.85 238.898 265.05 237.188C265.09 241.158 266.56 240.128 266.56 240.128C266.56 240.128 268.34 232.498 268.65 231.308C268.85 230.518 271.61 229.198 273.44 228.388C274.24 228.038 275.15 228.568 275.24 229.428C275.51 231.988 276.12 236.468 276.99 236.218C278.2 235.878 279.32 227.398 279.32 227.398L279.34 227.418Z" fill="#EABC96"/>
</g>
<path d="M341.48 335.908C341.48 335.908 333.82 259.458 349.39 241.668C364.96 223.878 410.79 218.978 410.79 218.978L427.71 220.838L407.4 304.918L357.05 340.808L341.47 335.918L341.48 335.908Z" fill="#202C44"/>
<path d="M357.06 340.808C357.06 340.808 351.62 261.838 367.19 244.038C382.76 226.238 427.72 220.838 427.72 220.838L422.99 309.668L357.07 340.808H357.06Z" fill="#304360"/>
<path d="M326.6 306.318C326.6 306.318 329.83 313.268 332.75 321.308C334.8 326.948 335.9 333.818 339.04 336.258C343.42 339.658 346.58 328.178 346.4 317.008C346.37 315.408 345.11 308.348 345.02 306.848C344.89 304.598 346.2 301.308 345.39 299.808C343.92 297.098 340.48 296.248 340.48 296.248L326.6 300.458V306.298V306.318Z" fill="#679B9B"/>
<path d="M312.901 232.808C312.901 232.808 260.301 236.158 256.591 255.228C252.891 274.298 327.311 309.118 327.311 309.118L340.481 296.268C340.481 296.268 294.581 263.938 295.181 261.308C295.181 261.308 304.711 259.968 308.451 260.248C312.191 260.528 344.151 242.508 344.151 242.508C344.151 242.508 342.091 240.108 312.901 232.818V232.808Z" fill="#456190"/>
<g style="mix-blend-mode:multiply" opacity="0.3">
<path d="M340.48 296.258C340.48 296.258 294.58 263.928 295.18 261.298C295.18 261.298 300.54 260.548 304.8 260.288L304.75 260.238L317.3 249.908C317.3 249.908 312.15 247.658 304.75 249.458C297.35 251.268 296.08 252.438 292.27 252.628C288.46 252.808 281.48 253.358 281.48 255.798C281.48 258.238 276.49 258.158 285.65 263.508C294.81 268.858 316.93 283.908 320.74 288.438C324.55 292.968 318.88 299.688 319.81 305.438C324.42 307.758 327.31 309.108 327.31 309.108L340.48 296.258Z" fill="#456190"/>
</g>
</g>
</svg>
