<svg width="360" height="360" viewBox="0 0 360 360" fill="none" xmlns="http://www.w3.org/2000/svg">
<circle cx="180" cy="180" r="180" fill="#FFD664"/>
<path d="M143.489 134.129C153.612 125.879 161.484 128.509 165.495 131.064C167.482 132.313 170.055 132.048 171.834 130.496C174.218 128.396 174.275 124.687 171.966 122.53C155.164 106.787 131.398 129.777 131.398 129.777L69.9775 175.038H99.7605L138.002 139.749C139.648 137.705 141.464 135.775 143.489 134.11V134.129Z" fill="#212121"/>
<path d="M229.602 129.758C229.602 129.758 205.836 106.768 189.033 122.511C186.725 124.687 186.781 128.396 189.166 130.477C190.925 132.029 193.518 132.294 195.504 131.045C199.535 128.49 207.406 125.86 217.51 134.11C219.554 135.775 221.352 137.705 222.998 139.749L261.258 175.038H291.041L229.602 129.758Z" fill="#212121"/>
<path d="M186.496 166.012H83.3154C75.0466 166.012 68.3672 172.711 68.3672 180.96V223.137C68.3672 231.406 75.0655 238.086 83.3154 238.086H146.231C154.783 238.086 162.409 232.731 165.323 224.689L171.075 208.776C174.273 199.939 186.761 199.939 189.959 208.776L195.711 224.689C198.606 232.731 206.251 238.086 214.803 238.086H277.719C285.987 238.086 292.667 231.387 292.667 223.137V180.96C292.667 172.692 285.968 166.012 277.719 166.012H186.553H186.496Z" fill="#212121"/>
<g style="mix-blend-mode:overlay">
<path d="M277.757 166.012H83.2212C75.0091 166.012 68.3486 172.673 68.3486 180.885V182.342C68.3486 175.984 73.4954 170.837 79.8531 170.837H281.125C287.483 170.837 292.629 175.984 292.629 182.342V180.885C292.629 172.673 285.969 166.012 277.757 166.012Z" fill="#F5F5F5"/>
</g>
<path d="M141.671 180.033H91.1499C86.8549 180.033 83.373 183.515 83.373 187.81V217.309C83.373 221.605 86.8549 225.086 91.1499 225.086H141.671C145.966 225.086 149.448 221.605 149.448 217.309V187.81C149.448 183.515 145.966 180.033 141.671 180.033Z" fill="#00BCD4"/>
<path d="M269.83 180.033H219.309C215.014 180.033 211.532 183.515 211.532 187.81V217.309C211.532 221.605 215.014 225.086 219.309 225.086H269.83C274.125 225.086 277.607 221.605 277.607 217.309V187.81C277.607 183.515 274.125 180.033 269.83 180.033Z" fill="#F44336"/>
<g style="mix-blend-mode:overlay" opacity="0.6">
<path d="M149.467 217.309V187.791C149.467 183.496 145.985 180.014 141.69 180.014H89.8252L138.946 225.067H141.69C145.985 225.067 149.467 221.586 149.467 217.29V217.309Z" fill="white"/>
</g>
<g style="mix-blend-mode:overlay" opacity="0.6">
<path d="M269.849 225.086C274.144 225.086 277.626 221.605 277.626 217.309V187.791C277.626 183.496 274.144 180.015 269.849 180.015H218.003L267.124 225.067H269.868L269.849 225.086Z" fill="white"/>
</g>
<g style="mix-blend-mode:multiply" opacity="0.5">
<path d="M115.712 243.819C147.585 243.819 173.423 239.448 173.423 234.055C173.423 228.663 147.585 224.292 115.712 224.292C83.8384 224.292 58 228.663 58 234.055C58 239.448 83.8384 243.819 115.712 243.819Z" fill="#BDBDBD"/>
</g>
<g style="mix-blend-mode:multiply" opacity="0.5">
<path d="M244.568 243.819C276.441 243.819 302.28 239.448 302.28 234.055C302.28 228.663 276.441 224.292 244.568 224.292C212.695 224.292 186.856 228.663 186.856 234.055C186.856 239.448 212.695 243.819 244.568 243.819Z" fill="#BDBDBD"/>
</g>
</svg>
