<svg width="24" height="24" viewBox="0 0 24 24" fill="none" xmlns="http://www.w3.org/2000/svg">
<path fill-rule="evenodd" clip-rule="evenodd" d="M4.53667 5.77643C5.4743 4.83908 6.74584 4.3125 8.07167 4.3125C9.39749 4.3125 10.669 4.83908 11.6067 5.77643C11.79 5.9591 12.026 6.18643 12.3147 6.45843C12.6027 6.18643 12.8383 5.9591 13.0217 5.77643C13.9554 4.8471 15.2181 4.32382 16.5355 4.32029C17.8528 4.31676 19.1184 4.83328 20.0571 5.75759C20.9957 6.6819 21.5317 7.93932 21.5485 9.25658C21.5652 10.5738 21.0615 11.8445 20.1467 12.7924L13.0207 19.9184C12.8331 20.1059 12.5788 20.2112 12.3137 20.2112C12.0485 20.2112 11.7942 20.1059 11.6067 19.9184L4.48067 12.7934C3.56671 11.8508 3.06018 10.5866 3.07047 9.27366C3.08076 7.96076 3.60804 6.70459 4.53667 5.77643Z" fill="white"/>
</svg>
