<svg width="116" height="116" viewBox="0 0 116 116" fill="none" xmlns="http://www.w3.org/2000/svg">
<path fill-rule="evenodd" clip-rule="evenodd" d="M58 6C41.27 6 26.386 13.9004 16.874 26.1738L38.108 44.3776L38.173 30.3205H39.367L63.572 6.29505C61.741 6.10002 59.882 6 58 6ZM6 58C6 46.9062 9.4741 36.6237 15.3936 28.1813L38.093 47.6413L38.049 57.2325L10.5739 76.2959L9.5759 76.9883C7.2675 71.1061 6 64.701 6 58ZM23.3842 96.8046C17.8244 91.8416 13.338 85.7014 10.3162 78.7756H11.3605H53.937L23.3842 96.8046ZM58 110C45.652 110 34.309 105.696 25.39 98.5061L58.326 79.0703L90.885 98.2833C81.924 105.607 70.475 110 58 110ZM105.684 78.7756C102.709 85.5938 98.315 91.6505 92.874 96.5724L62.715 78.7756H104.64H105.684ZM110 58C110 64.701 108.732 71.1061 106.424 76.9883L105.426 76.2959L75.487 55.5228V47.5728L99.648 26.8594C106.149 35.5401 110 46.3204 110 58ZM66.597 6.70733C79.218 8.80698 90.301 15.4518 98.109 24.9027L75.487 44.2963V32.8002V30.3205H72.989H42.9L66.643 6.75341L66.597 6.70733ZM0 58C0 25.9675 25.967 0 58 0C90.033 0 116 25.9675 116 58C116 90.0325 90.033 116 58 116C25.967 116 0 90.0325 0 58ZM72.989 46.438V32.8002H40.66L40.555 55.4935L58 43.3897L72.989 53.7894V46.438ZM75.487 58.5482L101.066 76.2959H14.9343L38.035 60.2676L38.025 62.5565L38.013 65.0362H40.512H72.989H75.487V62.5565V58.5482ZM72.989 56.8148V62.5565H40.523L40.541 58.5287L58 46.4152L72.989 56.8148Z" fill="white"/>
</svg>
