<svg width="24" height="24" viewBox="0 0 24 24" fill="none" xmlns="http://www.w3.org/2000/svg">
<path d="M12.0028 15.5C11.0745 15.5 10.1843 15.1313 9.5279 14.4749C8.87152 13.8185 8.50277 12.9283 8.50277 12C8.50277 11.0717 8.87152 10.1815 9.5279 9.52513C10.1843 8.86875 11.0745 8.5 12.0028 8.5C12.931 8.5 13.8213 8.86875 14.4776 9.52513C15.134 10.1815 15.5028 11.0717 15.5028 12C15.5028 12.9283 15.134 13.8185 14.4776 14.4749C13.8213 15.1313 12.931 15.5 12.0028 15.5ZM19.4328 12.97C19.4728 12.65 19.5028 12.33 19.5028 12C19.5028 11.67 19.4728 11.34 19.4328 11L21.5428 9.37C21.7328 9.22 21.7828 8.95 21.6628 8.73L19.6628 5.27C19.5428 5.05 19.2728 4.96 19.0528 5.05L16.5628 6.05C16.0428 5.66 15.5028 5.32 14.8728 5.07L14.5028 2.42C14.4825 2.30222 14.4211 2.19543 14.3296 2.11855C14.2381 2.04168 14.1223 1.99968 14.0028 2H10.0028C9.75277 2 9.54277 2.18 9.50277 2.42L9.13277 5.07C8.50277 5.32 7.96277 5.66 7.44277 6.05L4.95277 5.05C4.73277 4.96 4.46277 5.05 4.34277 5.27L2.34277 8.73C2.21277 8.95 2.27277 9.22 2.46277 9.37L4.57277 11C4.53277 11.34 4.50277 11.67 4.50277 12C4.50277 12.33 4.53277 12.65 4.57277 12.97L2.46277 14.63C2.27277 14.78 2.21277 15.05 2.34277 15.27L4.34277 18.73C4.46277 18.95 4.73277 19.03 4.95277 18.95L7.44277 17.94C7.96277 18.34 8.50277 18.68 9.13277 18.93L9.50277 21.58C9.54277 21.82 9.75277 22 10.0028 22H14.0028C14.2528 22 14.4628 21.82 14.5028 21.58L14.8728 18.93C15.5028 18.67 16.0428 18.34 16.5628 17.94L19.0528 18.95C19.2728 19.03 19.5428 18.95 19.6628 18.73L21.6628 15.27C21.7828 15.05 21.7328 14.78 21.5428 14.63L19.4328 12.97Z" fill="#6B7684"/>
</svg>
